<svg width="57" height="56" viewBox="0 0 57 56" fill="none" xmlns="http://www.w3.org/2000/svg">
<path d="M28.5 0C13.0362 0 0.5 12.5362 0.5 28C0.5 43.4638 13.0362 56 28.5 56C43.9638 56 56.5 43.4638 56.5 28C56.4827 12.5435 43.9565 0.0172667 28.5 0ZM50.184 13.4308L48.2435 21.6795L38.0202 25.087L29.4333 18.2188V8.09818L39.2333 4.17842C43.6702 6.18856 47.4613 9.39185 50.184 13.4308ZM50.3399 42.3221L41.084 43.7837L36.0441 37.126L38.6117 26.8594L48.7216 23.49L54.5129 30.4395C54.1183 34.6829 52.6852 38.7638 50.34 42.3222L50.3399 42.3221ZM15.9571 43.7901L6.66 42.3222C4.31483 38.7629 2.88193 34.681 2.48777 30.4368L8.27467 23.4873L18.3845 26.8567L20.9521 37.1287L15.9571 43.7901ZM2.37483 27.6519C2.42454 23.4882 3.47491 19.3976 5.43733 15.725L6.95132 22.1648L2.37483 27.6519ZM22.6954 36.4L20.2193 26.486L28.5 19.862L36.7824 26.4887L34.3046 36.4H22.6954ZM50.0487 22.1612L51.5627 15.7212C53.5252 19.3937 54.5755 23.4844 54.6252 27.6481L50.0487 22.1612ZM36.688 3.18733L28.5 6.46217L20.2681 3.2025C25.5966 1.42659 31.3563 1.42127 36.688 3.18733ZM17.7221 4.2L27.5667 8.10145V18.2188L18.9798 25.087L8.7565 21.6795L6.81598 13.4308C9.52973 9.4063 13.3045 6.21143 17.7221 4.2ZM8.2196 44.4582L15.8066 45.6568L20.3948 52.8436C15.6161 51.2741 11.3897 48.3633 8.2196 44.4582ZM23.0709 53.5623L17.5015 44.8428L22.4333 38.2667H34.5667L39.5692 44.8747L34.7161 53.38C30.8985 54.3202 26.9177 54.384 23.0719 53.5669L23.0709 53.5623ZM37.3088 52.6016L41.2869 45.6399L48.784 44.4572C45.772 48.1664 41.8041 50.9826 37.3087 52.6017L37.3088 52.6016Z" fill="#010792"/>
</svg>
