<svg width="57" height="52" viewBox="0 0 57 52" fill="none" xmlns="http://www.w3.org/2000/svg">
<path d="M50.8994 1.30005H50.9004C53.7167 1.30026 55.9998 3.58332 56 6.39966C56 9.21195 53.7237 11.4922 50.9131 11.4993C50.7093 11.4912 50.5061 11.4711 50.3047 11.4377L49.9404 11.3772L49.7754 11.7073L39.5439 32.1663L39.3857 32.4827L39.6318 32.7375C40.5558 33.6925 41.0704 34.9703 41.0664 36.2991C41.0579 39.1157 38.7678 41.3925 35.9512 41.384C33.1348 41.3755 30.859 39.0852 30.8672 36.2688C30.8709 35.4128 31.0923 34.5717 31.5117 33.8254L31.6865 33.5149L31.4502 33.2483L23.5068 24.3167L23.2695 24.0491L22.9395 24.1877C22.0527 24.5616 21.074 24.6623 20.1299 24.4758L19.7773 24.4055L19.5986 24.718L9.8916 41.72L9.71582 42.0286L9.9502 42.2971C10.7011 43.155 11.1384 44.24 11.1943 45.3743L11.2002 45.6018C11.1993 48.4177 8.91568 50.7004 6.09961 50.7004C3.28313 50.7002 1 48.4164 1 45.5999C1.00011 42.7844 3.28162 40.502 6.09668 40.5002C6.40188 40.5037 6.70613 40.5344 7.00586 40.592L7.35742 40.6594L7.53516 40.3489L17.2412 23.3469L17.418 23.0383L17.1836 22.7698C16.383 21.8551 15.9391 20.6825 15.9336 19.467C15.9336 16.6505 18.2166 14.3666 21.0332 14.3665C23.7618 14.3665 25.9903 16.5097 26.127 19.2043L26.1338 19.467C26.1273 20.3224 25.9025 21.1619 25.4814 21.9065L25.3057 22.218L25.543 22.4856L33.4854 31.4172L33.7217 31.6819L34.0488 31.5471C34.6561 31.2977 35.3064 31.1692 35.9629 31.1672C36.1638 31.1756 36.3641 31.1958 36.5625 31.2288L36.9268 31.2893L37.0918 30.9592L47.3223 10.5012L47.4814 10.1838L47.2344 9.92896C46.313 8.97756 45.7985 7.70452 45.8008 6.38013C45.8059 3.56959 48.089 1.29497 50.8994 1.30005ZM6.09961 43.2336C4.79275 43.2339 3.73351 44.293 3.7334 45.5999C3.7334 46.9068 4.79268 47.9668 6.09961 47.967C7.40672 47.967 8.4668 46.907 8.4668 45.5999C8.46669 44.2928 7.40665 43.2336 6.09961 43.2336ZM35.9668 33.8997C34.6597 33.8997 33.5996 34.9597 33.5996 36.2668C33.5997 37.5739 34.6597 38.6331 35.9668 38.6331C37.2737 38.633 38.3328 37.5738 38.333 36.2668C38.333 34.9598 37.2739 33.8997 35.9668 33.8997ZM21.0332 17.0999C19.7261 17.0999 18.667 18.16 18.667 19.467C18.6672 20.7739 19.7263 21.8332 21.0332 21.8333C22.3402 21.8333 23.4002 20.774 23.4004 19.467C23.4004 18.1599 22.3403 17.0999 21.0332 17.0999ZM50.9004 4.03345C49.5934 4.03345 48.5334 5.09273 48.5332 6.39966C48.5332 7.70677 49.5933 8.76685 50.9004 8.76685C52.2073 8.76663 53.2666 7.70664 53.2666 6.39966C53.2664 5.09286 52.2072 4.03366 50.9004 4.03345Z" fill="#010792" stroke="white"/>
</svg>
