<svg width="38" height="54" viewBox="0 0 38 54" fill="none" xmlns="http://www.w3.org/2000/svg">
<path d="M19.0001 35.3244C17.3537 35.3244 15.7443 34.8362 14.3754 33.9215C13.0064 33.0068 11.9395 31.7068 11.3094 30.1857C10.6794 28.6646 10.5145 26.9909 10.8357 25.3761C11.1569 23.7614 11.9497 22.2781 13.1139 21.1139C14.2781 19.9497 15.7614 19.1569 17.3761 18.8357C18.9909 18.5145 20.6646 18.6794 22.1857 19.3094C23.7068 19.9395 25.0068 21.0064 25.9215 22.3754C26.8362 23.7443 27.3244 25.3537 27.3244 27.0001C27.3244 29.2079 26.4474 31.3252 24.8863 32.8863C23.3252 34.4474 21.2079 35.3244 19.0001 35.3244ZM19.0001 20.1893C17.6531 20.1893 16.3363 20.5887 15.2162 21.3371C14.0962 22.0855 13.2232 23.1492 12.7077 24.3937C12.1922 25.6382 12.0574 27.0077 12.3202 28.3288C12.583 29.65 13.2316 30.8636 14.1841 31.8161C15.1366 32.7686 16.3502 33.4173 17.6714 33.6801C18.9926 33.9429 20.362 33.808 21.6065 33.2925C22.851 32.777 23.9147 31.904 24.6631 30.784C25.4115 29.664 25.8109 28.3472 25.8109 27.0001C25.8109 25.1938 25.0934 23.4614 23.8161 22.1841C22.5388 20.9069 20.8064 20.1893 19.0001 20.1893Z" fill="#010792"/>
<path d="M35.6496 53.4866H2.3523C1.75019 53.4866 1.17274 53.2475 0.746978 52.8217C0.321219 52.3959 0.0820312 51.8185 0.0820312 51.2164V2.78394C0.0820312 2.18183 0.321219 1.60438 0.746978 1.17862C1.17274 0.75286 1.75019 0.513672 2.3523 0.513672H35.6496C36.2517 0.513672 36.8292 0.75286 37.2549 1.17862C37.6807 1.60438 37.9199 2.18183 37.9199 2.78394V51.2164C37.9199 51.8185 37.6807 52.3959 37.2549 52.8217C36.8292 53.2475 36.2517 53.4866 35.6496 53.4866ZM2.3523 2.02719C2.1516 2.02719 1.95911 2.10692 1.81719 2.24883C1.67527 2.39075 1.59554 2.58324 1.59554 2.78394V51.2164C1.59554 51.4171 1.67527 51.6096 1.81719 51.7515C1.95911 51.8934 2.1516 51.9731 2.3523 51.9731H35.6496C35.8503 51.9731 36.0428 51.8934 36.1847 51.7515C36.3266 51.6096 36.4064 51.4171 36.4064 51.2164V2.78394C36.4064 2.58324 36.3266 2.39075 36.1847 2.24883C36.0428 2.10692 35.8503 2.02719 35.6496 2.02719H2.3523Z" fill="#010792"/>
<path d="M37.1631 27.7569H0.838788C0.638084 27.7569 0.4456 27.6772 0.30368 27.5353C0.161761 27.3934 0.0820312 27.2009 0.0820312 27.0002C0.0820312 26.7995 0.161761 26.607 0.30368 26.4651C0.4456 26.3231 0.638084 26.2434 0.838788 26.2434H37.1631C37.3638 26.2434 37.5563 26.3231 37.6982 26.4651C37.8401 26.607 37.9199 26.7995 37.9199 27.0002C37.9199 27.2009 37.8401 27.3934 37.6982 27.5353C37.5563 27.6772 37.3638 27.7569 37.1631 27.7569ZM28.8388 8.08124H9.16311C8.96241 8.08124 8.76992 8.00151 8.62801 7.85959C8.48609 7.71767 8.40636 7.52519 8.40636 7.32448V1.27043C8.40636 1.06972 8.48609 0.87724 8.62801 0.735321C8.76992 0.593401 8.96241 0.513672 9.16311 0.513672H28.8388C29.0395 0.513672 29.232 0.593401 29.3739 0.735321C29.5158 0.87724 29.5955 1.06972 29.5955 1.27043V7.32448C29.5955 7.52519 29.5158 7.71767 29.3739 7.85959C29.232 8.00151 29.0395 8.08124 28.8388 8.08124ZM9.91987 6.56773H28.082V2.02719H9.91987V6.56773Z" fill="#010792"/>
<path d="M19.0008 12.6217C17.4902 12.6227 16.022 12.1214 14.8274 11.1967C13.6328 10.272 12.7796 8.97635 12.4019 7.51364C12.3771 7.41724 12.3715 7.3169 12.3854 7.21833C12.3993 7.11976 12.4326 7.0249 12.4831 6.93917C12.5337 6.85344 12.6007 6.77852 12.6803 6.71867C12.7598 6.65883 12.8504 6.61524 12.9468 6.5904C13.0432 6.56555 13.1435 6.55994 13.2421 6.57387C13.3407 6.58781 13.4355 6.62102 13.5213 6.67162C13.607 6.72221 13.6819 6.7892 13.7418 6.86875C13.8016 6.9483 13.8452 7.03886 13.87 7.13526C14.1624 8.27389 14.8253 9.2829 15.7542 10.0034C16.6831 10.7239 17.8253 11.1149 19.0008 11.1149C20.1764 11.1149 21.3186 10.7239 22.2475 10.0034C23.1764 9.2829 23.8392 8.27389 24.1317 7.13526C24.1818 6.94058 24.3073 6.7738 24.4804 6.67162C24.6536 6.56944 24.8602 6.54022 25.0549 6.5904C25.2496 6.64057 25.4164 6.76603 25.5185 6.93917C25.6207 7.11231 25.6499 7.31896 25.5998 7.51364C25.2221 8.97635 24.3688 10.272 23.1742 11.1967C21.9797 12.1214 20.5115 12.6227 19.0008 12.6217ZM28.8387 53.4866H9.16301C8.9623 53.4866 8.76982 53.4069 8.6279 53.265C8.48598 53.123 8.40625 52.9306 8.40625 52.7299V46.6758C8.40625 46.4751 8.48598 46.2826 8.6279 46.1407C8.76982 45.9988 8.9623 45.919 9.16301 45.919H28.8387C29.0394 45.919 29.2319 45.9988 29.3738 46.1407C29.5157 46.2826 29.5954 46.4751 29.5954 46.6758V52.7299C29.5954 52.9306 29.5157 53.123 29.3738 53.265C29.2319 53.4069 29.0394 53.4866 28.8387 53.4866ZM9.91976 51.9731H28.0819V47.4326H9.91976V51.9731Z" fill="#010792"/>
<path d="M24.8659 47.4324C24.6941 47.4379 24.5255 47.3846 24.388 47.2815C24.2504 47.1783 24.1521 47.0314 24.1092 46.8649C23.8168 45.7262 23.1539 44.7172 22.225 43.9967C21.2961 43.2762 20.1539 42.8852 18.9784 42.8852C17.8028 42.8852 16.6606 43.2762 15.7317 43.9967C14.8028 44.7172 14.14 45.7262 13.8476 46.8649C13.8227 46.9613 13.7791 47.0518 13.7193 47.1314C13.6594 47.2109 13.5845 47.2779 13.4988 47.3285C13.4131 47.3791 13.3182 47.4123 13.2196 47.4263C13.1211 47.4402 13.0207 47.4346 12.9243 47.4097C12.8279 47.3849 12.7374 47.3413 12.6578 47.2815C12.5783 47.2216 12.5113 47.1467 12.4607 47.061C12.4101 46.9752 12.3769 46.8804 12.3629 46.7818C12.349 46.6832 12.3546 46.5829 12.3795 46.4865C12.7539 45.0206 13.6058 43.7211 14.8007 42.7931C15.9956 41.8651 17.4654 41.3613 18.9784 41.3613C20.4913 41.3613 21.9612 41.8651 23.1561 42.7931C24.351 43.7211 25.2028 45.0206 25.5773 46.4865C25.6061 46.5829 25.6155 46.684 25.6047 46.7841C25.594 46.8841 25.5634 46.981 25.5148 47.0691C25.4662 47.1572 25.4005 47.2347 25.3216 47.2971C25.2426 47.3594 25.1521 47.4055 25.0551 47.4324C24.9923 47.4398 24.9288 47.4398 24.8659 47.4324Z" fill="#010792"/>
</svg>
