<svg width="57" height="56" viewBox="0 0 57 56" fill="none" xmlns="http://www.w3.org/2000/svg">
<path d="M28.5 0.5C35.8464 0.5 42.7505 3.35999 47.9453 8.55469C53.1399 13.7494 56 20.6535 56 28C56 35.3465 53.1399 42.2506 47.9453 47.4453C42.7505 52.64 35.8464 55.5 28.5 55.5C21.1536 55.5 14.2495 52.64 9.05469 47.4453C3.86006 42.2506 1 35.3465 1 28C1 20.6535 3.86006 13.7494 9.05469 8.55469C14.2495 3.35999 21.1536 0.5 28.5 0.5ZM28.5 32.8594C20.4613 32.8594 13.3489 38.0619 10.873 45.627L10.7764 45.9248L11.002 46.1426C15.5393 50.5204 21.7103 53.2188 28.5 53.2188C35.2899 53.2188 41.4615 50.5205 45.999 46.1426L46.2236 45.9248L46.127 45.627C43.651 38.0618 36.5388 32.8594 28.5 32.8594ZM28.5 2.78125C14.5939 2.78125 3.28125 14.0939 3.28125 28C3.28125 33.7611 5.22515 39.0766 8.48828 43.3271L9.00879 44.0059L9.34473 43.2197C11.7016 37.7055 16.33 33.5139 21.9248 31.6465L22.8467 31.3389L22.0605 30.7676C19.3073 28.7682 17.5156 25.5267 17.5156 21.875C17.5156 15.8187 22.4437 10.8906 28.5 10.8906C34.5563 10.8906 39.4844 15.8187 39.4844 21.875C39.4844 25.5267 37.6926 28.7682 34.9395 30.7676L34.1533 31.3389L35.0752 31.6465C40.6699 33.5139 45.2984 37.7055 47.6553 43.2197L47.9912 44.0059L48.5117 43.3271C51.7748 39.0766 53.7188 33.7611 53.7188 28C53.7188 14.0939 42.4061 2.78125 28.5 2.78125ZM28.5 13.1719C23.7007 13.1719 19.7969 17.0757 19.7969 21.875C19.7969 26.6743 23.7007 30.5781 28.5 30.5781C33.2993 30.5781 37.2031 26.6743 37.2031 21.875C37.2031 17.0757 33.2993 13.1719 28.5 13.1719Z" fill="#010792" stroke="white"/>
</svg>
