<svg width="55" height="56" viewBox="0 0 55 56" fill="none" xmlns="http://www.w3.org/2000/svg">
<path fill-rule="evenodd" clip-rule="evenodd" d="M23.9313 45.4519H3.27371C1.67618 45.4519 0.375 44.1555 0.375 42.558V21.0643C0.375 19.4734 1.67618 18.1702 3.27371 18.1702H4.86928V12.6932C4.86928 6.13511 10.2358 0.768555 16.7938 0.768555C23.3519 0.768555 28.7138 6.135 28.7138 12.6932C28.7138 12.9261 28.6212 13.1496 28.4565 13.3143C28.2917 13.479 28.0683 13.5716 27.8353 13.5716H22.7798C22.5469 13.5716 22.3234 13.479 22.1587 13.3143C21.994 13.1496 21.9014 12.9261 21.9014 12.6932C21.9014 9.88777 19.5952 7.58079 16.7938 7.58079C13.9924 7.58079 11.6862 9.88777 11.6862 12.6932V18.1702H30.3139C31.912 18.1702 33.2079 19.4729 33.2079 21.0643V24.2505C34.9077 23.633 36.7417 23.2963 38.6536 23.2963C47.4664 23.2963 54.6212 30.4511 54.6212 39.2637C54.6212 48.0765 47.4664 55.2313 38.6536 55.2313C32.0347 55.2313 26.351 51.1952 23.9313 45.4519ZM6.62614 18.1702H9.92937V12.6932C9.92937 8.92325 13.0292 5.82393 16.7938 5.82393C20.2614 5.82393 23.1651 8.45351 23.6016 11.8147H26.919C26.4703 6.63 22.0897 2.52542 16.7938 2.52542C11.202 2.52542 6.62614 7.10128 6.62614 12.6932V18.1702ZM31.4511 25.0115V21.0643C31.4511 20.4389 30.9419 19.927 30.3139 19.927H3.27371C2.6452 19.927 2.13186 20.4384 2.13186 21.0643V42.558C2.13186 43.1865 2.6452 43.6951 3.27371 43.6951H23.3101C22.9038 42.2879 22.6862 40.8011 22.6862 39.2637C22.6862 33.0417 26.2526 27.6461 31.4511 25.0115ZM38.6536 25.0531C30.8106 25.0531 24.443 31.4207 24.443 39.2637C24.443 47.1068 30.8106 53.4744 38.6536 53.4744C46.4967 53.4744 52.8644 47.1068 52.8644 39.2637C52.8644 31.4207 46.4967 25.0531 38.6536 25.0531ZM42.0273 38.9719C45.5394 40.2377 48.1333 43.424 48.5436 47.2629C48.5566 47.3855 48.5438 47.5094 48.5058 47.6266C48.4679 47.7439 48.4057 47.8518 48.3233 47.9434C48.241 48.0351 48.1402 48.1084 48.0277 48.1585C47.9151 48.2087 47.7933 48.2347 47.6701 48.2347H29.6372C29.5139 48.2347 29.392 48.2088 29.2795 48.1586C29.1669 48.1084 29.0661 48.0351 28.9837 47.9434C28.9013 47.8517 28.8392 47.7436 28.8013 47.6263C28.7634 47.509 28.7506 47.3851 28.7638 47.2625C29.1761 43.4234 31.7707 40.2374 35.2819 38.9716C34.0106 37.9696 33.192 36.4163 33.192 34.6781C33.192 31.6694 35.6449 29.2141 38.6536 29.2141C41.6652 29.2141 44.1177 31.6695 44.1177 34.6781C44.1177 36.4163 43.2992 37.9698 42.0273 38.9719ZM38.6536 40.1422C34.7691 40.1422 31.5159 42.8478 30.6747 46.4778H46.6331C45.7939 42.8477 42.5403 40.1422 38.6536 40.1422ZM38.6536 38.3853C40.697 38.3853 42.3608 36.7195 42.3608 34.6781C42.3608 32.6368 40.697 30.971 38.6536 30.971C36.6125 30.971 34.9489 32.6369 34.9489 34.6781C34.9489 36.7193 36.6125 38.3853 38.6536 38.3853ZM16.7938 23.263C19.4487 23.263 21.6006 25.4195 21.6006 28.0745C21.6006 29.6257 20.8718 31.0026 19.7346 31.8818V37.4184C19.7346 39.0388 18.4076 40.3591 16.7938 40.3591C15.1734 40.3591 13.853 39.0388 13.853 37.4184V31.8819C12.7151 31.0027 11.9824 29.6256 11.9824 28.0745C11.9824 25.4199 14.1393 23.263 16.7938 23.263ZM16.7938 25.0198C15.1085 25.0198 13.7392 26.3892 13.7392 28.0745C13.7392 29.1752 14.3207 30.1376 15.1925 30.6752C15.3201 30.7539 15.4254 30.8639 15.4985 30.9948C15.5715 31.1257 15.6099 31.2731 15.6099 31.423V37.4184C15.6099 38.0707 16.1414 38.6023 16.7938 38.6023C17.4435 38.6023 17.9778 38.0707 17.9778 37.4184V31.423C17.9778 31.2731 18.0161 31.1257 18.0892 30.9948C18.1622 30.8639 18.2676 30.7539 18.3951 30.6752C18.8389 30.4018 19.2051 30.0192 19.4588 29.5638C19.7124 29.1085 19.845 28.5957 19.8438 28.0745C19.8438 26.3894 18.4788 25.0198 16.7938 25.0198Z" fill="#010792"/>
</svg>
