<svg width="58" height="54" viewBox="0 0 58 54" fill="none" xmlns="http://www.w3.org/2000/svg">
<mask id="path-1-inside-1_30031_9795" fill="white">
<path fill-rule="evenodd" clip-rule="evenodd" d="M53.064 39.3489C52.4929 39.0664 52.0033 38.6365 51.6848 38.0847L30.9285 2.13379C29.7738 0.133788 26.887 0.133792 25.7323 2.13379L4.34317 39.1809C4.07877 39.6389 3.69356 40.0127 3.25013 40.3008C1.30794 41.5625 0.214844 42.9868 0.214844 44.4943C0.214844 49.6703 13.1026 53.8663 29.0006 53.8663C44.8985 53.8663 57.7863 49.6703 57.7863 44.4943C57.7863 42.594 56.0493 40.8258 53.064 39.3489Z"/>
</mask>
<path d="M4.34317 39.1809L2.61112 38.1809L4.34317 39.1809ZM3.25013 40.3008L2.16057 38.6236H2.16057L3.25013 40.3008ZM51.6848 38.0847L49.9527 39.0847L51.6848 38.0847ZM53.064 39.3489L53.9508 37.5563L53.064 39.3489ZM25.7323 2.13379L24.0003 1.13379L25.7323 2.13379ZM29.1964 3.13379L49.9527 39.0847L53.4168 37.0847L32.6605 1.13379L29.1964 3.13379ZM6.07522 40.1809L27.4644 3.13379L24.0003 1.13379L2.61112 38.1809L6.07522 40.1809ZM2.21484 44.4943C2.21484 44.0247 2.57575 43.1239 4.3397 41.9779L2.16057 38.6236C0.0401234 40.0012 -1.78516 41.949 -1.78516 44.4943H2.21484ZM29.0006 51.8663C21.2029 51.8663 14.2251 50.8344 9.26516 49.2196C6.77417 48.4086 4.90319 47.486 3.69692 46.5575C2.46254 45.6073 2.21484 44.8923 2.21484 44.4943H-1.78516C-1.78516 46.6843 -0.421882 48.4348 1.25702 49.7271C2.96402 51.0411 5.3086 52.1381 8.02681 53.0231C13.4852 54.8002 20.9003 55.8663 29.0006 55.8663V51.8663ZM55.7863 44.4943C55.7863 44.8923 55.5386 45.6073 54.3042 46.5575C53.0979 47.486 51.2269 48.4086 48.736 49.2196C43.776 50.8344 36.7983 51.8663 29.0006 51.8663V55.8663C37.1008 55.8663 44.5159 54.8002 49.9743 53.0231C52.6925 52.1381 55.0371 51.0411 56.7441 49.7271C58.423 48.4348 59.7863 46.6843 59.7863 44.4943H55.7863ZM52.1771 41.1415C53.5447 41.8181 54.4972 42.501 55.0832 43.1282C55.6593 43.7449 55.7863 44.1973 55.7863 44.4943H59.7863C59.7863 42.8909 59.0447 41.5092 58.006 40.3974C56.9772 39.2962 55.5685 38.3566 53.9508 37.5563L52.1771 41.1415ZM2.61112 38.1809C2.5321 38.3178 2.39002 38.4745 2.16057 38.6236L4.3397 41.9779C4.99711 41.5508 5.62544 40.9599 6.07522 40.1809L2.61112 38.1809ZM49.9527 39.0847C50.4915 40.0179 51.2957 40.7054 52.1771 41.1415L53.9508 37.5563C53.6901 37.4273 53.5151 37.255 53.4168 37.0847L49.9527 39.0847ZM32.6605 1.13379C30.736 -2.19955 25.9248 -2.19954 24.0003 1.13379L27.4644 3.13379C27.8493 2.46712 28.8115 2.46713 29.1964 3.13379L32.6605 1.13379Z" fill="#010792" mask="url(#path-1-inside-1_30031_9795)"/>
</svg>
