<svg width="58" height="54" viewBox="0 0 58 54" fill="none" xmlns="http://www.w3.org/2000/svg">
<mask id="path-1-inside-1_32699_3734" fill="white">
<path d="M51.4697 37.4516C51.7882 38.0034 52.2779 38.4333 52.8489 38.7158C55.8341 40.1926 57.5712 41.9602 57.5713 43.8604C57.5713 49.0364 44.6839 53.2323 28.7861 53.2324C12.8882 53.2324 0 49.0364 0 43.8604C9.58636e-05 42.3534 1.09244 40.9292 3.03354 39.6678C3.47679 39.3797 3.86187 39.006 4.1262 38.5482L25.5171 1.49986C26.6718 -0.500098 29.5586 -0.500059 30.7132 1.49993L51.4697 37.4516Z"/>
</mask>
<path d="M51.4697 37.4516C51.7882 38.0034 52.2779 38.4333 52.8489 38.7158C55.8341 40.1926 57.5712 41.9602 57.5713 43.8604C57.5713 49.0364 44.6839 53.2323 28.7861 53.2324C12.8882 53.2324 0 49.0364 0 43.8604C9.58636e-05 42.3534 1.09244 40.9292 3.03354 39.6678C3.47679 39.3797 3.86187 39.006 4.1262 38.5482L25.5171 1.49986C26.6718 -0.500098 29.5586 -0.500059 30.7132 1.49993L51.4697 37.4516Z" fill="#010792"/>
<path d="M57.5713 43.8604L59.5713 43.8604L59.5713 43.8602L57.5713 43.8604ZM28.7861 53.2324L28.7861 55.2324L28.7861 55.2324L28.7861 53.2324ZM0 43.8604L-2 43.8602V43.8604H0ZM3.03354 39.6678L4.12338 41.3447L3.03354 39.6678ZM4.1262 38.5482L2.39417 37.5481L4.1262 38.5482ZM52.8489 38.7158L53.7358 36.9232L52.8489 38.7158ZM51.4697 37.4516L53.2017 36.4516L51.4697 37.4516ZM52.8489 38.7158L51.9621 40.5084C53.3297 41.185 54.2822 41.8678 54.8682 42.4949C55.4444 43.1114 55.5713 43.5637 55.5713 43.8605L57.5713 43.8604L59.5713 43.8602C59.5712 42.2569 58.8295 40.8753 57.7907 39.7638C56.7619 38.6628 55.3533 37.7234 53.7358 36.9232L52.8489 38.7158ZM57.5713 43.8604H55.5713C55.5713 44.2584 55.3236 44.9734 54.0893 45.9235C52.883 46.8521 51.0121 47.7746 48.5212 48.5856C43.5613 50.2005 36.5837 51.2324 28.7861 51.2324L28.7861 53.2324L28.7861 55.2324C36.8863 55.2324 44.3012 54.1663 49.7595 52.3891C52.4777 51.5041 54.8222 50.4072 56.5292 49.0932C58.2081 47.8008 59.5713 46.0503 59.5713 43.8604H57.5713ZM28.7861 53.2324V51.2324C20.9884 51.2324 14.0106 50.2005 9.05051 48.5857C6.55947 47.7746 4.68843 46.8521 3.48212 45.9235C2.24769 44.9733 2 44.2583 2 43.8604H0H-2C-2 46.0504 -0.636667 47.8009 1.04226 49.0932C2.7493 50.4072 5.09394 51.5042 7.81219 52.3892C13.2707 54.1663 20.6859 55.2324 28.7861 55.2324V53.2324ZM0 43.8604L2 43.8605C2.00003 43.3908 2.36085 42.4902 4.12338 41.3447L3.03354 39.6678L1.94369 37.9908C-0.175973 39.3683 -1.99984 41.316 -2 43.8602L0 43.8604ZM4.1262 38.5482L5.85823 39.5482L27.2491 2.4999L25.5171 1.49986L23.7851 0.499821L2.39417 37.5481L4.1262 38.5482ZM30.7132 1.49993L28.9812 2.49992L49.7376 38.4516L51.4697 37.4516L53.2017 36.4516L32.4453 0.499937L30.7132 1.49993ZM3.03354 39.6678L4.12338 41.3447C4.78046 40.9177 5.40856 40.327 5.85823 39.5482L4.1262 38.5482L2.39417 37.5481C2.31518 37.6849 2.17313 37.8417 1.94369 37.9908L3.03354 39.6678ZM25.5171 1.49986L27.2491 2.4999C27.6341 1.83324 28.5963 1.83326 28.9812 2.49992L30.7132 1.49993L32.4453 0.499937C30.5208 -2.83337 25.7096 -2.83344 23.7851 0.499821L25.5171 1.49986ZM52.8489 38.7158L53.7358 36.9232C53.4751 36.7942 53.3 36.6219 53.2017 36.4516L51.4697 37.4516L49.7376 38.4516C50.2764 39.3848 51.0807 40.0724 51.9621 40.5084L52.8489 38.7158Z" fill="black" mask="url(#path-1-inside-1_32699_3734)"/>
</svg>
