<svg width="46" height="69" viewBox="0 0 46 69" fill="none" xmlns="http://www.w3.org/2000/svg">
<mask id="path-1-inside-1_32699_3732" fill="white">
<path d="M22.1602 0C28.5679 9.4604e-05 33.7627 4.04057 33.7627 9.02441C33.7626 12.5673 31.1362 15.6307 27.3164 17.1074V24.4941H40.1357C43.2157 24.4942 45.5631 27.2525 45.0713 30.293L39.5986 64.124C39.2069 66.5457 37.1162 68.3251 34.6631 68.3252H11.4688C9.06961 68.325 7.00918 66.6211 6.55859 64.2646L0.0908203 30.4326C-0.498186 27.3508 1.86338 24.4944 5.00098 24.4941H18.292V17.5322C13.7863 16.2932 10.5578 12.9532 10.5576 9.02441C10.5576 4.04052 15.7523 0 22.1602 0Z"/>
</mask>
<path d="M22.1602 0C28.5679 9.4604e-05 33.7627 4.04057 33.7627 9.02441C33.7626 12.5673 31.1362 15.6307 27.3164 17.1074V24.4941H40.1357C43.2157 24.4942 45.5631 27.2525 45.0713 30.293L39.5986 64.124C39.2069 66.5457 37.1162 68.3251 34.6631 68.3252H11.4688C9.06961 68.325 7.00918 66.6211 6.55859 64.2646L0.0908203 30.4326C-0.498186 27.3508 1.86338 24.4944 5.00098 24.4941H18.292V17.5322C13.7863 16.2932 10.5578 12.9532 10.5576 9.02441C10.5576 4.04052 15.7523 0 22.1602 0Z" fill="#010792"/>
<path d="M22.1602 0L22.1602 -2H22.1602V0ZM33.7627 9.02441L35.7627 9.02449V9.02441H33.7627ZM27.3164 17.1074L26.5952 15.242L25.3164 15.7364V17.1074H27.3164ZM27.3164 24.4941H25.3164V26.4941H27.3164V24.4941ZM40.1357 24.4941L40.1358 22.4941H40.1357V24.4941ZM45.0713 30.293L43.097 29.9736L43.097 29.9736L45.0713 30.293ZM39.5986 64.124L41.573 64.4434L41.573 64.4434L39.5986 64.124ZM34.6631 68.3252L34.6631 70.3252L34.6632 70.3252L34.6631 68.3252ZM11.4688 68.3252L11.4686 70.3252H11.4688V68.3252ZM6.55859 64.2646L4.59417 64.6402L4.59418 64.6403L6.55859 64.2646ZM0.0908203 30.4326L-1.87362 30.8081L-1.8736 30.8082L0.0908203 30.4326ZM5.00098 24.4941L5.00098 22.4941L5.00081 22.4941L5.00098 24.4941ZM18.292 24.4941V26.4941H20.292V24.4941H18.292ZM18.292 17.5322H20.292V16.008L18.8223 15.6038L18.292 17.5322ZM10.5576 9.02441L8.55762 9.02441L8.55762 9.02449L10.5576 9.02441ZM22.1602 0L22.1601 2C27.9602 2.00009 31.7627 5.58376 31.7627 9.02441H33.7627H35.7627C35.7627 2.49739 29.1756 -1.9999 22.1602 -2L22.1602 0ZM33.7627 9.02441L31.7627 9.02434C31.7626 11.4913 29.9069 13.9617 26.5952 15.242L27.3164 17.1074L28.0376 18.9729C32.3656 17.2997 35.7625 13.6432 35.7627 9.02449L33.7627 9.02441ZM27.3164 17.1074H25.3164V24.4941H27.3164H29.3164V17.1074H27.3164ZM27.3164 24.4941V26.4941H40.1357V24.4941V22.4941H27.3164V24.4941ZM40.1357 24.4941L40.1357 26.4941C41.9834 26.4942 43.3921 28.149 43.097 29.9736L45.0713 30.293L47.0456 30.6123C47.7342 26.356 44.448 22.4942 40.1358 22.4941L40.1357 24.4941ZM45.0713 30.293L43.097 29.9736L37.6243 63.8046L39.5986 64.124L41.573 64.4434L47.0456 30.6123L45.0713 30.293ZM39.5986 64.124L37.6243 63.8046C37.3893 65.2575 36.1351 66.3251 34.663 66.3252L34.6631 68.3252L34.6632 70.3252C38.0974 70.3251 41.0245 67.8339 41.573 64.4434L39.5986 64.124ZM34.6631 68.3252V66.3252H11.4688V68.3252V70.3252H34.6631V68.3252ZM11.4688 68.3252L11.4689 66.3252C10.0294 66.3251 8.79335 65.3029 8.523 63.889L6.55859 64.2646L4.59418 64.6403C5.22501 67.9394 8.10981 70.3249 11.4686 70.3252L11.4688 68.3252ZM6.55859 64.2646L8.52302 63.8891L2.05525 30.0571L0.0908203 30.4326L-1.8736 30.8082L4.59417 64.6402L6.55859 64.2646ZM0.0908203 30.4326L2.05526 30.0572C1.70182 28.2078 3.11882 26.4943 5.00115 26.4941L5.00098 24.4941L5.00081 22.4941C0.607927 22.4945 -2.69819 26.4937 -1.87362 30.8081L0.0908203 30.4326ZM5.00098 24.4941V26.4941H18.292V24.4941V22.4941H5.00098V24.4941ZM18.292 24.4941H20.292V17.5322H18.292H16.292V24.4941H18.292ZM18.292 17.5322L18.8223 15.6038C14.8575 14.5135 12.5577 11.7534 12.5576 9.02434L10.5576 9.02441L8.55762 9.02449C8.55781 14.1529 12.7151 18.0729 17.7617 19.4606L18.292 17.5322ZM10.5576 9.02441H12.5576C12.5576 5.58367 16.36 2 22.1602 2V0V-2C15.1445 -2 8.55762 2.49736 8.55762 9.02441H10.5576Z" fill="black" mask="url(#path-1-inside-1_32699_3732)"/>
</svg>
