<svg width="46" height="69" viewBox="0 0 46 69" fill="none" xmlns="http://www.w3.org/2000/svg">
<mask id="path-1-inside-1_30031_9803" fill="white">
<path fill-rule="evenodd" clip-rule="evenodd" d="M27.7464 17.6977C31.5668 16.221 34.1922 13.1548 34.1922 9.61155C34.1922 4.62765 28.9976 0.587402 22.5898 0.587402C16.1819 0.587402 10.9873 4.62765 10.9873 9.61155C10.9873 13.5407 14.2159 16.8834 18.7223 18.1222V25.0815H5.43126C2.29335 25.0815 -0.0690238 27.9383 0.5202 31.0204L6.988 64.852C7.43855 67.2087 9.49966 68.9131 11.8991 68.9131H35.0927C37.546 68.9131 39.6368 67.1333 40.0286 64.7115L45.5013 30.88C45.9932 27.8394 43.6455 25.0815 40.5655 25.0815H27.7464V17.6977Z"/>
</mask>
<path d="M27.7464 17.6977L27.0254 15.8322L25.7464 16.3265V17.6977H27.7464ZM18.7223 18.1222H20.7223V16.5978L19.2524 16.1937L18.7223 18.1222ZM18.7223 25.0815V27.0815H20.7223V25.0815H18.7223ZM0.5202 31.0204L-1.44422 31.3959H-1.44422L0.5202 31.0204ZM6.988 64.852L5.02358 65.2275L6.988 64.852ZM40.0286 64.7115L42.0029 65.0309V65.0309L40.0286 64.7115ZM45.5013 30.88L47.4757 31.1993L45.5013 30.88ZM27.7464 25.0815H25.7464V27.0815H27.7464V25.0815ZM28.4675 19.5632C32.7972 17.8896 36.1922 14.2297 36.1922 9.61155H32.1922C32.1922 12.0798 30.3363 14.5524 27.0254 15.8322L28.4675 19.5632ZM36.1922 9.61155C36.1922 3.08444 29.6053 -1.4126 22.5898 -1.4126V2.5874C28.39 2.5874 32.1922 6.17086 32.1922 9.61155H36.1922ZM22.5898 -1.4126C15.5742 -1.4126 8.9873 3.08444 8.9873 9.61155H12.9873C12.9873 6.17086 16.7896 2.5874 22.5898 2.5874V-1.4126ZM8.9873 9.61155C8.9873 14.7398 13.144 18.6629 18.1921 20.0507L19.2524 16.1937C15.2878 15.1039 12.9873 12.3416 12.9873 9.61155H8.9873ZM20.7223 25.0815V18.1222H16.7223V25.0815H20.7223ZM5.43126 27.0815H18.7223V23.0815H5.43126V27.0815ZM2.48462 30.6448C2.13109 28.7956 3.54851 27.0815 5.43126 27.0815V23.0815C1.03818 23.0815 -2.26914 27.081 -1.44422 31.3959L2.48462 30.6448ZM8.95242 64.4764L2.48462 30.6448L-1.44422 31.3959L5.02358 65.2275L8.95242 64.4764ZM11.8991 66.9131C10.4594 66.9131 9.22275 65.8904 8.95242 64.4764L5.02358 65.2275C5.65434 68.5269 8.5399 70.9131 11.8991 70.9131V66.9131ZM35.0927 66.9131H11.8991V70.9131H35.0927V66.9131ZM38.0542 64.3921C37.8192 65.8452 36.5647 66.9131 35.0927 66.9131V70.9131C38.5272 70.9131 41.4544 68.4213 42.0029 65.0309L38.0542 64.3921ZM43.527 30.5606L38.0542 64.3921L42.0029 65.0309L47.4757 31.1993L43.527 30.5606ZM40.5655 27.0815C42.4135 27.0815 43.8221 28.7363 43.527 30.5606L47.4757 31.1993C48.1642 26.9426 44.8775 23.0815 40.5655 23.0815V27.0815ZM27.7464 27.0815H40.5655V23.0815H27.7464V27.0815ZM25.7464 17.6977V25.0815H29.7464V17.6977H25.7464Z" fill="#010792" mask="url(#path-1-inside-1_30031_9803)"/>
</svg>
