<svg width="52" height="56" viewBox="0 0 52 56" fill="none" xmlns="http://www.w3.org/2000/svg">
<path d="M2.08203 0.5C2.41355 0.5 2.7314 0.631791 2.96582 0.866211C3.20024 1.10063 3.33203 1.41848 3.33203 1.75V3.14453L3.89746 3.06934C8.09375 2.51348 17.6794 2.03566 25.7461 7.46582L26.1289 7.72949H26.1299C31.6646 11.6065 37.4953 12.7361 41.9473 12.8945C46.2796 13.0487 49.3317 12.2832 49.5859 12.2129C49.8311 12.1462 50.0914 12.1566 50.3311 12.2412C50.511 12.3048 50.673 12.409 50.8057 12.5439L50.9277 12.6885C51.0394 12.8431 51.1143 13.0207 51.1465 13.207L51.1641 13.3965C51.1677 13.5874 51.1277 13.7756 51.0479 13.9473L50.9551 14.1123V14.1133C50.7137 14.4764 47.6063 19.0604 42.7051 22.9805C37.9494 26.7841 31.5993 29.8914 24.5703 28.0664L23.8877 27.874H23.8867C12.6905 24.4868 5.50382 29.1025 3.52637 30.6328L3.33203 30.7832V54.25C3.33203 54.5401 3.23105 54.8196 3.04883 55.042L2.96582 55.1338C2.7314 55.3682 2.41355 55.5 2.08203 55.5C1.79198 55.5 1.51246 55.399 1.29004 55.2168L1.19824 55.1338C0.963822 54.8994 0.832031 54.5815 0.832031 54.25V1.75L0.837891 1.62598C0.862314 1.38089 0.959144 1.14854 1.11523 0.958008L1.19824 0.866211C1.40325 0.6612 1.67202 0.534359 1.95801 0.505859L2.08203 0.5ZM24.3359 9.52441C16.682 4.39571 7.22929 5.12121 3.76172 5.61621L3.33203 5.67773V27.6914L4.08301 27.2539C7.62607 25.1924 14.3494 22.6636 23.6973 25.2168L24.6104 25.4805C29.2315 26.8809 33.625 25.673 37.3379 23.5723C41.0478 21.4732 44.1245 18.4583 46.1582 16.1504L46.9746 15.2236L45.7432 15.3213C40.9275 15.7027 33.0385 15.2848 25.4336 10.2725L24.6992 9.77344L24.3359 9.52441Z" fill="#010792" stroke="white"/>
</svg>
