<svg width="56" height="56" viewBox="0 0 56 56" fill="none" xmlns="http://www.w3.org/2000/svg">
<path d="M28 0C12.5362 0 0 12.5362 0 28C0 43.4638 12.5362 56 28 56C43.4638 56 56 43.4638 56 28C55.9827 12.5435 43.4565 0.0172667 28 0ZM49.684 13.4308L47.7435 21.6795L37.5202 25.087L28.9333 18.2188V8.09818L38.7333 4.17842C43.1702 6.18856 46.9613 9.39185 49.684 13.4308ZM49.8399 42.3221L40.584 43.7837L35.5441 37.126L38.1117 26.8594L48.2216 23.49L54.0129 30.4395C53.6183 34.6829 52.1852 38.7638 49.84 42.3222L49.8399 42.3221ZM15.457 43.7901L6.16 42.3222C3.81483 38.7629 2.38193 34.681 1.98777 30.4368L7.77467 23.4873L17.8845 26.8567L20.4521 37.1287L15.457 43.7901ZM1.87483 27.6519C1.92454 23.4882 2.97491 19.3976 4.93733 15.725L6.45132 22.1648L1.87483 27.6519ZM22.1954 36.4L19.7193 26.486L28 19.862L36.2824 26.4887L33.8046 36.4H22.1954ZM49.5487 22.1612L51.0627 15.7212C53.0252 19.3937 54.0755 23.4844 54.1252 27.6481L49.5487 22.1612ZM36.188 3.18733L28 6.46217L19.7681 3.2025C25.0966 1.42659 30.8563 1.42127 36.188 3.18733ZM17.2221 4.2L27.0667 8.10145V18.2188L18.4798 25.087L8.2565 21.6795L6.31598 13.4308C9.02973 9.4063 12.8045 6.21143 17.2221 4.2ZM7.7196 44.4582L15.3066 45.6568L19.8948 52.8436C15.1161 51.2741 10.8897 48.3633 7.7196 44.4582ZM22.5709 53.5623L17.0015 44.8428L21.9333 38.2667H34.0667L39.0692 44.8747L34.2161 53.38C30.3985 54.3202 26.4177 54.384 22.5719 53.5669L22.5709 53.5623ZM36.8088 52.6016L40.7869 45.6399L48.284 44.4572C45.272 48.1664 41.3041 50.9826 36.8087 52.6017L36.8088 52.6016Z" fill="#010792"/>
</svg>
