<svg width="86" height="31" viewBox="0 0 86 31" fill="none" xmlns="http://www.w3.org/2000/svg">
<g clip-path="url(#clip0_30781_3787)">
<path d="M0.140625 21.2334L8.35222 30.9027" stroke="#010792"/>
<path d="M0.191406 10.3979L18.2666 30.9027" stroke="#010792"/>
<path d="M1.44922 0.194336L28.7564 30.9028" stroke="#010792"/>
<path d="M13.2109 0.194336L40.5181 31" stroke="#010792"/>
<path d="M24.8711 -0.291504L52.0811 31" stroke="#010792"/>
<path d="M36.8242 -0.291504L64.0343 31" stroke="#010792"/>
<path d="M48.4844 -0.388672L75.6944 30.9029" stroke="#010792"/>
<path d="M59.5664 -1.35986L86.7764 29.9317" stroke="#010792"/>
<path d="M65.8789 -7.48242L93.0889 23.8091" stroke="#010792"/>
<path d="M87.0156 21.2334L78.804 30.9027" stroke="#010792"/>
<path d="M86.9727 10.3979L68.8974 30.9027" stroke="#010792"/>
<path d="M85.707 0.194336L58.3998 30.9028" stroke="#010792"/>
<path d="M73.9492 0.194336L46.642 31" stroke="#010792"/>
<path d="M62.2812 -0.291504L35.0712 31" stroke="#010792"/>
<path d="M50.332 -0.291504L23.122 31" stroke="#010792"/>
<path d="M38.668 -0.388672L11.4579 30.9029" stroke="#010792"/>
<path d="M27.5938 -1.35986L0.383718 29.9317" stroke="#010792"/>
<path d="M21.2773 -7.48242L-5.93269 23.8091" stroke="#010792"/>
</g>
<rect x="0.59375" y="0.5" width="84.8088" height="30" stroke="#010792"/>
<defs>
<clipPath id="clip0_30781_3787">
<rect x="0.09375" width="85.8088" height="31" fill="white"/>
</clipPath>
</defs>
</svg>
