<svg width="76" height="28" viewBox="0 0 76 28" fill="none" xmlns="http://www.w3.org/2000/svg">
<g clip-path="url(#clip0_30781_3765)">
<path d="M1.01562 19.1973L8.10144 27.5409" stroke="#010792" stroke-width="0.862903"/>
<path d="M1.05859 9.84766L16.6558 27.5412" stroke="#010792" stroke-width="0.862903"/>
<path d="M2.14453 1.04248L25.708 27.5409" stroke="#010792" stroke-width="0.862903"/>
<path d="M12.293 1.04248L35.8565 27.6248" stroke="#010792" stroke-width="0.862903"/>
<path d="M22.3555 0.623535L45.8351 27.6251" stroke="#010792" stroke-width="0.862903"/>
<path d="M32.6719 0.623535L56.1515 27.6251" stroke="#010792" stroke-width="0.862903"/>
<path d="M42.7305 0.539551L66.2101 27.5411" stroke="#010792" stroke-width="0.862903"/>
<path d="M52.2969 -0.29834L75.7765 26.7032" stroke="#010792" stroke-width="0.862903"/>
<path d="M57.7422 -5.58154L81.2218 21.42" stroke="#010792" stroke-width="0.862903"/>
<path d="M75.9805 19.1973L68.8947 27.5409" stroke="#010792" stroke-width="0.862903"/>
<path d="M75.9453 9.84766L60.3481 27.5412" stroke="#010792" stroke-width="0.862903"/>
<path d="M74.8516 1.04248L51.2881 27.5409" stroke="#010792" stroke-width="0.862903"/>
<path d="M64.707 1.04248L41.1435 27.6248" stroke="#010792" stroke-width="0.862903"/>
<path d="M54.6367 0.623535L31.1571 27.6251" stroke="#010792" stroke-width="0.862903"/>
<path d="M44.3281 0.623535L20.8485 27.6251" stroke="#010792" stroke-width="0.862903"/>
<path d="M34.2617 0.539551L10.7821 27.5411" stroke="#010792" stroke-width="0.862903"/>
<path d="M24.707 -0.29834L1.22741 26.7032" stroke="#010792" stroke-width="0.862903"/>
<path d="M19.2539 -5.58154L-4.22572 21.42" stroke="#010792" stroke-width="0.862903"/>
</g>
<rect x="1.40801" y="1.30645" width="73.1818" height="25.8871" stroke="#010792" stroke-width="0.862903"/>
<defs>
<clipPath id="clip0_30781_3765">
<rect x="0.976562" y="0.875" width="74.0447" height="26.75" fill="white"/>
</clipPath>
</defs>
</svg>
