<svg width="104" height="38" viewBox="0 0 104 38" fill="none" xmlns="http://www.w3.org/2000/svg">
<g clip-path="url(#clip0_30781_3809)">
<path d="M0.5 25.6392L10.3672 37.2579" stroke="#010792" stroke-width="1.20161"/>
<path d="M0.5625 12.6191L22.2819 37.2579" stroke="#010792" stroke-width="1.20161"/>
<path d="M2.07422 0.358398L34.8869 37.2581" stroke="#010792" stroke-width="1.20161"/>
<path d="M16.207 0.358398L49.0197 37.3749" stroke="#010792" stroke-width="1.20161"/>
<path d="M30.2148 -0.225098L62.9108 37.3752" stroke="#010792" stroke-width="1.20161"/>
<path d="M44.5781 -0.225098L77.2741 37.3752" stroke="#010792" stroke-width="1.20161"/>
<path d="M58.5898 -0.341797L91.2858 37.2585" stroke="#010792" stroke-width="1.20161"/>
<path d="M71.9062 -1.50879L104.602 36.0915" stroke="#010792" stroke-width="1.20161"/>
<path d="M79.4922 -8.86621L112.188 28.7341" stroke="#010792" stroke-width="1.20161"/>
<path d="M104.891 25.6392L95.0235 37.2579" stroke="#010792" stroke-width="1.20161"/>
<path d="M104.84 12.6191L83.1204 37.2579" stroke="#010792" stroke-width="1.20161"/>
<path d="M103.316 0.358398L70.5037 37.2581" stroke="#010792" stroke-width="1.20161"/>
<path d="M89.1875 0.358398L56.3748 37.3749" stroke="#010792" stroke-width="1.20161"/>
<path d="M75.168 -0.225098L42.472 37.3752" stroke="#010792" stroke-width="1.20161"/>
<path d="M60.8125 -0.225098L28.1166 37.3752" stroke="#010792" stroke-width="1.20161"/>
<path d="M46.7969 -0.341797L14.1009 37.2585" stroke="#010792" stroke-width="1.20161"/>
<path d="M33.4883 -1.50879L0.792355 36.0915" stroke="#010792" stroke-width="1.20161"/>
<path d="M25.8984 -8.86621L-6.79749 28.7341" stroke="#010792" stroke-width="1.20161"/>
</g>
<rect x="1.04612" y="0.725806" width="101.907" height="36.0484" stroke="#010792" stroke-width="1.20161"/>
<defs>
<clipPath id="clip0_30781_3809">
<rect x="0.445312" y="0.125" width="103.109" height="37.25" fill="white"/>
</clipPath>
</defs>
</svg>
