<svg width="54" height="54" viewBox="0 0 54 54" fill="none" xmlns="http://www.w3.org/2000/svg">
<mask id="path-1-inside-1_4323_9161" fill="white">
<path d="M27.5 17C19.6931 17 12.7775 13.1916 8.5039 7.33301C13.336 2.78691 19.842 2.98619e-06 27 2.36041e-06C34.4481 1.70928e-06 41.1913 3.01641 46.0762 7.89356C41.7772 13.4338 35.0554 17 27.5 17ZM27 54C12.0883 54 -1.05679e-06 41.9117 -2.36041e-06 27C-2.91022e-06 20.711 2.15054 14.9245 5.75586 10.335C10.7863 16.8229 18.6548 21 27.5 21C36.0498 21 43.6886 17.0985 48.7324 10.9785C52.042 15.4603 54 21.0011 54 27C54 41.9117 41.9117 54 27 54Z"/>
</mask>
<path d="M8.5039 7.33301L7.13345 5.87635L5.84798 7.08575L6.88811 8.51166L8.5039 7.33301ZM46.0762 7.89356L47.6563 9.11965L48.7383 7.72526L47.4893 6.47823L46.0762 7.89356ZM5.75586 10.335L7.33641 9.10947L5.76615 7.08426L4.18309 9.09948L5.75586 10.335ZM48.7324 10.9785L50.3413 9.79045L48.8189 7.72885L47.189 9.70653L48.7324 10.9785ZM27.5 17L27.5 15C20.3595 15 14.0333 11.5194 10.1197 6.15437L8.5039 7.33301L6.88811 8.51166C11.5217 14.8638 19.0268 19 27.5 19L27.5 17ZM8.5039 7.33301L9.87436 8.78967C14.3505 4.57841 20.3717 2 27 2L27 2.36041e-06L27 -2C19.3123 -2 12.3214 0.995413 7.13345 5.87635L8.5039 7.33301ZM27 2.36041e-06L27 2C33.8968 2 40.1378 4.79072 44.6631 9.30888L46.0762 7.89356L47.4893 6.47823C42.2449 1.2421 34.9994 -2 27 -2L27 2.36041e-06ZM46.0762 7.89356L44.4961 6.66746C40.5595 11.7406 34.4111 15 27.5 15L27.5 17L27.5 19C35.6997 19 42.9948 15.1269 47.6563 9.11965L46.0762 7.89356ZM27 54L27 52C13.1929 52 2 40.8071 2 27L-2.36041e-06 27L-2 27C-2 43.0163 10.9837 56 27 56L27 54ZM-2.36041e-06 27L2 27C2 21.1749 3.99014 15.8203 7.32862 11.5704L5.75586 10.335L4.18309 9.09948C0.310939 14.0287 -2 20.2471 -2 27L-2.36041e-06 27ZM5.75586 10.335L4.1753 11.5605C9.56812 18.5157 18.0101 23 27.5 23L27.5 21L27.5 19C19.2995 19 12.0046 15.1301 7.33641 9.10947L5.75586 10.335ZM27.5 21L27.5 23C36.6723 23 44.8683 18.8118 50.2758 12.2505L48.7324 10.9785L47.189 9.70653C42.5089 15.3853 35.4273 19 27.5 19L27.5 21ZM48.7324 10.9785L47.1235 12.1666C50.188 16.3165 52 21.4435 52 27L54 27L56 27C56 20.5586 53.896 14.6042 50.3413 9.79045L48.7324 10.9785ZM54 27L52 27C52 40.8071 40.8071 52 27 52L27 54L27 56C43.0163 56 56 43.0163 56 27L54 27Z" fill="#010792" mask="url(#path-1-inside-1_4323_9161)"/>
</svg>
