<svg width="51" height="52" viewBox="0 0 51 52" fill="none" xmlns="http://www.w3.org/2000/svg">
<path d="M5.1582 12.9062C9.47117 16.4046 15.2393 21.9004 26 21.9004C30.9222 21.9004 34.3423 21.2899 37.5088 19.7217C40.3763 18.3015 42.9714 16.1215 46.2646 13.0801C48.781 17.4963 50 21.214 50 26C50 39.491 40.8923 50.0347 26.4404 50.9023C12.0723 51.7648 1 40.295 1 25.9004C1 21.455 2.66404 16.2651 5.1582 12.9062Z" fill="#010792" stroke="black" stroke-width="2"/>
<path d="M43 9.50017C38 4.00027 22.5 -3.49963 8.5 9.00074C13.5 14.5007 20 16.9014 26 16.9014C33 16.9014 39 13.9999 43 9.50017Z" stroke="black" stroke-width="2"/>
</svg>
