<svg width="46" height="57" viewBox="0 0 46 57" fill="none" xmlns="http://www.w3.org/2000/svg">
<path d="M17.9581 0.653024C18.4074 0.845128 18.8543 1.04291 19.2974 1.2486C22.2942 2.08527 25.1764 1.3924 28.0389 0.403265C28.2287 0.377905 28.4184 0.352545 28.6139 0.326416C29.0902 0.744282 29.5645 1.16448 30.0308 1.59322C31.02 2.348 32.0739 2.86206 33.1946 3.40038C33.412 3.50556 33.6295 3.61074 33.8535 3.7191C34.4872 4.02419 35.1217 4.32746 35.7566 4.62996C39.6575 6.49305 41.3053 8.37209 42.7437 12.3794C43.3904 14.2777 43.9469 16.1966 44.4521 18.1362C44.5204 18.3962 44.5887 18.6563 44.659 18.9242C44.7188 19.1678 44.7786 19.4114 44.8402 19.6623C44.8931 19.8763 44.9459 20.0903 45.0004 20.3107C45.0854 21.0247 45.0177 21.4789 44.7626 22.1515C42.9387 23.8729 41.2187 24.6594 38.7263 25.0034C37.6109 24.8839 36.9526 24.342 36.0672 23.6885C34.3626 30.9899 35.2123 38.284 35.9356 45.6598C35.9642 45.9536 35.9927 46.2473 36.0221 46.55C36.0762 47.1021 36.1315 47.654 36.1884 48.2058C36.5496 51.8706 36.5496 51.8706 36.3777 53.1985C33.8478 56.0618 28.3154 55.9966 24.7408 56.2338C19.7042 56.4822 13.6026 56.3862 9.08802 53.9454C8.11231 52.8411 8.35355 51.8479 8.4281 50.432C8.49666 49.5245 8.59443 48.6222 8.69983 47.7182C8.75692 47.1987 8.8137 46.6792 8.8702 46.1596C8.89964 45.8911 8.92909 45.6225 8.95943 45.3458C9.73784 38.1387 10.4888 30.814 8.73865 23.6885C8.61095 23.8347 8.48325 23.981 8.35168 24.1316C7.3792 24.987 6.2733 24.9815 5.01204 24.9181C3.8983 24.6384 2.92129 24.2179 1.90652 23.6885C1.70156 23.5839 1.4966 23.4793 1.28542 23.3715C0.76137 23.0353 0.761363 23.0353 0.0432165 22.1515C-0.040391 20.1126 0.542363 18.023 1.05251 16.0613C1.12116 15.7951 1.18982 15.5289 1.26055 15.2547C3.16654 8.0683 3.16656 8.0683 5.53791 6.41512C6.12913 6.09834 6.72612 5.8207 7.34117 5.55215C7.78458 5.3453 8.22777 5.13796 8.67072 4.93015C8.89089 4.82881 9.11107 4.72747 9.33792 4.62306C11.469 3.62706 13.563 2.6058 15.3379 1.05648C16.3167 0.280178 16.7726 0.258003 17.9581 0.653024ZM20.2291 3.09298C20.2291 3.19442 20.2291 3.29586 20.2291 3.40038C21.6638 3.40038 23.0986 3.40038 24.5768 3.40038C24.5768 3.29894 24.5768 3.1975 24.5768 3.09298C23.142 3.09298 21.7073 3.09298 20.2291 3.09298ZM20.2291 5.24475C20.2291 5.34619 20.2291 5.44763 20.2291 5.55215C21.7884 5.79166 23.0169 5.89956 24.5768 5.55215C24.5768 5.45071 24.5768 5.34927 24.5768 5.24475C23.142 5.24475 21.7073 5.24475 20.2291 5.24475Z" fill="black"/>
</svg>
