<svg width="865" height="532" viewBox="0 0 865 532" fill="none" xmlns="http://www.w3.org/2000/svg">
<path d="M863.171 530.169H1.83008V99.2534V1.83057H863.171V530.169Z" stroke="#010792" stroke-miterlimit="10"/>
<path d="M432.518 1.83057V530.169" stroke="#010792" stroke-miterlimit="10"/>
<path d="M1.83008 119.353L863.171 123.014" stroke="#010792" stroke-miterlimit="10"/>
<path d="M1.83008 409.571L863.171 413.232" stroke="#010792" stroke-miterlimit="10"/>
<path d="M130.477 212.2L734.524 215.861" stroke="#010792" stroke-miterlimit="10"/>
<path d="M130.477 320.35L734.524 324.011" stroke="#010792" stroke-miterlimit="10"/>
<path d="M432.519 335.397C470.833 335.397 501.892 304.319 501.892 265.982C501.892 227.645 470.833 196.566 432.519 196.566C394.206 196.566 363.146 227.645 363.146 265.982C363.146 304.319 394.206 335.397 432.519 335.397Z" stroke="#010792" stroke-miterlimit="10"/>
<path d="M1.83008 200.118H48.5176V332.102H1.83008" stroke="#010792" stroke-miterlimit="10"/>
<path d="M128.244 319.618C146.978 311.087 160.113 290.914 160.113 267.373C160.113 243.869 146.978 223.659 128.244 215.129" stroke="#010792" stroke-miterlimit="10"/>
<path d="M1.83008 200.118L130.477 124.113L129.928 408.437L2.63504 333.091" stroke="#010792" stroke-miterlimit="10"/>
<path d="M862.553 334.135H815.865V202.151H862.553" stroke="#010792" stroke-miterlimit="10"/>
<path d="M736.139 214.635C717.405 223.166 704.27 243.338 704.27 266.88C704.27 290.384 717.405 310.594 736.139 319.124" stroke="#010792" stroke-miterlimit="10"/>
<path d="M862.553 334.134L733.906 410.14L734.455 125.816L861.748 201.162" stroke="#010792" stroke-miterlimit="10"/>
</svg>
