<svg width="528" height="754" viewBox="0 0 528 754" fill="none" xmlns="http://www.w3.org/2000/svg">
<g clip-path="url(#clip0_31167_3838)">
<path d="M3.66602 748.228L3.66598 5.89062C3.66598 4.51037 4.80115 3.37023 6.19528 3.37012L521.807 3.37009C523.201 3.37009 524.336 4.5103 524.336 5.8906L524.336 748.228C524.336 748.894 524.07 749.535 523.597 750.008C523.123 750.481 522.479 750.748 521.807 750.748L6.19531 750.748C4.80129 750.748 3.66621 749.608 3.66602 748.228ZM519.159 745.589L519.159 8.41111L8.72458 8.41113L8.72461 745.589L519.159 745.589Z" fill="#010792" stroke="#010792" stroke-width="6.50406"/>
<path d="M9.25195 250C9.25196 249.675 9.3943 249.269 9.81055 248.901C10.2399 248.522 10.8998 248.252 11.6592 248.252L516.341 248.252C518.053 248.252 518.748 249.408 518.748 250C518.748 250.325 518.606 250.731 518.189 251.099C517.76 251.478 517.1 251.748 516.341 251.748L11.6592 251.748C10.8998 251.748 10.2398 251.478 9.81055 251.099C9.39433 250.731 9.25195 250.325 9.25195 250Z" fill="#010792" stroke="#010792" stroke-width="6.50406"/>
<path d="M9.25195 504C9.25196 503.675 9.3943 503.269 9.81055 502.901C10.2399 502.522 10.8998 502.252 11.6592 502.252L516.341 502.252C518.053 502.252 518.748 503.408 518.748 504C518.748 504.325 518.606 504.731 518.189 505.099C517.76 505.478 517.1 505.748 516.341 505.748L11.6592 505.748C10.8998 505.748 10.2398 505.478 9.81055 505.099C9.39433 504.731 9.25195 504.325 9.25195 504Z" fill="#010792" stroke="#010792" stroke-width="6.50406"/>
</g>
<defs>
<clipPath id="clip0_31167_3838">
<rect width="754" height="528" fill="white" transform="translate(0 754) rotate(-90)"/>
</clipPath>
</defs>
</svg>
