<svg width="86" height="123" viewBox="0 0 86 123" fill="none" xmlns="http://www.w3.org/2000/svg">
<g clip-path="url(#clip0_30031_8540)">
<mask id="path-1-inside-1_30031_8540" fill="white">
<path d="M85.9319 0.960934L85.9319 122.058C85.9319 122.308 85.8327 122.548 85.6561 122.724C85.4795 122.901 85.24 123 84.9902 123L1.00808 123C0.489199 123 0.0664062 122.577 0.0664062 122.058L0.0664009 0.960938C0.0664009 0.442032 0.489194 0.0192184 1.00808 0.0192184L84.9902 0.0192147C85.5091 0.0192147 85.9319 0.442028 85.9319 0.960934ZM84.0293 121.097L84.0293 1.90265L1.94975 1.90266L1.94976 121.097L84.0293 121.097Z"/>
</mask>
<path d="M85.9319 0.960934L85.9319 122.058C85.9319 122.308 85.8327 122.548 85.6561 122.724C85.4795 122.901 85.24 123 84.9902 123L1.00808 123C0.489199 123 0.0664062 122.577 0.0664062 122.058L0.0664009 0.960938C0.0664009 0.442032 0.489194 0.0192184 1.00808 0.0192184L84.9902 0.0192147C85.5091 0.0192147 85.9319 0.442028 85.9319 0.960934ZM84.0293 121.097L84.0293 1.90265L1.94975 1.90266L1.94976 121.097L84.0293 121.097Z" fill="#010792"/>
<path d="M84.9902 123L84.9902 128L84.9902 123ZM84.0293 121.097L84.0293 126.097L89.0293 126.097L89.0293 121.097L84.0293 121.097ZM84.0293 1.90265L89.0293 1.90265L89.0293 -3.09735L84.0293 -3.09735L84.0293 1.90265ZM1.94975 1.90266L1.94975 -3.09734L-3.05025 -3.09734L-3.05025 1.90266L1.94975 1.90266ZM1.94976 121.097L-3.05024 121.097L-3.05024 126.097L1.94976 126.097L1.94976 121.097ZM80.9319 0.960934L80.9319 122.058L90.9319 122.058L90.9319 0.960934L80.9319 0.960934ZM80.9319 122.058C80.9319 120.982 81.3594 119.95 82.1205 119.189L89.1917 126.26C90.306 125.145 90.9319 123.634 90.9319 122.058L80.9319 122.058ZM82.1205 119.189C82.8816 118.428 83.9138 118 84.9902 118L84.9902 128C86.5661 128 88.0774 127.374 89.1917 126.26L82.1205 119.189ZM84.9902 118L1.00808 118L1.00808 128L84.9902 128L84.9902 118ZM1.00808 118C3.25084 118 5.06641 119.816 5.06641 122.058L-4.93359 122.058C-4.93359 125.338 -2.27244 128 1.00808 128L1.00808 118ZM5.06641 122.058L5.0664 0.960937L-4.9336 0.960938L-4.93359 122.058L5.06641 122.058ZM5.0664 0.960937C5.0664 3.20322 3.25086 5.01922 1.00808 5.01922L1.00808 -4.98078C-2.27247 -4.98078 -4.9336 -2.31915 -4.9336 0.960938L5.0664 0.960937ZM1.00808 5.01922L84.9902 5.01921L84.9902 -4.98079L1.00808 -4.98078L1.00808 5.01922ZM84.9902 5.01921C82.7475 5.01921 80.9319 3.20324 80.9319 0.960934L90.9319 0.960934C90.9319 -2.31918 88.2707 -4.98079 84.9902 -4.98079L84.9902 5.01921ZM89.0293 121.097L89.0293 1.90265L79.0293 1.90265L79.0293 121.097L89.0293 121.097ZM84.0293 -3.09735L1.94975 -3.09734L1.94975 6.90266L84.0293 6.90265L84.0293 -3.09735ZM-3.05025 1.90266L-3.05024 121.097L6.94976 121.097L6.94975 1.90266L-3.05025 1.90266ZM1.94976 126.097L84.0293 126.097L84.0293 116.097L1.94976 116.097L1.94976 126.097Z" fill="#010792" mask="url(#path-1-inside-1_30031_8540)"/>
<mask id="path-3-inside-2_30031_8540" fill="white">
<path d="M85.9319 85.9416C85.9319 86.1913 85.8327 86.4309 85.6561 86.6075C85.4795 86.7841 85.24 86.8833 84.9902 86.8833L1.00808 86.8833C0.758334 86.8833 0.518815 86.7841 0.342216 86.6075C0.165618 86.4309 0.0664062 86.1913 0.0664062 85.9416C0.0664062 85.6918 0.165618 85.4523 0.342216 85.2757C0.518815 85.0991 0.758334 84.9999 1.00808 84.9999L84.9902 84.9999C85.5091 84.9999 85.9319 85.4227 85.9319 85.9416Z"/>
</mask>
<path d="M85.9319 85.9416C85.9319 86.1913 85.8327 86.4309 85.6561 86.6075C85.4795 86.7841 85.24 86.8833 84.9902 86.8833L1.00808 86.8833C0.758334 86.8833 0.518815 86.7841 0.342216 86.6075C0.165618 86.4309 0.0664062 86.1913 0.0664062 85.9416C0.0664062 85.6918 0.165618 85.4523 0.342216 85.2757C0.518815 85.0991 0.758334 84.9999 1.00808 84.9999L84.9902 84.9999C85.5091 84.9999 85.9319 85.4227 85.9319 85.9416Z" fill="#010792"/>
<path d="M80.9319 85.9416C80.9319 84.8654 81.3594 83.8331 82.1205 83.072L89.1917 90.1429C90.306 89.0286 90.9319 87.5173 90.9319 85.9416L80.9319 85.9416ZM82.1205 83.072C82.8816 82.3109 83.9139 81.8833 84.9902 81.8833L84.9902 91.8833C86.5661 91.8833 88.0774 91.2573 89.1917 90.1429L82.1205 83.072ZM84.9902 81.8833L1.00808 81.8833L1.00808 91.8833L84.9902 91.8833L84.9902 81.8833ZM1.00808 81.8833C2.08446 81.8833 3.11674 82.3109 3.87783 83.072L-3.1934 90.1429C-2.07911 91.2573 -0.567792 91.8833 1.00808 91.8833L1.00808 81.8833ZM3.87783 83.072C4.6389 83.8331 5.06641 84.8653 5.06641 85.9416L-4.93359 85.9416C-4.93359 87.5173 -4.30766 89.0286 -3.1934 90.1429L3.87783 83.072ZM5.06641 85.9416C5.06641 87.0178 4.63888 88.0501 3.87783 88.8111L-3.1934 81.7402C-4.30765 82.8545 -4.93359 84.3658 -4.93359 85.9416L5.06641 85.9416ZM3.87783 88.8111C3.11681 89.5722 2.08456 89.9999 1.00808 89.9999L1.00808 79.9999C-0.567892 79.9999 -2.07918 80.626 -3.1934 81.7402L3.87783 88.8111ZM1.00808 89.9999L84.9902 89.9999L84.9902 79.9999L1.00808 79.9999L1.00808 89.9999ZM84.9902 89.9999C82.7475 89.9999 80.9319 88.1839 80.9319 85.9416L90.9319 85.9416C90.9319 82.6615 88.2707 79.9999 84.9902 79.9999L84.9902 89.9999Z" fill="#010792" mask="url(#path-3-inside-2_30031_8540)"/>
<mask id="path-5-inside-3_30031_8540" fill="white">
<path d="M85.9319 42.9416C85.9319 43.1913 85.8327 43.4309 85.6561 43.6075C85.4795 43.7841 85.24 43.8833 84.9902 43.8833L1.00808 43.8833C0.758334 43.8833 0.518815 43.7841 0.342216 43.6075C0.165618 43.4309 0.0664062 43.1913 0.0664062 42.9416C0.0664062 42.6918 0.165618 42.4523 0.342216 42.2757C0.518815 42.0991 0.758334 41.9999 1.00808 41.9999L84.9902 41.9999C85.5091 41.9999 85.9319 42.4227 85.9319 42.9416Z"/>
</mask>
<path d="M85.9319 42.9416C85.9319 43.1913 85.8327 43.4309 85.6561 43.6075C85.4795 43.7841 85.24 43.8833 84.9902 43.8833L1.00808 43.8833C0.758334 43.8833 0.518815 43.7841 0.342216 43.6075C0.165618 43.4309 0.0664062 43.1913 0.0664062 42.9416C0.0664062 42.6918 0.165618 42.4523 0.342216 42.2757C0.518815 42.0991 0.758334 41.9999 1.00808 41.9999L84.9902 41.9999C85.5091 41.9999 85.9319 42.4227 85.9319 42.9416Z" fill="#010792"/>
<path d="M80.9319 42.9416C80.9319 41.8654 81.3594 40.8331 82.1205 40.072L89.1917 47.1429C90.306 46.0286 90.9319 44.5173 90.9319 42.9416L80.9319 42.9416ZM82.1205 40.072C82.8816 39.3109 83.9139 38.8833 84.9902 38.8833L84.9902 48.8833C86.5661 48.8833 88.0774 48.2573 89.1917 47.1429L82.1205 40.072ZM84.9902 38.8833L1.00808 38.8833L1.00808 48.8833L84.9902 48.8833L84.9902 38.8833ZM1.00808 38.8833C2.08446 38.8833 3.11674 39.3109 3.87783 40.072L-3.1934 47.1429C-2.07911 48.2573 -0.567792 48.8833 1.00808 48.8833L1.00808 38.8833ZM3.87783 40.072C4.6389 40.8331 5.06641 41.8653 5.06641 42.9416L-4.93359 42.9416C-4.93359 44.5173 -4.30766 46.0286 -3.1934 47.1429L3.87783 40.072ZM5.06641 42.9416C5.06641 44.0178 4.63888 45.0501 3.87783 45.8111L-3.1934 38.7402C-4.30765 39.8545 -4.93359 41.3658 -4.93359 42.9416L5.06641 42.9416ZM3.87783 45.8111C3.11681 46.5722 2.08456 46.9999 1.00808 46.9999L1.00808 36.9999C-0.567892 36.9999 -2.07918 37.626 -3.1934 38.7402L3.87783 45.8111ZM1.00808 46.9999L84.9902 46.9999L84.9902 36.9999L1.00808 36.9999L1.00808 46.9999ZM84.9902 46.9999C82.7475 46.9999 80.9319 45.1839 80.9319 42.9416L90.9319 42.9416C90.9319 39.6615 88.2707 36.9999 84.9902 36.9999L84.9902 46.9999Z" fill="#010792" mask="url(#path-5-inside-3_30031_8540)"/>
</g>
<defs>
<clipPath id="clip0_30031_8540">
<rect width="123" height="86" fill="white" transform="translate(0 123) rotate(-90)"/>
</clipPath>
</defs>
</svg>
