<svg width="1114" height="685" viewBox="0 0 1114 685" fill="none" xmlns="http://www.w3.org/2000/svg">
<path d="M1111.64 682.643H2.35547V127.798V2.35693H1111.64V682.643Z" stroke="#010792" stroke-miterlimit="10"/>
<path d="M557.023 2.35693V682.643" stroke="#010792" stroke-miterlimit="10"/>
<path d="M2.35547 153.678L1111.64 158.392" stroke="#010792" stroke-miterlimit="10"/>
<path d="M2.35547 527.362L1111.64 532.076" stroke="#010792" stroke-miterlimit="10"/>
<path d="M168.035 273.227L945.964 277.941" stroke="#010792" stroke-miterlimit="10"/>
<path d="M168.035 412.48L945.964 417.195" stroke="#010792" stroke-miterlimit="10"/>
<path d="M557.024 431.855C606.367 431.855 646.366 391.839 646.366 342.476C646.366 293.114 606.367 253.098 557.024 253.098C507.682 253.098 467.682 293.114 467.682 342.476C467.682 391.839 507.682 431.855 557.024 431.855Z" stroke="#010792" stroke-miterlimit="10"/>
<path d="M1111.64 433.269H1051.52V263.327H1111.64" stroke="#010792" stroke-miterlimit="10"/>
<path d="M948.887 279.355C924.76 290.339 907.844 316.313 907.844 346.625C907.844 376.889 924.76 402.911 948.887 413.894" stroke="#010792" stroke-miterlimit="10"/>
<path d="M1111.64 433.269L945.965 531.133V159.807L1111.64 309.997" stroke="#010792" stroke-miterlimit="10"/>
<path d="M2.35547 257.67H62.4825V427.612H2.35547" stroke="#010792" stroke-miterlimit="10"/>
<path d="M165.16 411.537C189.286 400.554 206.203 374.579 206.203 344.268C206.203 314.003 189.286 287.982 165.16 276.998" stroke="#010792" stroke-miterlimit="10"/>
<path d="M2.35547 257.671L168.035 159.807L167.328 525.9L3.39214 428.885" stroke="#010792" stroke-miterlimit="10"/>
</svg>
