<svg width="528" height="754" viewBox="0 0 528 754" fill="none" xmlns="http://www.w3.org/2000/svg">
<g clip-path="url(#clip0_31167_3845)">
<path d="M3.66602 748.228L3.66598 5.89062C3.66598 4.51037 4.80115 3.37023 6.19528 3.37012L521.807 3.37009C523.201 3.37009 524.336 4.5103 524.336 5.8906L524.336 748.228C524.336 748.894 524.07 749.535 523.597 750.008C523.123 750.481 522.479 750.748 521.807 750.748L6.19531 750.748C4.80129 750.748 3.66621 749.608 3.66602 748.228ZM519.159 745.589L519.159 8.41111L8.72458 8.41113L8.72461 745.589L519.159 745.589Z" fill="#010792" stroke="#010792" stroke-width="6.50406"/>
<path d="M7.25195 377C7.25196 376.694 7.38774 376.292 7.81738 375.918C8.2616 375.531 8.95062 375.252 9.74707 375.252L522.253 375.252C523.073 375.252 523.747 375.543 524.18 375.92C524.607 376.292 524.748 376.684 524.748 377C524.748 377.306 524.612 377.708 524.183 378.082C523.738 378.468 523.049 378.748 522.253 378.748L9.74707 378.748C8.95056 378.748 8.26156 378.468 7.81738 378.082C7.38776 377.708 7.25195 377.306 7.25195 377Z" fill="#010792" stroke="#010792" stroke-width="6.50406"/>
</g>
<defs>
<clipPath id="clip0_31167_3845">
<rect width="754" height="528" fill="white" transform="translate(0 754) rotate(-90)"/>
</clipPath>
</defs>
</svg>
