<svg width="634" height="512" viewBox="0 0 634 512" fill="none" xmlns="http://www.w3.org/2000/svg">
<path d="M23.5 95.8853H155.491V418.986H23.5" stroke="#010792" stroke-miterlimit="10"/>
<path d="M631.64 509.646H23.5V95.8852V2.35352H631.64V509.646Z" stroke="#010792" stroke-miterlimit="10"/>
<path d="M23.5 185.463H70.0295V327.196H23.5" stroke="#010792" stroke-miterlimit="10"/>
<path d="M472.232 3.81299V508.187" stroke="#010792" stroke-miterlimit="10"/>
<path d="M472.232 339.387C518.389 339.387 555.806 302.064 555.806 256.023C555.806 209.983 518.389 172.659 472.232 172.659C426.075 172.659 388.658 209.983 388.658 256.023C388.658 302.064 426.075 339.387 472.232 339.387Z" stroke="#010792" stroke-miterlimit="10"/>
<path d="M465.79 263.073L478.814 263L478.742 250.008L465.717 250.081L465.79 263.073Z" stroke="#010792" stroke-width="0.6" stroke-miterlimit="10"/>
<path d="M119.392 250.987H108.963V261.39H119.392V250.987Z" stroke="#010792" stroke-width="0.6" stroke-miterlimit="10"/>
<path d="M155.492 307.802C174.604 299.094 188.006 278.477 188.006 254.423C188.006 230.369 174.604 209.752 155.492 201.043" stroke="#010792" stroke-miterlimit="10"/>
<path d="M23.4998 286.573H1.60352V234.512V224.25H23.4998V286.573Z" stroke="#010792" stroke-width="0.6" stroke-miterlimit="10"/>
<path d="M1.60352 234.512L15.6662 224.25" stroke="#010792" stroke-width="0.6" stroke-miterlimit="10"/>
<path d="M1.60352 246.657L22.1312 232.347" stroke="#010792" stroke-width="0.6" stroke-miterlimit="10"/>
<path d="M1.60352 259.601L23.4998 243.691" stroke="#010792" stroke-width="0.6" stroke-miterlimit="10"/>
<path d="M1.79297 269.863L23.6892 254.706" stroke="#010792" stroke-width="0.6" stroke-miterlimit="10"/>
<path d="M1.60352 280.642L23.4998 265.673" stroke="#010792" stroke-width="0.6" stroke-miterlimit="10"/>
<path d="M8.63672 286.95L22.8882 276.358" stroke="#010792" stroke-width="0.6" stroke-miterlimit="10"/>
<path d="M22.9357 234.323L8.87305 224.062" stroke="#010792" stroke-width="0.6" stroke-miterlimit="10"/>
<path d="M22.9343 246.468L2.35938 232.158" stroke="#010792" stroke-width="0.6" stroke-miterlimit="10"/>
<path d="M22.9356 259.412L0.992188 243.502" stroke="#010792" stroke-width="0.6" stroke-miterlimit="10"/>
<path d="M22.699 269.674L0.802734 254.564" stroke="#010792" stroke-width="0.6" stroke-miterlimit="10"/>
<path d="M22.9356 280.453L0.992188 265.484" stroke="#010792" stroke-width="0.6" stroke-miterlimit="10"/>
<path d="M15.9038 286.761L1.65234 276.17" stroke="#010792" stroke-width="0.6" stroke-miterlimit="10"/>
</svg>
