<svg width="86" height="123" viewBox="0 0 86 123" fill="none" xmlns="http://www.w3.org/2000/svg">
<g clip-path="url(#clip0_30087_6955)">
<mask id="path-1-inside-1_30087_6955" fill="white">
<path d="M0.658546 121H85.3415C85.5161 121 85.6836 120.86 85.8071 120.611C85.9306 120.362 86 120.025 86 119.673V1.32699C86 0.595792 85.7043 0 85.3415 0H0.658546C0.295677 0 0 0.595792 0 1.32699V119.673C0 120.404 0.295677 121 0.658546 121ZM84.6695 118.319H1.31709V2.65399H84.6695V118.319Z"/>
</mask>
<path d="M0.658546 121H85.3415C85.5161 121 85.6836 120.86 85.8071 120.611C85.9306 120.362 86 120.025 86 119.673V1.32699C86 0.595792 85.7043 0 85.3415 0H0.658546C0.295677 0 0 0.595792 0 1.32699V119.673C0 120.404 0.295677 121 0.658546 121ZM84.6695 118.319H1.31709V2.65399H84.6695V118.319Z" fill="#010792"/>
<path d="M86 119.673H91H86ZM84.6695 118.319H89.6695V123.319H84.6695V118.319ZM1.31709 118.319V123.319H-3.68291V118.319H1.31709ZM1.31709 2.65399H-3.68291V-2.34601H1.31709V2.65399ZM84.6695 2.65399V-2.34601H89.6695V2.65399H84.6695ZM0.658546 116H85.3415V126H0.658546V116ZM85.3415 116C84.0207 116 83.0089 116.543 82.3896 117.06C81.7988 117.553 81.4839 118.075 81.3283 118.389L90.2859 122.834C89.8616 123.689 88.3889 126 85.3415 126V116ZM81.3283 118.389C81.1642 118.719 81.089 118.995 81.0523 119.174C81.0136 119.362 81 119.528 81 119.673H91C91 120.596 90.8313 121.735 90.2859 122.834L81.3283 118.389ZM81 119.673V1.32699H91V119.673H81ZM81 1.32699C81 1.56784 81.0381 2.02774 81.328 2.61197C81.4733 2.90475 81.7754 3.41541 82.3495 3.90598C82.955 4.42325 83.9796 5 85.3415 5V-5C88.4638 -5 89.9147 -2.58074 90.2856 -1.83338C90.8141 -0.768454 91 0.354946 91 1.32699H81ZM85.3415 5H0.658546V-5H85.3415V5ZM0.658546 5C2.02043 5 3.04503 4.42325 3.65046 3.90599C4.22465 3.41541 4.5267 2.90476 4.672 2.61198C4.96194 2.02775 5 1.56784 5 1.32699H-5C-5 0.35494 -4.81409 -0.768462 -4.28561 -1.83339C-3.91472 -2.58075 -2.46381 -5 0.658546 -5V5ZM5 1.32699V119.673H-5V1.32699H5ZM5 119.673C5 119.432 4.96194 118.972 4.672 118.388C4.52671 118.095 4.22466 117.585 3.65047 117.094C3.04504 116.577 2.02044 116 0.658546 116V126C-2.46384 126 -3.91473 123.581 -4.28561 122.833C-4.81409 121.768 -5 120.645 -5 119.673H5ZM84.6695 123.319H1.31709V113.319H84.6695V123.319ZM-3.68291 118.319V2.65399H6.31709V118.319H-3.68291ZM1.31709 -2.34601H84.6695V7.65399H1.31709V-2.34601ZM89.6695 2.65399V118.319H79.6695V2.65399H89.6695Z" fill="#010792" mask="url(#path-1-inside-1_30087_6955)"/>
<mask id="path-3-inside-2_30087_6955" fill="white">
<path d="M87.0375 121.415C87.3907 121.415 87.7294 121.275 87.9791 121.025C88.2289 120.775 88.3691 120.437 88.3691 120.084V1.33154C88.3691 0.978397 88.2289 0.639713 87.9791 0.39C87.7294 0.140287 87.3907 0 87.0375 0C86.6844 0 86.3457 0.140287 86.096 0.39C85.8462 0.639713 85.7059 0.978397 85.7059 1.33154V120.084C85.7059 120.817 86.3038 121.415 87.0375 121.415Z"/>
</mask>
<path d="M87.0375 121.415C87.3907 121.415 87.7294 121.275 87.9791 121.025C88.2289 120.775 88.3691 120.437 88.3691 120.084V1.33154C88.3691 0.978397 88.2289 0.639713 87.9791 0.39C87.7294 0.140287 87.3907 0 87.0375 0C86.6844 0 86.3457 0.140287 86.096 0.39C85.8462 0.639713 85.7059 0.978397 85.7059 1.33154V120.084C85.7059 120.817 86.3038 121.415 87.0375 121.415Z" fill="#010792"/>
<path d="M87.0375 116.415C86.0647 116.415 85.1317 116.802 84.4437 117.49L91.5146 124.561C90.3271 125.748 88.7167 126.415 87.0375 126.415V116.415ZM84.4437 117.49C83.7556 118.178 83.3691 119.111 83.3691 120.084H93.3691C93.3691 121.763 92.7021 123.373 91.5146 124.561L84.4437 117.49ZM83.3691 120.084V1.33154H93.3691V120.084H83.3691ZM83.3691 1.33154C83.3691 2.30452 83.7557 3.23764 84.4437 3.92561L91.5146 -3.14561C92.702 -1.95822 93.3691 -0.34773 93.3691 1.33154H83.3691ZM84.4437 3.92561C85.1317 4.61357 86.0647 5 87.0375 5V-5C88.7167 -5 90.3271 -4.33299 91.5146 -3.14561L84.4437 3.92561ZM87.0375 5C88.0104 5 88.9434 4.61355 89.6314 3.92561L82.5605 -3.14561C83.7479 -4.33298 85.3584 -5 87.0375 -5V5ZM89.6314 3.92561C90.3193 3.23771 90.7059 2.30462 90.7059 1.33154H80.7059C80.7059 -0.347829 81.3731 -1.95829 82.5605 -3.14561L89.6314 3.92561ZM90.7059 1.33154V120.084H80.7059V1.33154H90.7059ZM90.7059 120.084C90.7059 118.056 89.065 116.415 87.0375 116.415V126.415C83.5426 126.415 80.7059 123.579 80.7059 120.084H90.7059Z" fill="#010792" mask="url(#path-3-inside-2_30087_6955)"/>
<mask id="path-5-inside-3_30087_6955" fill="white">
<path d="M145.004 82.8817C145.357 82.8817 145.696 82.7414 145.946 82.4917C146.196 82.242 146.336 81.9033 146.336 81.5501C146.336 81.197 146.196 80.8583 145.946 80.6086C145.696 80.3589 145.357 80.2186 145.004 80.2186C138.183 80.2186 132.639 71.4684 132.639 60.7074C132.639 49.9463 138.183 41.1962 145.004 41.1962C145.357 41.1962 145.696 41.0559 145.946 40.8062C146.196 40.5565 146.336 40.2178 146.336 39.8646C146.336 39.5115 146.196 39.1728 145.946 38.9231C145.696 38.6734 145.357 38.5331 145.004 38.5331C136.716 38.5331 129.949 48.4789 129.949 60.7074C129.949 72.9359 136.716 82.8817 145.004 82.8817ZM1.43558 96.2787H29.0732C29.4263 96.2787 29.765 96.1384 30.0148 95.8887C30.2645 95.6389 30.4048 95.3003 30.4048 94.9471V28.0166C30.4048 27.2829 29.8069 26.6851 29.0732 26.6851H1.43558C1.08241 26.6851 0.743713 26.8253 0.493988 27.0751C0.244263 27.3248 0.103958 27.6635 0.103958 28.0166C0.103958 28.3698 0.244263 28.7084 0.493988 28.9581C0.743713 29.2079 1.08241 29.3481 1.43558 29.3481H27.7416V93.5884H1.43558C0.701828 93.5884 0.103958 94.1862 0.103958 94.9199C0.103958 95.6808 0.701828 96.2787 1.43558 96.2787Z"/>
</mask>
<path d="M145.004 82.8817C145.357 82.8817 145.696 82.7414 145.946 82.4917C146.196 82.242 146.336 81.9033 146.336 81.5501C146.336 81.197 146.196 80.8583 145.946 80.6086C145.696 80.3589 145.357 80.2186 145.004 80.2186C138.183 80.2186 132.639 71.4684 132.639 60.7074C132.639 49.9463 138.183 41.1962 145.004 41.1962C145.357 41.1962 145.696 41.0559 145.946 40.8062C146.196 40.5565 146.336 40.2178 146.336 39.8646C146.336 39.5115 146.196 39.1728 145.946 38.9231C145.696 38.6734 145.357 38.5331 145.004 38.5331C136.716 38.5331 129.949 48.4789 129.949 60.7074C129.949 72.9359 136.716 82.8817 145.004 82.8817ZM1.43558 96.2787H29.0732C29.4263 96.2787 29.765 96.1384 30.0148 95.8887C30.2645 95.6389 30.4048 95.3003 30.4048 94.9471V28.0166C30.4048 27.2829 29.8069 26.6851 29.0732 26.6851H1.43558C1.08241 26.6851 0.743713 26.8253 0.493988 27.0751C0.244263 27.3248 0.103958 27.6635 0.103958 28.0166C0.103958 28.3698 0.244263 28.7084 0.493988 28.9581C0.743713 29.2079 1.08241 29.3481 1.43558 29.3481H27.7416V93.5884H1.43558C0.701828 93.5884 0.103958 94.1862 0.103958 94.9199C0.103958 95.6808 0.701828 96.2787 1.43558 96.2787Z" fill="#010792"/>
<path d="M146.336 81.5501H151.336H146.336ZM145.004 80.2186V75.2186V80.2186ZM145.004 38.5331V43.5331V38.5331ZM1.43558 26.6851V21.6851V26.6851ZM27.7416 29.3481V24.3481H32.7416V29.3481H27.7416ZM27.7416 93.5884H32.7416V98.5884H27.7416V93.5884ZM145.004 77.8817C144.032 77.8817 143.098 78.2681 142.41 78.9561L149.481 86.0273C148.294 87.2147 146.683 87.8817 145.004 87.8817V77.8817ZM142.41 78.9561C141.722 79.644 141.336 80.5772 141.336 81.5501H151.336C151.336 83.2294 150.669 84.8399 149.481 86.0273L142.41 78.9561ZM141.336 81.5501C141.336 82.5231 141.722 83.4563 142.41 84.1442L149.481 77.073C150.669 78.2603 151.336 79.8708 151.336 81.5501H141.336ZM142.41 84.1442C143.098 84.8322 144.032 85.2186 145.004 85.2186V75.2186C146.683 75.2186 148.294 75.8856 149.481 77.073L142.41 84.1442ZM145.004 85.2186C139.277 85.2186 134.818 81.5576 132.041 77.1747C129.222 72.7272 127.639 66.8905 127.639 60.7074H137.639C137.639 65.2853 138.829 69.2042 140.487 71.8221C142.187 74.5045 143.91 75.2186 145.004 75.2186V85.2186ZM127.639 60.7074C127.639 54.5243 129.222 48.6875 132.041 44.2401C134.818 39.8572 139.277 36.1962 145.004 36.1962V46.1962C143.91 46.1962 142.187 46.9103 140.487 49.5927C138.829 52.2106 137.639 56.1294 137.639 60.7074H127.639ZM145.004 36.1962C144.032 36.1962 143.098 36.5826 142.41 37.2706L149.481 44.3418C148.294 45.5292 146.683 46.1962 145.004 46.1962V36.1962ZM142.41 37.2706C141.722 37.9585 141.336 38.8916 141.336 39.8646H151.336C151.336 41.5439 150.669 43.1544 149.481 44.3418L142.41 37.2706ZM141.336 39.8646C141.336 40.8376 141.722 41.7708 142.41 42.4587L149.481 35.3875C150.669 36.5749 151.336 38.1853 151.336 39.8646H141.336ZM142.41 42.4587C143.098 43.1466 144.031 43.5331 145.004 43.5331V33.5331C146.684 33.5331 148.294 34.2001 149.481 35.3875L142.41 42.4587ZM145.004 43.5331C143.016 43.5331 140.622 44.7271 138.504 47.8444C136.408 50.9301 134.949 55.4665 134.949 60.7074H124.949C124.949 53.7198 126.874 47.169 130.233 42.2247C133.57 37.312 138.705 33.5331 145.004 33.5331V43.5331ZM134.949 60.7074C134.949 65.9483 136.408 70.4847 138.504 73.5704C140.622 76.6877 143.016 77.8817 145.004 77.8817V87.8817C138.705 87.8817 133.57 84.1028 130.233 79.19C126.874 74.2457 124.949 67.6949 124.949 60.7074H134.949ZM1.43558 91.2787H29.0732V101.279H1.43558V91.2787ZM29.0732 91.2787C28.1004 91.2787 27.1673 91.6651 26.4793 92.353L33.5502 99.4243C32.3627 100.612 30.7523 101.279 29.0732 101.279V91.2787ZM26.4793 92.353C25.7913 93.041 25.4048 93.9742 25.4048 94.9471H35.4048C35.4048 96.6264 34.7377 98.2368 33.5502 99.4243L26.4793 92.353ZM25.4048 94.9471V28.0166H35.4048V94.9471H25.4048ZM25.4048 28.0166C25.4048 30.0446 27.0457 31.6851 29.0732 31.6851V21.6851C32.5681 21.6851 35.4048 24.5212 35.4048 28.0166H25.4048ZM29.0732 31.6851H1.43558V21.6851H29.0732V31.6851ZM1.43558 31.6851C2.40845 31.6851 3.34149 31.2986 4.02945 30.6107L-3.04146 23.5394C-1.85406 22.3521 -0.243637 21.6851 1.43558 21.6851V31.6851ZM4.02945 30.6107C4.71736 29.9228 5.10396 28.9897 5.10396 28.0166H-4.89604C-4.89604 26.3372 -4.22884 24.7268 -3.04146 23.5394L4.02945 30.6107ZM5.10396 28.0166C5.10396 27.0435 4.71738 26.1104 4.02945 25.4225L-3.04146 32.4938C-4.22885 31.3064 -4.89604 29.696 -4.89604 28.0166H5.10396ZM4.02945 25.4225C3.34146 24.7346 2.4084 24.3481 1.43558 24.3481V34.3481C-0.243576 34.3481 -1.85403 33.6811 -3.04146 32.4938L4.02945 25.4225ZM1.43558 24.3481H27.7416V34.3481H1.43558V24.3481ZM32.7416 29.3481V93.5884H22.7416V29.3481H32.7416ZM27.7416 98.5884H1.43558V88.5884H27.7416V98.5884ZM1.43558 98.5884C3.46304 98.5884 5.10396 96.9479 5.10396 94.9199H-4.89604C-4.89604 91.4246 -2.05937 88.5884 1.43558 88.5884V98.5884ZM5.10396 94.9199C5.10396 92.9853 3.52872 91.2787 1.43558 91.2787V101.279C-2.12506 101.279 -4.89604 98.3763 -4.89604 94.9199H5.10396Z" fill="#010792" mask="url(#path-5-inside-3_30087_6955)"/>
<mask id="path-7-inside-4_30087_6955" fill="white">
<path d="M29.0091 82.58C37.3012 82.58 44.0709 72.6704 44.0709 60.4865C44.0709 48.3025 37.3284 38.3929 29.0091 38.3929C28.6557 38.3929 28.3169 38.5327 28.0671 38.7815C27.8172 39.0303 27.6769 39.3678 27.6769 39.7196C27.6769 40.0715 27.8172 40.4089 28.0671 40.6577C28.3169 40.9065 28.6557 41.0463 29.0091 41.0463C35.8331 41.0463 41.3794 49.7646 41.3794 60.4865C41.3794 71.2083 35.8331 79.9266 29.0091 79.9266C28.6557 79.9266 28.3169 80.0664 28.0671 80.3152C27.8172 80.564 27.6769 80.9014 27.6769 81.2533C27.6769 81.6052 27.8172 81.9426 28.0671 82.1914C28.3169 82.4402 28.6557 82.58 29.0091 82.58ZM172.668 11.8861C173.402 11.8861 174 11.2904 174 10.5323C174 9.8013 173.402 9.20564 172.668 9.20564C168.291 9.20564 164.729 5.65876 164.729 1.32669C164.729 0.595658 164.131 0 163.397 0C162.663 0 162.037 0.595658 162.037 1.32669C162.037 7.14791 166.795 11.8861 172.668 11.8861ZM163.37 121C163.723 121 164.062 120.86 164.312 120.611C164.562 120.363 164.702 120.025 164.702 119.673C164.702 115.314 168.263 111.767 172.641 111.767C173.402 111.74 174 111.145 174 110.414C174 109.682 173.402 109.087 172.668 109.087C166.822 109.087 162.037 113.825 162.037 119.673C162.037 120.404 162.636 121 163.37 121ZM1.3322 11.8861C7.17751 11.8861 11.9625 7.14791 11.9625 1.32669C11.9625 0.974833 11.8221 0.637383 11.5723 0.388579C11.3225 0.139776 10.9836 0 10.6303 0C10.277 0 9.93816 0.139776 9.68831 0.388579C9.43848 0.637383 9.29813 0.974833 9.29813 1.32669C9.29813 5.65876 5.73656 9.20564 1.35938 9.20564C0.625305 9.20564 0.0271759 9.8013 0.0271759 10.5323C0 11.2904 0.598129 11.8861 1.3322 11.8861ZM10.6303 121C10.9836 121 11.3225 120.86 11.5723 120.611C11.8221 120.363 11.9625 120.025 11.9625 119.673C11.9625 113.852 7.20468 109.087 1.35938 109.087C0.625305 109.087 0 109.682 0 110.414C0 111.145 0.570938 111.74 1.3322 111.74C5.73657 111.74 9.27094 115.287 9.27094 119.646C9.29813 120.404 9.89626 121 10.6303 121Z"/>
</mask>
<path d="M29.0091 82.58C37.3012 82.58 44.0709 72.6704 44.0709 60.4865C44.0709 48.3025 37.3284 38.3929 29.0091 38.3929C28.6557 38.3929 28.3169 38.5327 28.0671 38.7815C27.8172 39.0303 27.6769 39.3678 27.6769 39.7196C27.6769 40.0715 27.8172 40.4089 28.0671 40.6577C28.3169 40.9065 28.6557 41.0463 29.0091 41.0463C35.8331 41.0463 41.3794 49.7646 41.3794 60.4865C41.3794 71.2083 35.8331 79.9266 29.0091 79.9266C28.6557 79.9266 28.3169 80.0664 28.0671 80.3152C27.8172 80.564 27.6769 80.9014 27.6769 81.2533C27.6769 81.6052 27.8172 81.9426 28.0671 82.1914C28.3169 82.4402 28.6557 82.58 29.0091 82.58ZM172.668 11.8861C173.402 11.8861 174 11.2904 174 10.5323C174 9.8013 173.402 9.20564 172.668 9.20564C168.291 9.20564 164.729 5.65876 164.729 1.32669C164.729 0.595658 164.131 0 163.397 0C162.663 0 162.037 0.595658 162.037 1.32669C162.037 7.14791 166.795 11.8861 172.668 11.8861ZM163.37 121C163.723 121 164.062 120.86 164.312 120.611C164.562 120.363 164.702 120.025 164.702 119.673C164.702 115.314 168.263 111.767 172.641 111.767C173.402 111.74 174 111.145 174 110.414C174 109.682 173.402 109.087 172.668 109.087C166.822 109.087 162.037 113.825 162.037 119.673C162.037 120.404 162.636 121 163.37 121ZM1.3322 11.8861C7.17751 11.8861 11.9625 7.14791 11.9625 1.32669C11.9625 0.974833 11.8221 0.637383 11.5723 0.388579C11.3225 0.139776 10.9836 0 10.6303 0C10.277 0 9.93816 0.139776 9.68831 0.388579C9.43848 0.637383 9.29813 0.974833 9.29813 1.32669C9.29813 5.65876 5.73656 9.20564 1.35938 9.20564C0.625305 9.20564 0.0271759 9.8013 0.0271759 10.5323C0 11.2904 0.598129 11.8861 1.3322 11.8861ZM10.6303 121C10.9836 121 11.3225 120.86 11.5723 120.611C11.8221 120.363 11.9625 120.025 11.9625 119.673C11.9625 113.852 7.20468 109.087 1.35938 109.087C0.625305 109.087 0 109.682 0 110.414C0 111.145 0.570938 111.74 1.3322 111.74C5.73657 111.74 9.27094 115.287 9.27094 119.646C9.29813 120.404 9.89626 121 10.6303 121Z" fill="#010792"/>
<path d="M29.0091 38.3929V33.3929V38.3929ZM29.0091 79.9266V84.9266V79.9266ZM172.641 111.767L172.818 116.764L172.73 116.767H172.641V111.767ZM11.9625 1.32669H6.96251H11.9625ZM0.0271759 10.5323H5.02718V10.622L5.02397 10.7115L0.0271759 10.5323ZM9.27094 119.646L4.27415 119.825L4.27094 119.736V119.646H9.27094ZM29.0091 77.58C31.0092 77.58 33.4043 76.3847 35.5191 73.2845C37.6136 70.2142 39.0709 65.7009 39.0709 60.4865H49.0709C49.0709 67.456 47.1434 73.9894 43.78 78.9199C40.437 83.8205 35.3011 87.58 29.0091 87.58V77.58ZM39.0709 60.4865C39.0709 55.2677 37.6182 50.7543 35.5277 47.686C33.4191 44.5912 31.0256 43.3929 29.0091 43.3929V33.3929C35.3119 33.3929 40.4493 37.1494 43.7919 42.0554C47.1524 46.9879 49.0709 53.5213 49.0709 60.4865H39.0709ZM29.0091 43.3929C29.9752 43.3929 30.9059 43.0109 31.5953 42.3243L24.5388 35.2387C25.7279 34.0545 27.3363 33.3929 29.0091 33.3929V43.3929ZM31.5953 42.3243C32.2854 41.6371 32.6769 40.7005 32.6769 39.7196H22.6769C22.6769 38.035 23.349 36.4236 24.5388 35.2387L31.5953 42.3243ZM32.6769 39.7196C32.6769 38.7388 32.2854 37.8022 31.5953 37.1149L24.5388 44.2006C23.349 43.0157 22.6769 41.4042 22.6769 39.7196H32.6769ZM31.5953 37.1149C30.9059 36.4283 29.9752 36.0463 29.0091 36.0463V46.0463C27.3363 46.0463 25.7279 45.3848 24.5388 44.2006L31.5953 37.1149ZM29.0091 36.0463C34.7278 36.0463 39.1889 39.688 41.9717 44.0616C44.794 48.4972 46.3794 54.3191 46.3794 60.4865H36.3794C36.3794 55.932 35.1916 52.0337 33.5348 49.4298C31.8385 46.7638 30.1144 46.0463 29.0091 46.0463V36.0463ZM46.3794 60.4865C46.3794 66.6538 44.794 72.4757 41.9717 76.9114C39.1889 81.285 34.7278 84.9266 29.0091 84.9266V74.9266C30.1144 74.9266 31.8385 74.2091 33.5348 71.5431C35.1916 68.9392 36.3794 65.0409 36.3794 60.4865H46.3794ZM29.0091 84.9266C29.9752 84.9266 30.9059 84.5446 31.5953 83.858L24.5388 76.7724C25.7279 75.5882 27.3363 74.9266 29.0091 74.9266V84.9266ZM31.5953 83.858C32.2854 83.1707 32.6769 82.2342 32.6769 81.2533H22.6769C22.6769 79.5687 23.349 77.9573 24.5388 76.7724L31.5953 83.858ZM32.6769 81.2533C32.6769 80.2725 32.2854 79.3359 31.5953 78.6486L24.5388 85.7343C23.349 84.5493 22.6769 82.9379 22.6769 81.2533H32.6769ZM31.5953 78.6486C30.9059 77.962 29.9752 77.58 29.0091 77.58V87.58C27.3363 87.58 25.7279 86.9184 24.5388 85.7343L31.5953 78.6486ZM172.668 6.88611C170.594 6.88611 169 8.57559 169 10.5323H179C179 14.0053 176.21 16.8861 172.668 16.8861V6.88611ZM169 10.5323C169 12.5822 170.66 14.2056 172.668 14.2056V4.20564C176.144 4.20564 179 7.02042 179 10.5323H169ZM172.668 14.2056C165.56 14.2056 159.729 8.45077 159.729 1.32669H169.729C169.729 2.86676 171.021 4.20564 172.668 4.20564V14.2056ZM159.729 1.32669C159.729 3.37654 161.389 5 163.397 5V-5C166.873 -5 169.729 -2.18522 169.729 1.32669H159.729ZM163.397 5C165.273 5 167.037 3.50628 167.037 1.32669H157.038C157.038 -2.31497 160.053 -5 163.397 -5V5ZM167.037 1.32669C167.037 4.35871 169.529 6.88611 172.668 6.88611V16.8861C164.062 16.8861 157.038 9.9371 157.038 1.32669H167.037ZM163.37 116C162.404 116 161.473 116.382 160.783 117.069L167.84 124.154C166.651 125.338 165.042 126 163.37 126V116ZM160.783 117.069C160.093 117.756 159.702 118.692 159.702 119.673H169.702C169.702 121.358 169.03 122.969 167.84 124.154L160.783 117.069ZM159.702 119.673C159.702 112.533 165.522 106.767 172.641 106.767V116.767C171.005 116.767 169.702 118.095 169.702 119.673H159.702ZM172.463 106.77C170.719 106.832 169 108.27 169 110.414H179C179 114.019 176.085 116.648 172.818 116.764L172.463 106.77ZM169 110.414C169 112.463 170.66 114.087 172.668 114.087V104.087C176.144 104.087 179 106.902 179 110.414H169ZM172.668 114.087C169.556 114.087 167.037 116.614 167.037 119.673H157.038C157.038 111.036 164.089 104.087 172.668 104.087V114.087ZM167.037 119.673C167.037 117.623 165.378 116 163.37 116V126C159.894 126 157.038 123.185 157.038 119.673H167.037ZM1.3322 6.88611C4.45229 6.88611 6.96251 4.35042 6.96251 1.32669H16.9625C16.9625 9.94539 9.90273 16.8861 1.3322 16.8861V6.88611ZM6.96251 1.32669C6.96251 2.30767 7.35402 3.24419 8.04408 3.93141L15.1005 -3.15425C16.2903 -1.96942 16.9625 -0.358002 16.9625 1.32669H6.96251ZM8.04408 3.93141C8.73351 4.61798 9.6642 5 10.6303 5V-5C12.3031 -5 13.9115 -4.33843 15.1005 -3.15425L8.04408 3.93141ZM10.6303 5C11.5964 5 12.5271 4.61798 13.2165 3.93141L6.1601 -3.15425C7.34918 -4.33843 8.95755 -5 10.6303 -5V5ZM13.2165 3.93141C13.9066 3.24419 14.2981 2.30767 14.2981 1.32669H4.29813C4.29813 -0.358002 4.97035 -1.96942 6.1601 -3.15425L13.2165 3.93141ZM14.2981 1.32669C14.2981 8.45076 8.46732 14.2056 1.35938 14.2056V4.20564C3.00581 4.20564 4.29813 2.86676 4.29813 1.32669H14.2981ZM1.35938 14.2056C3.36722 14.2056 5.02718 12.5822 5.02718 10.5323H-4.97282C-4.97282 7.02039 -2.11659 4.20564 1.35938 4.20564V14.2056ZM5.02397 10.7115C5.1003 8.58324 3.37291 6.88611 1.3322 6.88611V16.8861C-2.17665 16.8861 -5.10031 13.9977 -4.9696 10.3531L5.02397 10.7115ZM10.6303 116C9.66422 116 8.73352 116.382 8.04408 117.069L15.1005 124.154C13.9114 125.338 12.303 126 10.6303 126V116ZM8.04408 117.069C7.35402 117.756 6.96251 118.692 6.96251 119.673H16.9625C16.9625 121.358 16.2903 122.969 15.1005 124.154L8.04408 117.069ZM6.96251 119.673C6.96251 116.616 4.44609 114.087 1.35938 114.087V104.087C9.96329 104.087 16.9625 111.088 16.9625 119.673H6.96251ZM1.35938 114.087C3.23511 114.087 5 112.593 5 110.414H-5C-5 106.772 -1.98448 104.087 1.35938 104.087V114.087ZM5 110.414C5 108.431 3.37964 106.74 1.3322 106.74V116.74C-2.23775 116.74 -5 113.858 -5 110.414H5ZM1.3322 106.74C8.48967 106.74 14.2709 112.517 14.2709 119.646H4.27094C4.27094 118.057 2.98346 116.74 1.3322 116.74V106.74ZM14.2677 119.467C14.2038 117.683 12.7336 116 10.6303 116V126C7.05888 126 4.3925 123.125 4.27415 119.825L14.2677 119.467Z" fill="#010792" mask="url(#path-7-inside-4_30087_6955)"/>
</g>
<defs>
<clipPath id="clip0_30087_6955">
<rect width="123" height="86" fill="white" transform="matrix(4.37114e-08 -1 -1 -4.37114e-08 86 123)"/>
</clipPath>
</defs>
</svg>
