<svg width="524" height="751" viewBox="0 0 524 751" fill="none" xmlns="http://www.w3.org/2000/svg">
<g clip-path="url(#clip0_31167_3816)">
<path d="M3.64551 745.25L3.64548 5.86719C3.64551 4.4794 4.77937 3.35273 6.14743 3.35254L517.853 3.35252C519.221 3.35252 520.355 4.47928 520.355 5.86716L520.355 745.25C520.355 745.919 520.09 746.559 519.62 747.03C519.15 747.501 518.514 747.765 517.853 747.765L6.14746 747.765C4.77937 747.764 3.64551 746.638 3.64551 745.25ZM515.233 742.618L515.233 8.38181L8.65036 8.38184L8.65039 742.618L515.233 742.618Z" fill="#010792" stroke="#010792" stroke-width="6.47074"/>
<path d="M12.2354 374.5C12.2354 374.417 12.2712 374.155 12.665 373.837C13.0778 373.504 13.761 373.235 14.582 373.235L512.418 373.235C513.263 373.235 513.931 373.515 514.332 373.839C514.728 374.158 514.765 374.413 514.765 374.5C514.765 374.583 514.729 374.845 514.335 375.163C513.922 375.496 513.239 375.765 512.418 375.765L14.582 375.765C13.7609 375.765 13.0777 375.496 12.665 375.163C12.2712 374.845 12.2354 374.583 12.2354 374.5Z" fill="#010792" stroke="#010792" stroke-width="6.47074"/>
<path d="M118.622 745.25L118.622 625.911C118.622 624.524 119.756 623.398 121.124 623.397L409.589 623.397L409.649 623.395C410.901 623.348 412.031 624.381 412.031 625.794L412.031 745.25C412.031 745.919 411.766 746.559 411.296 747.03C410.826 747.501 410.191 747.765 409.529 747.765C408.868 747.765 408.232 747.501 407.763 747.03C407.293 746.559 407.027 745.919 407.027 745.25L407.027 628.426L123.744 628.426L123.744 745.25C123.744 746.595 122.652 747.765 121.124 747.765C119.756 747.764 118.622 746.638 118.622 745.25ZM165.812 375.5C165.812 322.364 208.982 279.111 261.989 279.11C314.996 279.11 358.168 322.364 358.168 375.5C358.168 428.636 314.996 471.89 261.989 471.89C208.982 471.889 165.812 428.636 165.812 375.5ZM170.816 375.5C170.816 425.863 211.722 466.743 261.872 466.743C312.026 466.743 352.929 425.743 352.929 375.5C352.929 325.137 312.023 284.257 261.872 284.257C211.722 284.257 170.816 325.137 170.816 375.5Z" fill="#010792" stroke="#010792" stroke-width="6.47074"/>
<path d="M118.622 125.207L118.622 5.86816C118.622 5.19914 118.887 4.55892 119.357 4.08789C119.827 3.61714 120.463 3.35361 121.124 3.35352C121.785 3.35352 122.422 3.61706 122.892 4.08789C123.361 4.55889 123.627 5.19917 123.627 5.86816L123.627 122.692L406.91 122.692L406.91 5.86815C406.91 4.48027 408.044 3.35356 409.412 3.3535C410.94 3.3535 412.031 4.52278 412.031 5.86815L412.031 125.207C412.031 125.876 411.766 126.516 411.296 126.987C410.826 127.458 410.191 127.721 409.529 127.721L121.124 127.721C119.756 127.721 118.622 126.595 118.622 125.207ZM169.676 625.795C169.676 609.292 179.557 593.926 196.275 582.544C212.975 571.175 236.21 564.023 261.989 564.022C287.769 564.022 311.004 571.175 327.703 582.544C344.422 593.926 354.304 609.292 354.304 625.795C354.304 626.464 354.038 627.104 353.568 627.575C353.099 628.046 352.463 628.309 351.802 628.31L351.555 628.297C350.984 628.24 350.445 627.987 350.034 627.575C349.623 627.163 349.369 626.621 349.312 626.044L349.299 625.795C349.299 609.573 338.923 595.339 323.149 585.323C307.335 575.281 285.695 569.168 261.989 569.168C238.284 569.168 216.645 575.281 200.83 585.323C185.056 595.34 174.68 609.573 174.68 625.795C174.68 626.464 174.414 627.104 173.944 627.575C173.475 628.046 172.839 628.31 172.178 628.31C171.516 628.31 170.881 628.046 170.411 627.575C170 627.163 169.745 626.621 169.687 626.044L169.676 625.795Z" fill="#010792" stroke="#010792" stroke-width="6.47074"/>
<path d="M475.421 745.25C475.421 721.796 494.476 702.605 517.97 702.604C519.338 702.604 520.472 703.73 520.473 705.118C520.473 705.787 520.207 706.428 519.737 706.899C519.268 707.37 518.631 707.633 517.97 707.633C497.36 707.633 480.601 724.402 480.544 745.026C480.481 746.68 479.229 747.764 477.924 747.765C476.556 747.765 475.421 746.638 475.421 745.25ZM475.421 5.86717C475.421 4.39384 476.64 3.23533 477.924 3.23533C479.335 3.2355 480.426 4.288 480.426 5.74998C480.426 26.5149 497.162 43.1973 517.757 43.249C519.386 43.3169 520.473 44.5606 520.473 45.8818C520.473 46.5507 520.207 47.1912 519.737 47.6621C519.267 48.1329 518.631 48.3955 517.97 48.3955C494.577 48.3953 475.421 29.3048 475.421 5.86717ZM169.686 125.206C169.686 124.537 169.952 123.897 170.422 123.426C170.892 122.955 171.527 122.691 172.188 122.691C172.85 122.691 173.485 122.955 173.955 123.426C174.425 123.897 174.69 124.537 174.69 125.206C174.691 141.428 185.066 155.661 200.84 165.678C216.654 175.72 238.295 181.833 262 181.833C285.705 181.833 307.346 175.72 323.16 165.678C338.687 155.818 348.985 141.872 349.303 125.965L349.31 125.206C349.31 124.537 349.575 123.897 350.045 123.426C350.515 122.955 351.151 122.691 351.812 122.691C352.474 122.691 353.109 122.955 353.579 123.426C354.049 123.897 354.314 124.537 354.314 125.206C354.314 141.709 344.433 157.075 327.714 168.457C311.015 179.826 287.78 186.979 262 186.979C236.218 186.978 212.983 179.854 196.285 168.5C179.831 157.312 169.997 142.249 169.693 125.981L169.686 125.206ZM3.64551 705.236C3.64551 703.763 4.86338 702.605 6.14746 702.604C29.5241 702.604 48.579 721.679 48.5791 745.25C48.5791 746.595 47.4881 747.765 45.96 747.765C44.5918 747.765 43.458 746.638 43.458 745.25C43.4579 724.585 26.6831 707.75 6.14746 707.75C4.7795 707.75 3.64572 706.624 3.64551 705.236ZM3.64548 45.8818C3.64548 45.2127 3.91079 44.5716 4.38083 44.1006C4.85056 43.63 5.48627 43.3673 6.14743 43.3672C26.6831 43.3672 43.458 26.5327 43.458 5.86719C43.458 4.47931 44.5918 3.35262 45.9599 3.35254L46.0175 3.35254L46.0761 3.35058C47.4934 3.30004 48.5791 4.38372 48.5791 5.75C48.579 29.2093 29.5187 48.3955 6.14743 48.3955L5.90134 48.3838C5.33018 48.327 4.79194 48.074 4.38083 47.6621C3.9109 47.1912 3.64559 46.5508 3.64548 45.8818Z" fill="#010792" stroke="#010792" stroke-width="6.47074"/>
</g>
<defs>
<clipPath id="clip0_31167_3816">
<rect width="751" height="524" fill="white" transform="translate(0 751) rotate(-90)"/>
</clipPath>
</defs>
</svg>
