<svg width="86" height="123" viewBox="0 0 86 123" fill="none" xmlns="http://www.w3.org/2000/svg">
<g clip-path="url(#clip0_30031_8513)">
<mask id="path-1-inside-1_30031_8513" fill="white">
<path d="M85.3415 121H0.65854C0.483885 121 0.316382 120.86 0.192882 120.611C0.0693817 120.362 0 120.025 0 119.673L0 1.32699C0 0.595792 0.295671 0 0.65854 0H85.3415C85.7043 0 86 0.595792 86 1.32699V119.673C86 120.404 85.7043 121 85.3415 121ZM1.33052 118.319H84.6829V2.65399H1.33052V118.319Z"/>
</mask>
<path d="M85.3415 121H0.65854C0.483885 121 0.316382 120.86 0.192882 120.611C0.0693817 120.362 0 120.025 0 119.673L0 1.32699C0 0.595792 0.295671 0 0.65854 0H85.3415C85.7043 0 86 0.595792 86 1.32699V119.673C86 120.404 85.7043 121 85.3415 121ZM1.33052 118.319H84.6829V2.65399H1.33052V118.319Z" fill="#010792"/>
<path d="M0 119.673H-5H0ZM1.33052 118.319H-3.66948V123.319H1.33052V118.319ZM84.6829 118.319V123.319H89.6829V118.319H84.6829ZM84.6829 2.65399H89.6829V-2.34601H84.6829V2.65399ZM1.33052 2.65399V-2.34601H-3.66948V2.65399H1.33052ZM85.3415 116H0.65854V126H85.3415V116ZM0.65854 116C1.97933 116 2.99114 116.543 3.61043 117.06C4.20116 117.553 4.51614 118.075 4.67169 118.389L-4.28592 122.834C-3.86165 123.689 -2.3889 126 0.65854 126V116ZM4.67169 118.389C4.83583 118.719 4.91101 118.995 4.94773 119.174C4.98636 119.362 5 119.528 5 119.673H-5C-5 120.596 -4.83128 121.735 -4.28592 122.834L4.67169 118.389ZM5 119.673V1.32699H-5V119.673H5ZM5 1.32699C5 1.56784 4.96193 2.02774 4.672 2.61197C4.5267 2.90475 4.22465 3.41541 3.65046 3.90598C3.04503 4.42325 2.02043 5 0.65854 5V-5C-2.46383 -5 -3.91472 -2.58074 -4.28561 -1.83338C-4.8141 -0.768454 -5 0.354946 -5 1.32699H5ZM0.65854 5H85.3415V-5H0.65854V5ZM85.3415 5C83.9796 5 82.955 4.42325 82.3495 3.90599C81.7754 3.41541 81.4733 2.90476 81.328 2.61198C81.0381 2.02775 81 1.56784 81 1.32699H91C91 0.35494 90.8141 -0.768462 90.2856 -1.83339C89.9147 -2.58075 88.4638 -5 85.3415 -5V5ZM81 1.32699V119.673H91V1.32699H81ZM81 119.673C81 119.432 81.0381 118.972 81.328 118.388C81.4733 118.095 81.7753 117.585 82.3495 117.094C82.955 116.577 83.9796 116 85.3415 116V126C88.4638 126 89.9147 123.581 90.2856 122.833C90.8141 121.768 91 120.645 91 119.673H81ZM1.33052 123.319H84.6829V113.319H1.33052V123.319ZM89.6829 118.319V2.65399H79.6829V118.319H89.6829ZM84.6829 -2.34601H1.33052V7.65399H84.6829V-2.34601ZM-3.66948 2.65399V118.319H6.33052V2.65399H-3.66948Z" fill="#010792" mask="url(#path-1-inside-1_30031_8513)"/>
<mask id="path-3-inside-2_30031_8513" fill="white">
<path d="M-1.03754 121.415C-1.3907 121.415 -1.7294 121.275 -1.97913 121.025C-2.22885 120.775 -2.36914 120.437 -2.36914 120.084V1.33154C-2.36914 0.978397 -2.22885 0.639713 -1.97913 0.39C-1.7294 0.140287 -1.3907 0 -1.03754 0C-0.684372 0 -0.345676 0.140287 -0.0959518 0.39C0.153773 0.639713 0.294074 0.978397 0.294074 1.33154V120.084C0.294074 120.817 -0.303794 121.415 -1.03754 121.415Z"/>
</mask>
<path d="M-1.03754 121.415C-1.3907 121.415 -1.7294 121.275 -1.97913 121.025C-2.22885 120.775 -2.36914 120.437 -2.36914 120.084V1.33154C-2.36914 0.978397 -2.22885 0.639713 -1.97913 0.39C-1.7294 0.140287 -1.3907 0 -1.03754 0C-0.684372 0 -0.345676 0.140287 -0.0959518 0.39C0.153773 0.639713 0.294074 0.978397 0.294074 1.33154V120.084C0.294074 120.817 -0.303794 121.415 -1.03754 121.415Z" fill="#010792"/>
<path d="M-1.03754 116.415C-0.0647299 116.415 0.868325 116.802 1.55633 117.49L-5.51458 124.561C-4.32713 125.748 -2.71667 126.415 -1.03754 126.415V116.415ZM1.55633 117.49C2.24435 118.178 2.63086 119.111 2.63086 120.084H-7.36914C-7.36914 121.763 -6.70205 123.373 -5.51458 124.561L1.55633 117.49ZM2.63086 120.084V1.33154H-7.36914V120.084H2.63086ZM2.63086 1.33154C2.63086 2.30452 2.24433 3.23764 1.55633 3.92561L-5.51458 -3.14561C-6.70203 -1.95822 -7.36914 -0.34773 -7.36914 1.33154H2.63086ZM1.55633 3.92561C0.868343 4.61357 -0.0647049 5 -1.03754 5V-5C-2.71669 -5 -4.32715 -4.33299 -5.51458 -3.14561L1.55633 3.92561ZM-1.03754 5C-2.01039 5 -2.94344 4.61355 -3.63141 3.92561L3.4395 -3.14561C2.25208 -4.33298 0.641643 -5 -1.03754 -5V5ZM-3.63141 3.92561C-4.31934 3.23771 -4.70593 2.30462 -4.70593 1.33154H5.29407C5.29407 -0.347829 4.62688 -1.95829 3.4395 -3.14561L-3.63141 3.92561ZM-4.70593 1.33154V120.084H5.29407V1.33154H-4.70593ZM-4.70593 120.084C-4.70593 118.056 -3.065 116.415 -1.03754 116.415V126.415C2.45742 126.415 5.29407 123.579 5.29407 120.084H-4.70593Z" fill="#010792" mask="url(#path-3-inside-2_30031_8513)"/>
<mask id="path-5-inside-3_30031_8513" fill="white">
<path d="M-59.0043 82.8817C-59.3575 82.8817 -59.6962 82.7414 -59.9459 82.4917C-60.1956 82.242 -60.3359 81.9033 -60.3359 81.5501C-60.3359 81.197 -60.1956 80.8583 -59.9459 80.6086C-59.6962 80.3589 -59.3575 80.2186 -59.0043 80.2186C-52.1833 80.2186 -46.6394 71.4684 -46.6394 60.7074C-46.6394 49.9463 -52.1833 41.1962 -59.0043 41.1962C-59.3575 41.1962 -59.6962 41.0559 -59.9459 40.8062C-60.1956 40.5565 -60.3359 40.2178 -60.3359 39.8646C-60.3359 39.5115 -60.1956 39.1728 -59.9459 38.9231C-59.6962 38.6734 -59.3575 38.5331 -59.0043 38.5331C-50.7158 38.5331 -43.949 48.4789 -43.949 60.7074C-43.949 72.9359 -50.7158 82.8817 -59.0043 82.8817ZM84.5644 96.2787H56.9268C56.5737 96.2787 56.235 96.1384 55.9852 95.8887C55.7355 95.6389 55.5952 95.3003 55.5952 94.9471V28.0166C55.5952 27.2829 56.1931 26.6851 56.9268 26.6851H84.5644C84.9176 26.6851 85.2563 26.8253 85.506 27.0751C85.7557 27.3248 85.896 27.6635 85.896 28.0166C85.896 28.3698 85.7557 28.7084 85.506 28.9581C85.2563 29.2079 84.9176 29.3481 84.5644 29.3481H58.2584V93.5884H84.5644C85.2982 93.5884 85.896 94.1862 85.896 94.9199C85.896 95.6808 85.2982 96.2787 84.5644 96.2787Z"/>
</mask>
<path d="M-59.0043 82.8817C-59.3575 82.8817 -59.6962 82.7414 -59.9459 82.4917C-60.1956 82.242 -60.3359 81.9033 -60.3359 81.5501C-60.3359 81.197 -60.1956 80.8583 -59.9459 80.6086C-59.6962 80.3589 -59.3575 80.2186 -59.0043 80.2186C-52.1833 80.2186 -46.6394 71.4684 -46.6394 60.7074C-46.6394 49.9463 -52.1833 41.1962 -59.0043 41.1962C-59.3575 41.1962 -59.6962 41.0559 -59.9459 40.8062C-60.1956 40.5565 -60.3359 40.2178 -60.3359 39.8646C-60.3359 39.5115 -60.1956 39.1728 -59.9459 38.9231C-59.6962 38.6734 -59.3575 38.5331 -59.0043 38.5331C-50.7158 38.5331 -43.949 48.4789 -43.949 60.7074C-43.949 72.9359 -50.7158 82.8817 -59.0043 82.8817ZM84.5644 96.2787H56.9268C56.5737 96.2787 56.235 96.1384 55.9852 95.8887C55.7355 95.6389 55.5952 95.3003 55.5952 94.9471V28.0166C55.5952 27.2829 56.1931 26.6851 56.9268 26.6851H84.5644C84.9176 26.6851 85.2563 26.8253 85.506 27.0751C85.7557 27.3248 85.896 27.6635 85.896 28.0166C85.896 28.3698 85.7557 28.7084 85.506 28.9581C85.2563 29.2079 84.9176 29.3481 84.5644 29.3481H58.2584V93.5884H84.5644C85.2982 93.5884 85.896 94.1862 85.896 94.9199C85.896 95.6808 85.2982 96.2787 84.5644 96.2787Z" fill="#010792"/>
<path d="M-60.3359 81.5501H-65.3359H-60.3359ZM-59.0043 80.2186V75.2186V80.2186ZM-59.0043 38.5331V43.5331V38.5331ZM84.5644 26.6851V21.6851V26.6851ZM58.2584 29.3481V24.3481H53.2584V29.3481H58.2584ZM58.2584 93.5884H53.2584V98.5884H58.2584V93.5884ZM-59.0043 77.8817C-58.0315 77.8817 -57.0985 78.2681 -56.4105 78.9561L-63.4814 86.0273C-62.2939 87.2147 -60.6835 87.8817 -59.0043 87.8817V77.8817ZM-56.4105 78.9561C-55.7225 79.644 -55.3359 80.5772 -55.3359 81.5501H-65.3359C-65.3359 83.2294 -64.6688 84.8399 -63.4814 86.0273L-56.4105 78.9561ZM-55.3359 81.5501C-55.3359 82.5231 -55.7225 83.4563 -56.4105 84.1442L-63.4814 77.073C-64.6688 78.2603 -65.3359 79.8708 -65.3359 81.5501H-55.3359ZM-56.4105 84.1442C-57.0985 84.8322 -58.0315 85.2186 -59.0043 85.2186V75.2186C-60.6835 75.2186 -62.2939 75.8856 -63.4814 77.073L-56.4105 84.1442ZM-59.0043 85.2186C-53.2773 85.2186 -48.8179 81.5576 -46.0405 77.1747C-43.2223 72.7272 -41.6394 66.8905 -41.6394 60.7074H-51.6394C-51.6394 65.2853 -52.8285 69.2042 -54.4874 71.8221C-56.1872 74.5045 -57.9103 75.2186 -59.0043 75.2186V85.2186ZM-41.6394 60.7074C-41.6394 54.5243 -43.2223 48.6875 -46.0405 44.2401C-48.8179 39.8572 -53.2773 36.1962 -59.0043 36.1962V46.1962C-57.9103 46.1962 -56.1872 46.9103 -54.4874 49.5927C-52.8285 52.2106 -51.6394 56.1294 -51.6394 60.7074H-41.6394ZM-59.0043 36.1962C-58.0315 36.1962 -57.0985 36.5826 -56.4105 37.2706L-63.4814 44.3418C-62.2939 45.5292 -60.6835 46.1962 -59.0043 46.1962V36.1962ZM-56.4105 37.2706C-55.7225 37.9585 -55.3359 38.8916 -55.3359 39.8646H-65.3359C-65.3359 41.5439 -64.6688 43.1544 -63.4814 44.3418L-56.4105 37.2706ZM-55.3359 39.8646C-55.3359 40.8376 -55.7225 41.7708 -56.4105 42.4587L-63.4814 35.3875C-64.6688 36.5749 -65.3359 38.1853 -65.3359 39.8646H-55.3359ZM-56.4105 42.4587C-57.0984 43.1466 -58.0315 43.5331 -59.0043 43.5331V33.5331C-60.6835 33.5331 -62.294 34.2001 -63.4814 35.3875L-56.4105 42.4587ZM-59.0043 43.5331C-57.0155 43.5331 -54.6221 44.7271 -52.5043 47.8444C-50.4079 50.9301 -48.949 55.4665 -48.949 60.7074H-38.949C-38.949 53.7198 -40.8736 47.169 -44.2327 42.2247C-47.5703 37.312 -52.7046 33.5331 -59.0043 33.5331V43.5331ZM-48.949 60.7074C-48.949 65.9483 -50.4079 70.4847 -52.5043 73.5704C-54.6221 76.6877 -57.0155 77.8817 -59.0043 77.8817V87.8817C-52.7046 87.8817 -47.5703 84.1028 -44.2327 79.19C-40.8736 74.2457 -38.949 67.6949 -38.949 60.7074H-48.949ZM84.5644 91.2787H56.9268V101.279H84.5644V91.2787ZM56.9268 91.2787C57.8996 91.2787 58.8327 91.6651 59.5207 92.353L52.4498 99.4243C53.6373 100.612 55.2477 101.279 56.9268 101.279V91.2787ZM59.5207 92.353C60.2087 93.041 60.5952 93.9742 60.5952 94.9471H50.5952C50.5952 96.6264 51.2623 98.2368 52.4498 99.4243L59.5207 92.353ZM60.5952 94.9471V28.0166H50.5952V94.9471H60.5952ZM60.5952 28.0166C60.5952 30.0446 58.9543 31.6851 56.9268 31.6851V21.6851C53.4319 21.6851 50.5952 24.5212 50.5952 28.0166H60.5952ZM56.9268 31.6851H84.5644V21.6851H56.9268V31.6851ZM84.5644 31.6851C83.5916 31.6851 82.6585 31.2986 81.9706 30.6107L89.0415 23.5394C87.8541 22.3521 86.2436 21.6851 84.5644 21.6851V31.6851ZM81.9706 30.6107C81.2826 29.9228 80.896 28.9897 80.896 28.0166H90.896C90.896 26.3372 90.2288 24.7268 89.0415 23.5394L81.9706 30.6107ZM80.896 28.0166C80.896 27.0435 81.2826 26.1104 81.9706 25.4225L89.0415 32.4938C90.2289 31.3064 90.896 29.696 90.896 28.0166H80.896ZM81.9706 25.4225C82.6585 24.7346 83.5916 24.3481 84.5644 24.3481V34.3481C86.2436 34.3481 87.854 33.6811 89.0415 32.4938L81.9706 25.4225ZM84.5644 24.3481H58.2584V34.3481H84.5644V24.3481ZM53.2584 29.3481V93.5884H63.2584V29.3481H53.2584ZM58.2584 98.5884H84.5644V88.5884H58.2584V98.5884ZM84.5644 98.5884C82.537 98.5884 80.896 96.9479 80.896 94.9199H90.896C90.896 91.4246 88.0594 88.5884 84.5644 88.5884V98.5884ZM80.896 94.9199C80.896 92.9853 82.4713 91.2787 84.5644 91.2787V101.279C88.1251 101.279 90.896 98.3763 90.896 94.9199H80.896Z" fill="#010792" mask="url(#path-5-inside-3_30031_8513)"/>
<mask id="path-7-inside-4_30031_8513" fill="white">
<path d="M56.9909 82.58C48.6988 82.58 41.9291 72.6704 41.9291 60.4865C41.9291 48.3025 48.6716 38.3929 56.9909 38.3929C57.3443 38.3929 57.6831 38.5327 57.9329 38.7815C58.1828 39.0303 58.3231 39.3678 58.3231 39.7196C58.3231 40.0715 58.1828 40.4089 57.9329 40.6577C57.6831 40.9065 57.3443 41.0463 56.9909 41.0463C50.1669 41.0463 44.6206 49.7646 44.6206 60.4865C44.6206 71.2083 50.1669 79.9266 56.9909 79.9266C57.3443 79.9266 57.6831 80.0664 57.9329 80.3152C58.1828 80.564 58.3231 80.9014 58.3231 81.2533C58.3231 81.6052 58.1828 81.9426 57.9329 82.1914C57.6831 82.4402 57.3443 82.58 56.9909 82.58ZM-86.6678 11.8861C-87.4019 11.8861 -88 11.2904 -88 10.5323C-88 9.8013 -87.4019 9.20564 -86.6678 9.20564C-82.2906 9.20564 -78.7291 5.65876 -78.7291 1.32669C-78.7291 0.595658 -78.1309 0 -77.3969 0C-76.6628 0 -76.0375 0.595658 -76.0375 1.32669C-76.0375 7.14791 -80.7953 11.8861 -86.6678 11.8861ZM-77.3697 121C-77.723 121 -78.0619 120.86 -78.3117 120.611C-78.5615 120.363 -78.7019 120.025 -78.7019 119.673C-78.7019 115.314 -82.2634 111.767 -86.6406 111.767C-87.4019 111.74 -88 111.145 -88 110.414C-88 109.682 -87.4019 109.087 -86.6678 109.087C-80.8225 109.087 -76.0375 113.825 -76.0375 119.673C-76.0375 120.404 -76.6356 121 -77.3697 121ZM84.6678 11.8861C78.8225 11.8861 74.0375 7.14791 74.0375 1.32669C74.0375 0.974833 74.1779 0.637383 74.4277 0.388579C74.6775 0.139776 75.0164 0 75.3697 0C75.723 0 76.0618 0.139776 76.3117 0.388579C76.5615 0.637383 76.7019 0.974833 76.7019 1.32669C76.7019 5.65876 80.2634 9.20564 84.6406 9.20564C85.3747 9.20564 85.9728 9.8013 85.9728 10.5323C86 11.2904 85.4019 11.8861 84.6678 11.8861ZM75.3697 121C75.0164 121 74.6775 120.86 74.4277 120.611C74.1779 120.363 74.0375 120.025 74.0375 119.673C74.0375 113.852 78.7953 109.087 84.6406 109.087C85.3747 109.087 86 109.682 86 110.414C86 111.145 85.4291 111.74 84.6678 111.74C80.2634 111.74 76.7291 115.287 76.7291 119.646C76.7019 120.404 76.1037 121 75.3697 121Z"/>
</mask>
<path d="M56.9909 82.58C48.6988 82.58 41.9291 72.6704 41.9291 60.4865C41.9291 48.3025 48.6716 38.3929 56.9909 38.3929C57.3443 38.3929 57.6831 38.5327 57.9329 38.7815C58.1828 39.0303 58.3231 39.3678 58.3231 39.7196C58.3231 40.0715 58.1828 40.4089 57.9329 40.6577C57.6831 40.9065 57.3443 41.0463 56.9909 41.0463C50.1669 41.0463 44.6206 49.7646 44.6206 60.4865C44.6206 71.2083 50.1669 79.9266 56.9909 79.9266C57.3443 79.9266 57.6831 80.0664 57.9329 80.3152C58.1828 80.564 58.3231 80.9014 58.3231 81.2533C58.3231 81.6052 58.1828 81.9426 57.9329 82.1914C57.6831 82.4402 57.3443 82.58 56.9909 82.58ZM-86.6678 11.8861C-87.4019 11.8861 -88 11.2904 -88 10.5323C-88 9.8013 -87.4019 9.20564 -86.6678 9.20564C-82.2906 9.20564 -78.7291 5.65876 -78.7291 1.32669C-78.7291 0.595658 -78.1309 0 -77.3969 0C-76.6628 0 -76.0375 0.595658 -76.0375 1.32669C-76.0375 7.14791 -80.7953 11.8861 -86.6678 11.8861ZM-77.3697 121C-77.723 121 -78.0619 120.86 -78.3117 120.611C-78.5615 120.363 -78.7019 120.025 -78.7019 119.673C-78.7019 115.314 -82.2634 111.767 -86.6406 111.767C-87.4019 111.74 -88 111.145 -88 110.414C-88 109.682 -87.4019 109.087 -86.6678 109.087C-80.8225 109.087 -76.0375 113.825 -76.0375 119.673C-76.0375 120.404 -76.6356 121 -77.3697 121ZM84.6678 11.8861C78.8225 11.8861 74.0375 7.14791 74.0375 1.32669C74.0375 0.974833 74.1779 0.637383 74.4277 0.388579C74.6775 0.139776 75.0164 0 75.3697 0C75.723 0 76.0618 0.139776 76.3117 0.388579C76.5615 0.637383 76.7019 0.974833 76.7019 1.32669C76.7019 5.65876 80.2634 9.20564 84.6406 9.20564C85.3747 9.20564 85.9728 9.8013 85.9728 10.5323C86 11.2904 85.4019 11.8861 84.6678 11.8861ZM75.3697 121C75.0164 121 74.6775 120.86 74.4277 120.611C74.1779 120.363 74.0375 120.025 74.0375 119.673C74.0375 113.852 78.7953 109.087 84.6406 109.087C85.3747 109.087 86 109.682 86 110.414C86 111.145 85.4291 111.74 84.6678 111.74C80.2634 111.74 76.7291 115.287 76.7291 119.646C76.7019 120.404 76.1037 121 75.3697 121Z" fill="#010792"/>
<path d="M56.9909 38.3929V33.3929V38.3929ZM56.9909 79.9266V84.9266V79.9266ZM-86.6406 111.767L-86.8183 116.764L-86.7295 116.767H-86.6406V111.767ZM74.0375 1.32669H79.0375H74.0375ZM85.9728 10.5323H80.9728V10.622L80.976 10.7115L85.9728 10.5323ZM76.7291 119.646L81.7258 119.825L81.7291 119.736V119.646H76.7291ZM56.9909 77.58C54.9908 77.58 52.5957 76.3847 50.4809 73.2845C48.3864 70.2142 46.9291 65.7009 46.9291 60.4865H36.9291C36.9291 67.456 38.8566 73.9894 42.22 78.9199C45.563 83.8205 50.6989 87.58 56.9909 87.58V77.58ZM46.9291 60.4865C46.9291 55.2677 48.3818 50.7543 50.4723 47.686C52.5809 44.5912 54.9744 43.3929 56.9909 43.3929V33.3929C50.6881 33.3929 45.5507 37.1494 42.2081 42.0554C38.8476 46.9879 36.9291 53.5213 36.9291 60.4865H46.9291ZM56.9909 43.3929C56.0248 43.3929 55.0941 43.0109 54.4047 42.3243L61.4612 35.2387C60.2721 34.0545 58.6637 33.3929 56.9909 33.3929V43.3929ZM54.4047 42.3243C53.7146 41.6371 53.3231 40.7005 53.3231 39.7196H63.3231C63.3231 38.035 62.651 36.4236 61.4612 35.2387L54.4047 42.3243ZM53.3231 39.7196C53.3231 38.7388 53.7146 37.8022 54.4047 37.1149L61.4612 44.2006C62.651 43.0157 63.3231 41.4042 63.3231 39.7196H53.3231ZM54.4047 37.1149C55.0941 36.4283 56.0248 36.0463 56.9909 36.0463V46.0463C58.6637 46.0463 60.2721 45.3848 61.4612 44.2006L54.4047 37.1149ZM56.9909 36.0463C51.2722 36.0463 46.8111 39.688 44.0283 44.0616C41.206 48.4972 39.6206 54.3191 39.6206 60.4865H49.6206C49.6206 55.932 50.8084 52.0337 52.4652 49.4298C54.1615 46.7638 55.8856 46.0463 56.9909 46.0463V36.0463ZM39.6206 60.4865C39.6206 66.6538 41.206 72.4757 44.0283 76.9114C46.8111 81.285 51.2722 84.9266 56.9909 84.9266V74.9266C55.8856 74.9266 54.1615 74.2091 52.4652 71.5431C50.8084 68.9392 49.6206 65.0409 49.6206 60.4865H39.6206ZM56.9909 84.9266C56.0248 84.9266 55.0941 84.5446 54.4047 83.858L61.4612 76.7724C60.2721 75.5882 58.6637 74.9266 56.9909 74.9266V84.9266ZM54.4047 83.858C53.7146 83.1707 53.3231 82.2342 53.3231 81.2533H63.3231C63.3231 79.5687 62.651 77.9573 61.4612 76.7724L54.4047 83.858ZM53.3231 81.2533C53.3231 80.2725 53.7146 79.3359 54.4047 78.6486L61.4612 85.7343C62.651 84.5493 63.3231 82.9379 63.3231 81.2533H53.3231ZM54.4047 78.6486C55.0941 77.962 56.0248 77.58 56.9909 77.58V87.58C58.6637 87.58 60.2721 86.9184 61.4612 85.7343L54.4047 78.6486ZM-86.6678 6.88611C-84.5941 6.88611 -83 8.57559 -83 10.5323H-93C-93 14.0053 -90.2096 16.8861 -86.6678 16.8861V6.88611ZM-83 10.5323C-83 12.5822 -84.66 14.2056 -86.6678 14.2056V4.20564C-90.1438 4.20564 -93 7.02042 -93 10.5323H-83ZM-86.6678 14.2056C-79.5599 14.2056 -73.7291 8.45077 -73.7291 1.32669H-83.7291C-83.7291 2.86676 -85.0214 4.20564 -86.6678 4.20564V14.2056ZM-73.7291 1.32669C-73.7291 3.37654 -75.389 5 -77.3969 5V-5C-80.8729 -5 -83.7291 -2.18522 -83.7291 1.32669H-73.7291ZM-77.3969 5C-79.2726 5 -81.0375 3.50628 -81.0375 1.32669H-71.0375C-71.0375 -2.31497 -74.053 -5 -77.3969 -5V5ZM-81.0375 1.32669C-81.0375 4.35871 -83.5289 6.88611 -86.6678 6.88611V16.8861C-78.0617 16.8861 -71.0375 9.9371 -71.0375 1.32669H-81.0375ZM-77.3697 116C-76.4036 116 -75.4729 116.382 -74.7835 117.069L-81.8399 124.154C-80.6508 125.338 -79.0424 126 -77.3697 126V116ZM-74.7835 117.069C-74.0933 117.756 -73.7019 118.692 -73.7019 119.673H-83.7019C-83.7019 121.358 -83.0297 122.969 -81.8399 124.154L-74.7835 117.069ZM-73.7019 119.673C-73.7019 112.533 -79.5215 106.767 -86.6406 106.767V116.767C-85.0054 116.767 -83.7019 118.095 -83.7019 119.673H-73.7019ZM-86.4629 106.77C-84.7192 106.832 -83 108.27 -83 110.414H-93C-93 114.019 -90.0846 116.648 -86.8183 116.764L-86.4629 106.77ZM-83 110.414C-83 112.463 -84.66 114.087 -86.6678 114.087V104.087C-90.1438 104.087 -93 106.902 -93 110.414H-83ZM-86.6678 114.087C-83.5561 114.087 -81.0375 116.614 -81.0375 119.673H-71.0375C-71.0375 111.036 -78.0889 104.087 -86.6678 104.087V114.087ZM-81.0375 119.673C-81.0375 117.623 -79.3775 116 -77.3697 116V126C-73.8937 126 -71.0375 123.185 -71.0375 119.673H-81.0375ZM84.6678 6.88611C81.5477 6.88611 79.0375 4.35042 79.0375 1.32669H69.0375C69.0375 9.94539 76.0973 16.8861 84.6678 16.8861V6.88611ZM79.0375 1.32669C79.0375 2.30767 78.646 3.24419 77.9559 3.93141L70.8995 -3.15425C69.7097 -1.96942 69.0375 -0.358002 69.0375 1.32669H79.0375ZM77.9559 3.93141C77.2665 4.61798 76.3358 5 75.3697 5V-5C73.6969 -5 72.0885 -4.33843 70.8995 -3.15425L77.9559 3.93141ZM75.3697 5C74.4036 5 73.4729 4.61798 72.7835 3.93141L79.8399 -3.15425C78.6508 -4.33843 77.0424 -5 75.3697 -5V5ZM72.7835 3.93141C72.0934 3.24419 71.7019 2.30767 71.7019 1.32669H81.7019C81.7019 -0.358002 81.0296 -1.96942 79.8399 -3.15425L72.7835 3.93141ZM71.7019 1.32669C71.7019 8.45076 77.5327 14.2056 84.6406 14.2056V4.20564C82.9942 4.20564 81.7019 2.86676 81.7019 1.32669H71.7019ZM84.6406 14.2056C82.6328 14.2056 80.9728 12.5822 80.9728 10.5323H90.9728C90.9728 7.02039 88.1166 4.20564 84.6406 4.20564V14.2056ZM80.976 10.7115C80.8997 8.58324 82.6271 6.88611 84.6678 6.88611V16.8861C88.1767 16.8861 91.1003 13.9977 90.9696 10.3531L80.976 10.7115ZM75.3697 116C76.3358 116 77.2665 116.382 77.9559 117.069L70.8995 124.154C72.0886 125.338 73.697 126 75.3697 126V116ZM77.9559 117.069C78.646 117.756 79.0375 118.692 79.0375 119.673H69.0375C69.0375 121.358 69.7097 122.969 70.8995 124.154L77.9559 117.069ZM79.0375 119.673C79.0375 116.616 81.5539 114.087 84.6406 114.087V104.087C76.0367 104.087 69.0375 111.088 69.0375 119.673H79.0375ZM84.6406 114.087C82.7649 114.087 81 112.593 81 110.414H91C91 106.772 87.9845 104.087 84.6406 104.087V114.087ZM81 110.414C81 108.431 82.6204 106.74 84.6678 106.74V116.74C88.2377 116.74 91 113.858 91 110.414H81ZM84.6678 106.74C77.5103 106.74 71.7291 112.517 71.7291 119.646H81.7291C81.7291 118.057 83.0165 116.74 84.6678 116.74V106.74ZM71.7323 119.467C71.7962 117.683 73.2664 116 75.3697 116V126C78.9411 126 81.6075 123.125 81.7258 119.825L71.7323 119.467Z" fill="#010792" mask="url(#path-7-inside-4_30031_8513)"/>
</g>
<defs>
<clipPath id="clip0_30031_8513">
<rect width="123" height="86" fill="white" transform="translate(0 123) rotate(-90)"/>
</clipPath>
</defs>
</svg>
