<svg width="86" height="123" viewBox="0 0 86 123" fill="none" xmlns="http://www.w3.org/2000/svg">
<g clip-path="url(#clip0_30031_8505)">
<mask id="path-1-inside-1_30031_8505" fill="white">
<path d="M85.9319 0.960934L85.9319 122.058C85.9319 122.308 85.8327 122.548 85.6561 122.724C85.4795 122.901 85.24 123 84.9902 123L1.00808 123C0.489199 123 0.0664062 122.577 0.0664062 122.058L0.0664009 0.960938C0.0664009 0.442032 0.489194 0.0192184 1.00808 0.0192184L84.9902 0.0192147C85.5091 0.0192147 85.9319 0.442028 85.9319 0.960934ZM84.0293 121.097L84.0293 1.90265L1.94975 1.90266L1.94976 121.097L84.0293 121.097Z"/>
</mask>
<path d="M85.9319 0.960934L85.9319 122.058C85.9319 122.308 85.8327 122.548 85.6561 122.724C85.4795 122.901 85.24 123 84.9902 123L1.00808 123C0.489199 123 0.0664062 122.577 0.0664062 122.058L0.0664009 0.960938C0.0664009 0.442032 0.489194 0.0192184 1.00808 0.0192184L84.9902 0.0192147C85.5091 0.0192147 85.9319 0.442028 85.9319 0.960934ZM84.0293 121.097L84.0293 1.90265L1.94975 1.90266L1.94976 121.097L84.0293 121.097Z" fill="#010792"/>
<path d="M84.9902 123L84.9902 128L84.9902 123ZM84.0293 121.097L84.0293 126.097L89.0293 126.097L89.0293 121.097L84.0293 121.097ZM84.0293 1.90265L89.0293 1.90265L89.0293 -3.09735L84.0293 -3.09735L84.0293 1.90265ZM1.94975 1.90266L1.94975 -3.09734L-3.05025 -3.09734L-3.05025 1.90266L1.94975 1.90266ZM1.94976 121.097L-3.05024 121.097L-3.05024 126.097L1.94976 126.097L1.94976 121.097ZM80.9319 0.960934L80.9319 122.058L90.9319 122.058L90.9319 0.960934L80.9319 0.960934ZM80.9319 122.058C80.9319 120.982 81.3594 119.95 82.1205 119.189L89.1917 126.26C90.306 125.145 90.9319 123.634 90.9319 122.058L80.9319 122.058ZM82.1205 119.189C82.8816 118.428 83.9138 118 84.9902 118L84.9902 128C86.5661 128 88.0774 127.374 89.1917 126.26L82.1205 119.189ZM84.9902 118L1.00808 118L1.00808 128L84.9902 128L84.9902 118ZM1.00808 118C3.25084 118 5.06641 119.816 5.06641 122.058L-4.93359 122.058C-4.93359 125.338 -2.27244 128 1.00808 128L1.00808 118ZM5.06641 122.058L5.0664 0.960937L-4.9336 0.960938L-4.93359 122.058L5.06641 122.058ZM5.0664 0.960937C5.0664 3.20322 3.25086 5.01922 1.00808 5.01922L1.00808 -4.98078C-2.27247 -4.98078 -4.9336 -2.31915 -4.9336 0.960938L5.0664 0.960937ZM1.00808 5.01922L84.9902 5.01921L84.9902 -4.98079L1.00808 -4.98078L1.00808 5.01922ZM84.9902 5.01921C82.7475 5.01921 80.9319 3.20324 80.9319 0.960934L90.9319 0.960934C90.9319 -2.31918 88.2707 -4.98079 84.9902 -4.98079L84.9902 5.01921ZM89.0293 121.097L89.0293 1.90265L79.0293 1.90265L79.0293 121.097L89.0293 121.097ZM84.0293 -3.09735L1.94975 -3.09734L1.94975 6.90266L84.0293 6.90265L84.0293 -3.09735ZM-3.05025 1.90266L-3.05024 121.097L6.94976 121.097L6.94975 1.90266L-3.05025 1.90266ZM1.94976 126.097L84.0293 126.097L84.0293 116.097L1.94976 116.097L1.94976 126.097Z" fill="#010792" mask="url(#path-1-inside-1_30031_8505)"/>
<mask id="path-3-inside-2_30031_8505" fill="white">
<path d="M85.9319 61.4999C85.9319 61.7497 85.8327 61.9892 85.6561 62.1658C85.4795 62.3424 85.24 62.4416 84.9902 62.4416L1.00808 62.4417C0.758334 62.4417 0.518815 62.3424 0.342216 62.1658C0.165618 61.9892 0.0664062 61.7497 0.0664062 61.4999C0.0664062 61.2502 0.165618 61.0106 0.342216 60.834C0.518815 60.6574 0.758334 60.5582 1.00808 60.5582L84.9902 60.5582C85.5091 60.5582 85.9319 60.981 85.9319 61.4999Z"/>
</mask>
<path d="M85.9319 61.4999C85.9319 61.7497 85.8327 61.9892 85.6561 62.1658C85.4795 62.3424 85.24 62.4416 84.9902 62.4416L1.00808 62.4417C0.758334 62.4417 0.518815 62.3424 0.342216 62.1658C0.165618 61.9892 0.0664062 61.7497 0.0664062 61.4999C0.0664062 61.2502 0.165618 61.0106 0.342216 60.834C0.518815 60.6574 0.758334 60.5582 1.00808 60.5582L84.9902 60.5582C85.5091 60.5582 85.9319 60.981 85.9319 61.4999Z" fill="#010792"/>
<path d="M80.9319 61.4999C80.9319 60.4237 81.3594 59.3915 82.1205 58.6304L89.1917 65.7013C90.306 64.5869 90.9319 63.0757 90.9319 61.4999L80.9319 61.4999ZM82.1205 58.6304C82.8816 57.8692 83.9139 57.4416 84.9902 57.4416L84.9902 67.4416C86.5661 67.4416 88.0774 66.8156 89.1917 65.7013L82.1205 58.6304ZM84.9902 57.4416L1.00808 57.4417L1.00808 67.4417L84.9902 67.4416L84.9902 57.4416ZM1.00808 57.4417C2.08446 57.4417 3.11674 57.8693 3.87783 58.6304L-3.1934 65.7013C-2.07911 66.8156 -0.567792 67.4417 1.00808 67.4417L1.00808 57.4417ZM3.87783 58.6304C4.6389 59.3915 5.06641 60.4237 5.06641 61.4999L-4.93359 61.4999C-4.93359 63.0757 -4.30766 64.587 -3.1934 65.7013L3.87783 58.6304ZM5.06641 61.4999C5.06641 62.5762 4.63888 63.6084 3.87783 64.3695L-3.1934 57.2986C-4.30765 58.4129 -4.93359 59.9242 -4.93359 61.4999L5.06641 61.4999ZM3.87783 64.3695C3.11681 65.1305 2.08456 65.5582 1.00808 65.5582L1.00808 55.5582C-0.567892 55.5582 -2.07918 56.1843 -3.1934 57.2986L3.87783 64.3695ZM1.00808 65.5582L84.9902 65.5582L84.9902 55.5582L1.00808 55.5582L1.00808 65.5582ZM84.9902 65.5582C82.7475 65.5582 80.9319 63.7422 80.9319 61.4999L90.9319 61.4999C90.9319 58.2198 88.2707 55.5582 84.9902 55.5582L84.9902 65.5582Z" fill="#010792" mask="url(#path-3-inside-2_30031_8505)"/>
<mask id="path-5-inside-3_30031_8505" fill="white">
<path d="M59.3143 61.5C59.3143 70.4944 51.9923 77.8167 42.9983 77.8167C34.0043 77.8167 26.6823 70.4944 26.6823 61.5C26.6823 52.5056 34.0043 45.1833 42.9983 45.1833C51.9922 45.1833 59.3143 52.5056 59.3143 61.5ZM28.5657 61.5C28.5657 69.4566 35.0421 75.9141 42.9791 75.9141C50.916 75.9141 57.3925 69.4373 57.3925 61.5C57.3925 53.5434 50.916 47.0859 42.9791 47.0859C35.0421 47.0859 28.5657 53.5434 28.5657 61.5ZM68.1545 102.494L68.1545 122.058C68.1545 122.308 68.0553 122.548 67.8787 122.724C67.7021 122.901 67.4626 123 67.2128 123C66.9631 123 66.7235 122.901 66.5469 122.724C66.3703 122.548 66.2711 122.308 66.2711 122.058L66.2711 103.455L20.8401 103.455L20.8401 122.058C20.8401 122.577 20.4173 123 19.8792 123C19.3603 123 18.9375 122.577 18.9375 122.058L18.9375 102.513C18.9375 101.994 19.3603 101.571 19.8792 101.571L67.2128 101.571C67.7317 101.552 68.1545 101.975 68.1545 102.494Z"/>
</mask>
<path d="M59.3143 61.5C59.3143 70.4944 51.9923 77.8167 42.9983 77.8167C34.0043 77.8167 26.6823 70.4944 26.6823 61.5C26.6823 52.5056 34.0043 45.1833 42.9983 45.1833C51.9922 45.1833 59.3143 52.5056 59.3143 61.5ZM28.5657 61.5C28.5657 69.4566 35.0421 75.9141 42.9791 75.9141C50.916 75.9141 57.3925 69.4373 57.3925 61.5C57.3925 53.5434 50.916 47.0859 42.9791 47.0859C35.0421 47.0859 28.5657 53.5434 28.5657 61.5ZM68.1545 102.494L68.1545 122.058C68.1545 122.308 68.0553 122.548 67.8787 122.724C67.7021 122.901 67.4626 123 67.2128 123C66.9631 123 66.7235 122.901 66.5469 122.724C66.3703 122.548 66.2711 122.308 66.2711 122.058L66.2711 103.455L20.8401 103.455L20.8401 122.058C20.8401 122.577 20.4173 123 19.8792 123C19.3603 123 18.9375 122.577 18.9375 122.058L18.9375 102.513C18.9375 101.994 19.3603 101.571 19.8792 101.571L67.2128 101.571C67.7317 101.552 68.1545 101.975 68.1545 102.494Z" fill="#010792"/>
<path d="M67.2128 123L67.2128 128L67.2128 123ZM66.2711 103.455L71.2711 103.455L71.2711 98.4545L66.2711 98.4545L66.2711 103.455ZM20.8401 103.455L20.8401 98.4545L15.8401 98.4545L15.8401 103.455L20.8401 103.455ZM67.2128 101.571L67.2128 106.571L67.3054 106.571L67.3979 106.568L67.2128 101.571ZM54.3143 61.5C54.3143 67.7332 49.2306 72.8167 42.9983 72.8167L42.9983 82.8167C54.7539 82.8167 64.3143 73.2556 64.3143 61.5L54.3143 61.5ZM42.9983 72.8167C36.766 72.8167 31.6823 67.7332 31.6823 61.5L21.6823 61.5C21.6823 73.2556 31.2427 82.8167 42.9983 82.8167L42.9983 72.8167ZM31.6823 61.5C31.6823 55.2668 36.766 50.1833 42.9983 50.1833L42.9983 40.1833C31.2427 40.1833 21.6823 49.7444 21.6823 61.5L31.6823 61.5ZM42.9983 50.1833C49.2306 50.1833 54.3143 55.2668 54.3143 61.5L64.3143 61.5C64.3143 49.7444 54.7539 40.1833 42.9983 40.1833L42.9983 50.1833ZM23.5657 61.5C23.5657 72.2221 32.2848 80.9141 42.9791 80.9141L42.9791 70.9141C37.7994 70.9141 33.5657 66.691 33.5657 61.5L23.5657 61.5ZM42.9791 80.9141C53.6777 80.9141 62.3925 72.1986 62.3925 61.5L52.3925 61.5C52.3925 66.6761 48.1544 70.9141 42.9791 70.9141L42.9791 80.9141ZM62.3925 61.5C62.3925 50.7779 53.6733 42.0859 42.9791 42.0859L42.9791 52.0859C48.1588 52.0859 52.3925 56.309 52.3925 61.5L62.3925 61.5ZM42.9791 42.0859C32.2848 42.0859 23.5657 50.7779 23.5657 61.5L33.5657 61.5C33.5657 56.309 37.7994 52.0859 42.9791 52.0859L42.9791 42.0859ZM63.1545 102.494L63.1545 122.058L73.1545 122.058L73.1545 102.494L63.1545 102.494ZM63.1545 122.058C63.1545 120.982 63.582 119.95 64.3431 119.189L71.4143 126.26C72.5286 125.145 73.1545 123.634 73.1545 122.058L63.1545 122.058ZM64.3431 119.189C65.1042 118.428 66.1364 118 67.2128 118L67.2128 128C68.7887 128 70.3 127.374 71.4143 126.26L64.3431 119.189ZM67.2128 118C68.2892 118 69.3215 118.428 70.0826 119.189L63.0113 126.26C64.1256 127.374 65.6369 128 67.2128 128L67.2128 118ZM70.0826 119.189C70.8436 119.95 71.2711 120.982 71.2711 122.058L61.2711 122.058C61.2711 123.634 61.8971 125.145 63.0113 126.26L70.0826 119.189ZM71.2711 122.058L71.2711 103.455L61.2711 103.455L61.2711 122.058L71.2711 122.058ZM66.2711 98.4545L20.8401 98.4545L20.8401 108.455L66.2711 108.455L66.2711 98.4545ZM15.8401 103.455L15.8401 122.058L25.8401 122.058L25.8401 103.455L15.8401 103.455ZM15.8401 122.058C15.8401 119.75 17.7218 118 19.8792 118L19.8792 128C23.1128 128 25.8401 125.404 25.8401 122.058L15.8401 122.058ZM19.8792 118C22.1219 118 23.9375 119.816 23.9375 122.058L13.9375 122.058C13.9375 125.338 16.5987 128 19.8792 128L19.8792 118ZM23.9375 122.058L23.9375 102.513L13.9375 102.513L13.9375 122.058L23.9375 122.058ZM23.9375 102.513C23.9375 104.755 22.1219 106.571 19.8792 106.571L19.8792 96.5711C16.5987 96.5711 13.9375 99.2327 13.9375 102.513L23.9375 102.513ZM19.8792 106.571L67.2128 106.571L67.2128 96.5711L19.8792 96.5711L19.8792 106.571ZM67.3979 106.568C64.9755 106.657 63.1545 104.698 63.1545 102.494L73.1545 102.494C73.1545 99.2512 70.4879 96.4464 67.0277 96.5745L67.3979 106.568Z" fill="#010792" mask="url(#path-5-inside-3_30031_8505)"/>
<mask id="path-7-inside-4_30031_8505" fill="white">
<path d="M58.6801 102.494C58.6801 102.744 58.5809 102.983 58.4043 103.16C58.2277 103.336 57.9881 103.436 57.7384 103.436C57.4886 103.436 57.2491 103.336 57.0725 103.16C56.8959 102.983 56.7967 102.744 56.7967 102.494C56.7967 97.6699 50.6086 93.7493 42.9983 93.7493C35.388 93.7493 29.1998 97.6699 29.1998 102.494C29.1998 102.744 29.1006 102.983 28.924 103.16C28.7474 103.336 28.5079 103.436 28.2582 103.436C28.0084 103.436 27.7689 103.336 27.5923 103.16C27.4157 102.983 27.3165 102.744 27.3165 102.494C27.3165 96.6321 34.3502 91.8466 42.9983 91.8466C51.6463 91.8466 58.6801 96.6321 58.6801 102.494ZM68.1545 0.961179L68.1545 20.5066C68.1545 20.7564 68.0553 20.9959 67.8787 21.1725C67.7021 21.3491 67.4626 21.4484 67.2128 21.4484L19.8792 21.4484C19.3603 21.4484 18.9375 21.0256 18.9375 20.5066L18.9375 0.961182C18.9375 0.711418 19.0367 0.471893 19.2133 0.295288C19.3899 0.118675 19.6294 0.0194549 19.8792 0.0194549C20.1289 0.0194549 20.3684 0.118675 20.545 0.295288C20.7216 0.471893 20.8208 0.711418 20.8208 0.961182L20.8208 19.5649L66.2519 19.5649L66.2519 0.96118C66.2519 0.442274 66.6747 0.0194529 67.1936 0.0194528C67.7317 0.0194528 68.1545 0.442274 68.1545 0.961179Z"/>
</mask>
<path d="M58.6801 102.494C58.6801 102.744 58.5809 102.983 58.4043 103.16C58.2277 103.336 57.9881 103.436 57.7384 103.436C57.4886 103.436 57.2491 103.336 57.0725 103.16C56.8959 102.983 56.7967 102.744 56.7967 102.494C56.7967 97.6699 50.6086 93.7493 42.9983 93.7493C35.388 93.7493 29.1998 97.6699 29.1998 102.494C29.1998 102.744 29.1006 102.983 28.924 103.16C28.7474 103.336 28.5079 103.436 28.2582 103.436C28.0084 103.436 27.7689 103.336 27.5923 103.16C27.4157 102.983 27.3165 102.744 27.3165 102.494C27.3165 96.6321 34.3502 91.8466 42.9983 91.8466C51.6463 91.8466 58.6801 96.6321 58.6801 102.494ZM68.1545 0.961179L68.1545 20.5066C68.1545 20.7564 68.0553 20.9959 67.8787 21.1725C67.7021 21.3491 67.4626 21.4484 67.2128 21.4484L19.8792 21.4484C19.3603 21.4484 18.9375 21.0256 18.9375 20.5066L18.9375 0.961182C18.9375 0.711418 19.0367 0.471893 19.2133 0.295288C19.3899 0.118675 19.6294 0.0194549 19.8792 0.0194549C20.1289 0.0194549 20.3684 0.118675 20.545 0.295288C20.7216 0.471893 20.8208 0.711418 20.8208 0.961182L20.8208 19.5649L66.2519 19.5649L66.2519 0.96118C66.2519 0.442274 66.6747 0.0194529 67.1936 0.0194528C67.7317 0.0194528 68.1545 0.442274 68.1545 0.961179Z" fill="#010792"/>
<path d="M57.7384 103.436L57.7384 108.436L57.7384 103.436ZM56.7967 102.494L51.7967 102.494L56.7967 102.494ZM27.3165 102.494L32.3165 102.494L27.3165 102.494ZM18.9375 0.961182L13.9375 0.961182L18.9375 0.961182ZM20.8208 19.5649L15.8208 19.5649L15.8208 24.5649L20.8208 24.5649L20.8208 19.5649ZM66.2519 19.5649L66.2519 24.5649L71.2519 24.5649L71.2519 19.5649L66.2519 19.5649ZM53.6801 102.494C53.6801 101.418 54.1076 100.385 54.8687 99.6243L61.9399 106.695C63.0542 105.581 63.6801 104.07 63.6801 102.494L53.6801 102.494ZM54.8687 99.6243C55.6297 98.8631 56.662 98.4355 57.7384 98.4355L57.7384 108.436C59.3143 108.436 60.8256 107.81 61.9399 106.695L54.8687 99.6243ZM57.7384 98.4355C58.8148 98.4355 59.8471 98.8632 60.6081 99.6243L53.5369 106.695C54.6512 107.809 56.1625 108.436 57.7384 108.436L57.7384 98.4355ZM60.6081 99.6243C61.3692 100.385 61.7967 101.418 61.7967 102.494L51.7967 102.494C51.7967 104.07 52.4226 105.581 53.5369 106.695L60.6081 99.6243ZM61.7967 102.494C61.7967 97.7653 58.7762 94.2111 55.4277 92.0892C52.0146 89.9263 47.606 88.7493 42.9983 88.7493L42.9983 98.7493C46.0008 98.7493 48.4915 99.5326 50.075 100.536C51.7231 101.58 51.7967 102.398 51.7967 102.494L61.7967 102.494ZM42.9983 88.7493C38.3906 88.7493 33.982 89.9263 30.5689 92.0892C27.2203 94.2111 24.1998 97.7653 24.1998 102.494L34.1998 102.494C34.1998 102.398 34.2735 101.58 35.9215 100.536C37.5051 99.5326 39.9957 98.7493 42.9983 98.7493L42.9983 88.7493ZM24.1998 102.494C24.1998 101.418 24.6273 100.385 25.3884 99.6243L32.4597 106.695C33.5739 105.581 34.1998 104.07 34.1998 102.494L24.1998 102.494ZM25.3884 99.6243C26.1495 98.8632 27.1818 98.4355 28.2582 98.4355L28.2582 108.436C29.8341 108.436 31.3454 107.81 32.4597 106.695L25.3884 99.6243ZM28.2582 98.4355C29.3346 98.4355 30.3669 98.8632 31.1279 99.6243L24.0567 106.695C25.171 107.809 26.6823 108.436 28.2582 108.436L28.2582 98.4355ZM31.1279 99.6243C31.889 100.385 32.3165 101.418 32.3165 102.494L22.3165 102.494C22.3165 104.07 22.9425 105.581 24.0567 106.695L31.1279 99.6243ZM32.3165 102.494C32.3165 101.718 32.7825 100.427 34.7242 99.1079C36.6343 97.8102 39.5476 96.8466 42.9983 96.8466L42.9983 86.8466C37.8009 86.8466 32.8733 88.2759 29.1046 90.8363C25.3674 93.3753 22.3165 97.4075 22.3165 102.494L32.3165 102.494ZM42.9983 96.8466C46.449 96.8466 49.3622 97.8102 51.2724 99.1079C53.2141 100.427 53.6801 101.718 53.6801 102.494L63.6801 102.494C63.6801 97.4075 60.6292 93.3753 56.892 90.8363C53.1233 88.2759 48.1956 86.8466 42.9983 86.8466L42.9983 96.8466ZM63.1545 0.96118L63.1545 20.5066L73.1545 20.5066L73.1545 0.961179L63.1545 0.96118ZM63.1545 20.5066C63.1545 19.4304 63.582 18.3982 64.3431 17.6371L71.4143 24.708C72.5286 23.5936 73.1545 22.0823 73.1545 20.5066L63.1545 20.5066ZM64.3431 17.6371C65.1042 16.8759 66.1365 16.4484 67.2128 16.4484L67.2128 26.4484C68.7886 26.4484 70.3 25.8224 71.4143 24.708L64.3431 17.6371ZM67.2128 16.4484L19.8792 16.4484L19.8792 26.4484L67.2128 26.4484L67.2128 16.4484ZM19.8792 16.4484C22.122 16.4484 23.9375 18.2644 23.9375 20.5066L13.9375 20.5066C13.9375 23.7867 16.5986 26.4484 19.8792 26.4484L19.8792 16.4484ZM23.9375 20.5066L23.9375 0.961181L13.9375 0.961182L13.9375 20.5066L23.9375 20.5066ZM23.9375 0.961181C23.9375 2.03746 23.51 3.06967 22.7489 3.83074L15.6777 -3.24017C14.5635 -2.12588 13.9375 -0.614624 13.9375 0.961182L23.9375 0.961181ZM22.7489 3.83074C21.9879 4.59178 20.9557 5.01945 19.8792 5.01945L19.8792 -4.98055C18.3032 -4.98055 16.7919 -4.35442 15.6777 -3.24017L22.7489 3.83074ZM19.8792 5.01945C18.8027 5.01945 17.7704 4.5918 17.0094 3.83074L24.0807 -3.24017C22.9664 -4.35444 21.4551 -4.98055 19.8792 -4.98055L19.8792 5.01945ZM17.0094 3.83074C16.2484 3.06963 15.8208 2.03741 15.8208 0.961182L25.8208 0.961181C25.8208 -0.614571 25.1949 -2.12585 24.0807 -3.24017L17.0094 3.83074ZM15.8208 0.961182L15.8208 19.5649L25.8208 19.5649L25.8208 0.961181L15.8208 0.961182ZM20.8208 24.5649L66.2519 24.5649L66.2519 14.5649L20.8208 14.5649L20.8208 24.5649ZM71.2519 19.5649L71.2519 0.961179L61.2519 0.96118L61.2519 19.5649L71.2519 19.5649ZM71.2519 0.961179C71.2519 3.20348 69.4363 5.01945 67.1936 5.01945L67.1936 -4.98055C63.9131 -4.98055 61.2519 -2.31894 61.2519 0.96118L71.2519 0.961179ZM67.1936 5.01945C65.0362 5.01945 63.1545 3.26916 63.1545 0.96118L73.1545 0.961179C73.1545 -2.38462 70.4272 -4.98055 67.1936 -4.98055L67.1936 5.01945Z" fill="#010792" mask="url(#path-7-inside-4_30031_8505)"/>
<mask id="path-9-inside-5_30031_8505" fill="white">
<path d="M58.6809 20.5064C58.6809 26.3681 51.6472 31.1536 42.9991 31.1536C34.3511 31.1536 27.3174 26.3873 27.3174 20.5064C27.3174 20.2566 27.4166 20.0171 27.5932 19.8405C27.7698 19.6639 28.0093 19.5647 28.259 19.5647C28.5088 19.5647 28.7483 19.6639 28.9249 19.8405C29.1015 20.0171 29.2007 20.2566 29.2007 20.5064C29.2007 25.3303 35.3889 29.2509 42.9991 29.2509C50.6094 29.2509 56.7976 25.3303 56.7976 20.5064C56.7976 20.2566 56.8968 20.0171 57.0734 19.8405C57.25 19.6639 57.4895 19.5647 57.7393 19.5647C57.989 19.5647 58.2285 19.6639 58.4051 19.8405C58.5817 20.0171 58.6809 20.2566 58.6809 20.5064ZM8.50306 122.058C8.50306 122.577 8.08026 123 7.54216 123C7.02328 123 6.60049 122.577 6.60049 122.058C6.60049 118.964 4.08294 116.446 1.00808 116.446C0.489199 116.446 0.0664059 116.024 0.0664059 115.505C0.0664059 114.986 0.489199 114.544 1.00808 114.544C5.13993 114.544 8.50306 117.907 8.50306 122.058ZM85.9511 115.485C85.9511 115.735 85.8519 115.975 85.6753 116.151C85.4987 116.328 85.2592 116.427 85.0094 116.427C81.9154 116.427 79.3978 118.945 79.3978 122.039C79.3786 122.577 78.9558 123 78.4369 123C77.918 123 77.4952 122.577 77.4952 122.058C77.4952 117.926 80.8584 114.544 85.0094 114.544C85.5283 114.544 85.9511 114.967 85.9511 115.485ZM8.50305 0.941719C8.50305 5.07375 5.13992 8.45625 1.00808 8.45625C0.758329 8.45625 0.51881 8.35703 0.342211 8.18043C0.165613 8.00381 0.0664012 7.76429 0.0664012 7.51453C0.0664012 7.26477 0.165613 7.02525 0.342211 6.84864C0.51881 6.67203 0.758329 6.57281 1.00808 6.57281C4.08294 6.57281 6.60048 4.05515 6.60048 0.960937C6.60048 0.442032 7.02327 0.0192181 7.54216 0.0192181C8.08026 -3.50297e-07 8.50305 0.422813 8.50305 0.941719ZM85.9511 7.51453C85.9511 7.76429 85.8519 8.00381 85.6753 8.18042C85.4987 8.35703 85.2592 8.45625 85.0094 8.45625C80.8776 8.45625 77.4952 5.09297 77.4952 0.960934C77.4952 0.442028 77.918 -3.403e-06 78.4369 -3.42568e-06C78.9558 -3.44836e-06 79.3786 0.403592 79.3786 0.941716C79.3786 4.05516 81.8961 6.55359 84.9902 6.55359C85.5283 6.57281 85.9511 6.99562 85.9511 7.51453Z"/>
</mask>
<path d="M58.6809 20.5064C58.6809 26.3681 51.6472 31.1536 42.9991 31.1536C34.3511 31.1536 27.3174 26.3873 27.3174 20.5064C27.3174 20.2566 27.4166 20.0171 27.5932 19.8405C27.7698 19.6639 28.0093 19.5647 28.259 19.5647C28.5088 19.5647 28.7483 19.6639 28.9249 19.8405C29.1015 20.0171 29.2007 20.2566 29.2007 20.5064C29.2007 25.3303 35.3889 29.2509 42.9991 29.2509C50.6094 29.2509 56.7976 25.3303 56.7976 20.5064C56.7976 20.2566 56.8968 20.0171 57.0734 19.8405C57.25 19.6639 57.4895 19.5647 57.7393 19.5647C57.989 19.5647 58.2285 19.6639 58.4051 19.8405C58.5817 20.0171 58.6809 20.2566 58.6809 20.5064ZM8.50306 122.058C8.50306 122.577 8.08026 123 7.54216 123C7.02328 123 6.60049 122.577 6.60049 122.058C6.60049 118.964 4.08294 116.446 1.00808 116.446C0.489199 116.446 0.0664059 116.024 0.0664059 115.505C0.0664059 114.986 0.489199 114.544 1.00808 114.544C5.13993 114.544 8.50306 117.907 8.50306 122.058ZM85.9511 115.485C85.9511 115.735 85.8519 115.975 85.6753 116.151C85.4987 116.328 85.2592 116.427 85.0094 116.427C81.9154 116.427 79.3978 118.945 79.3978 122.039C79.3786 122.577 78.9558 123 78.4369 123C77.918 123 77.4952 122.577 77.4952 122.058C77.4952 117.926 80.8584 114.544 85.0094 114.544C85.5283 114.544 85.9511 114.967 85.9511 115.485ZM8.50305 0.941719C8.50305 5.07375 5.13992 8.45625 1.00808 8.45625C0.758329 8.45625 0.51881 8.35703 0.342211 8.18043C0.165613 8.00381 0.0664012 7.76429 0.0664012 7.51453C0.0664012 7.26477 0.165613 7.02525 0.342211 6.84864C0.51881 6.67203 0.758329 6.57281 1.00808 6.57281C4.08294 6.57281 6.60048 4.05515 6.60048 0.960937C6.60048 0.442032 7.02327 0.0192181 7.54216 0.0192181C8.08026 -3.50297e-07 8.50305 0.422813 8.50305 0.941719ZM85.9511 7.51453C85.9511 7.76429 85.8519 8.00381 85.6753 8.18042C85.4987 8.35703 85.2592 8.45625 85.0094 8.45625C80.8776 8.45625 77.4952 5.09297 77.4952 0.960934C77.4952 0.442028 77.918 -3.403e-06 78.4369 -3.42568e-06C78.9558 -3.44836e-06 79.3786 0.403592 79.3786 0.941716C79.3786 4.05516 81.8961 6.55359 84.9902 6.55359C85.5283 6.57281 85.9511 6.99562 85.9511 7.51453Z" fill="#010792"/>
<path d="M27.3174 20.5064L22.3174 20.5064L27.3174 20.5064ZM56.7976 20.5064L61.7976 20.5064L56.7976 20.5064ZM79.3978 122.039L84.3946 122.218L84.3978 122.128L84.3978 122.039L79.3978 122.039ZM1.00808 8.45625L1.00808 3.45625L1.00808 8.45625ZM7.54216 0.0192181L7.54216 5.01922L7.63142 5.01922L7.72062 5.01603L7.54216 0.0192181ZM84.9902 6.55359L85.1687 1.55677L85.0795 1.55359L84.9902 1.55359L84.9902 6.55359ZM53.6809 20.5064C53.6809 21.2818 53.2149 22.5732 51.2732 23.8923C49.3631 25.1901 46.4498 26.1536 42.9991 26.1536L42.9991 36.1536C48.1965 36.1536 53.1241 34.7244 56.8929 32.1639C60.6301 29.625 63.6809 25.5927 63.6809 20.5064L53.6809 20.5064ZM42.9991 26.1536C39.5441 26.1536 36.6308 25.1927 34.7227 23.8979C32.7864 22.5841 32.3174 21.2943 32.3174 20.5064L22.3174 20.5064C22.3174 25.5995 25.3652 29.6333 29.1078 32.1728C32.8785 34.7314 37.8061 36.1536 42.9991 36.1536L42.9991 26.1536ZM32.3174 20.5064C32.3174 21.5827 31.8898 22.6149 31.1288 23.376L24.0576 16.3051C22.9433 17.4193 22.3174 18.9306 22.3174 20.5064L32.3174 20.5064ZM31.1288 23.376C30.3677 24.1371 29.3354 24.5647 28.259 24.5647L28.259 14.5647C26.6831 14.5647 25.1718 15.1907 24.0576 16.3051L31.1288 23.376ZM28.259 24.5647C27.1827 24.5647 26.1504 24.1371 25.3893 23.376L32.4605 16.3051C31.3462 15.1907 29.8349 14.5647 28.259 14.5647L28.259 24.5647ZM25.3893 23.376C24.6282 22.6149 24.2007 21.5826 24.2007 20.5064L34.2007 20.5064C34.2007 18.9307 33.5748 17.4194 32.4605 16.3051L25.3893 23.376ZM24.2007 20.5064C24.2007 25.2349 27.2212 28.7891 30.5698 30.9111C33.9829 33.0739 38.3914 34.2509 42.9991 34.2509L42.9991 24.2509C39.9966 24.2509 37.5059 23.4677 35.9224 22.4642C34.2743 21.4199 34.2007 20.6018 34.2007 20.5064L24.2007 20.5064ZM42.9991 34.2509C47.6069 34.2509 52.0154 33.0739 55.4285 30.9111C58.7771 28.7891 61.7976 25.2349 61.7976 20.5064L51.7976 20.5064C51.7976 20.6018 51.724 21.4199 50.0759 22.4642C48.4924 23.4677 46.0017 24.2509 42.9991 24.2509L42.9991 34.2509ZM61.7976 20.5064C61.7976 21.5826 61.3701 22.6149 60.609 23.376L53.5378 16.3051C52.4235 17.4194 51.7976 18.9307 51.7976 20.5064L61.7976 20.5064ZM60.609 23.376C59.8479 24.1371 58.8156 24.5647 57.7393 24.5647L57.7393 14.5647C56.1634 14.5647 54.652 15.1907 53.5378 16.3051L60.609 23.376ZM57.7393 24.5647C56.6629 24.5647 55.6306 24.1371 54.8695 23.376L61.9407 16.3051C60.8264 15.1907 59.3151 14.5647 57.7393 14.5647L57.7393 24.5647ZM54.8695 23.376C54.1084 22.6149 53.6809 21.5826 53.6809 20.5064L63.6809 20.5064C63.6809 18.9307 63.055 17.4194 61.9407 16.3051L54.8695 23.376ZM3.50306 122.058C3.50306 119.75 5.38478 118 7.54216 118L7.54216 128C10.7757 128 13.5031 125.404 13.5031 122.058L3.50306 122.058ZM7.54216 118C9.78492 118 11.6005 119.816 11.6005 122.058L1.60049 122.058C1.60049 125.338 4.26164 128 7.54216 128L7.54216 118ZM11.6005 122.058C11.6005 116.214 6.85573 111.446 1.00808 111.446L1.00808 121.446C1.31016 121.446 1.60049 121.714 1.60049 122.058L11.6005 122.058ZM1.00808 111.446C3.25084 111.446 5.06641 113.262 5.06641 115.505L-4.93359 115.505C-4.93359 118.785 -2.27244 121.446 1.00808 121.446L1.00808 111.446ZM5.06641 115.505C5.06641 117.615 3.38086 119.544 1.00808 119.544L1.00808 109.544C-2.40246 109.544 -4.93359 112.356 -4.93359 115.505L5.06641 115.505ZM1.00808 119.544C2.36996 119.544 3.50306 120.66 3.50306 122.058L13.5031 122.058C13.5031 115.154 7.90989 109.544 1.00808 109.544L1.00808 119.544ZM80.9511 115.485C80.9511 114.409 81.3786 113.377 82.1397 112.616L89.2109 119.687C90.3252 118.572 90.9511 117.061 90.9511 115.485L80.9511 115.485ZM82.1397 112.616C82.9007 111.855 83.933 111.427 85.0094 111.427L85.0094 121.427C86.5853 121.427 88.0966 120.801 89.2109 119.687L82.1397 112.616ZM85.0094 111.427C79.1537 111.427 74.3978 116.184 74.3978 122.039L84.3978 122.039C84.3978 121.706 84.677 121.427 85.0094 121.427L85.0094 111.427ZM74.401 121.861C74.4719 119.875 76.0998 118 78.4369 118L78.4369 128C81.8118 128 84.2853 125.279 84.3946 122.218L74.401 121.861ZM78.4369 118C80.6797 118 82.4952 119.816 82.4952 122.058L72.4952 122.058C72.4952 125.338 75.1564 128 78.4369 128L78.4369 118ZM82.4952 122.058C82.4952 120.679 83.6283 119.544 85.0094 119.544L85.0094 109.544C78.0884 109.544 72.4952 115.173 72.4952 122.058L82.4952 122.058ZM85.0094 119.544C82.7666 119.544 80.9511 117.728 80.9511 115.485L90.9511 115.485C90.9511 112.205 88.29 109.544 85.0094 109.544L85.0094 119.544ZM3.50305 0.941719C3.50305 2.32922 2.36164 3.45625 1.00808 3.45625L1.00808 13.4563C7.9182 13.4563 13.5031 7.81829 13.5031 0.941718L3.50305 0.941719ZM1.00808 3.45625C2.08455 3.45625 3.11681 3.88392 3.87783 4.64497L-3.1934 11.7159C-2.07919 12.8301 -0.567897 13.4563 1.00808 13.4563L1.00808 3.45625ZM3.87783 4.64497C4.63888 5.40606 5.0664 6.43828 5.0664 7.51453L-4.9336 7.51453C-4.9336 9.09031 -4.30765 10.6016 -3.1934 11.7159L3.87783 4.64497ZM5.0664 7.51453C5.0664 8.59079 4.63888 9.623 3.87783 10.3841L-3.1934 3.31319C-4.30765 4.42748 -4.9336 5.93876 -4.9336 7.51453L5.0664 7.51453ZM3.87783 10.3841C3.11681 11.1451 2.08456 11.5728 1.00808 11.5728L1.00808 1.57281C-0.567898 1.57281 -2.07919 2.19892 -3.1934 3.31319L3.87783 10.3841ZM1.00808 11.5728C6.85572 11.5728 11.6005 6.80521 11.6005 0.960937L1.60048 0.960937C1.60048 1.30511 1.31015 1.57281 1.00808 1.57281L1.00808 11.5728ZM11.6005 0.960937C11.6005 3.20322 9.78494 5.01922 7.54216 5.01922L7.54216 -4.98078C4.26161 -4.98078 1.60048 -2.31915 1.60048 0.960937L11.6005 0.960937ZM7.72062 5.01603C5.39279 5.09917 3.50305 3.21771 3.50305 0.941719L13.5031 0.941718C13.5031 -2.37209 10.7677 -5.09918 7.36369 -4.9776L7.72062 5.01603ZM80.9511 7.51453C80.9511 6.4383 81.3786 5.40607 82.1397 4.64497L89.2109 11.7159C90.3252 10.6016 90.9511 9.09027 90.9511 7.51453L80.9511 7.51453ZM82.1397 4.64497C82.9007 3.88392 83.9329 3.45625 85.0094 3.45625L85.0094 13.4562C86.5854 13.4562 88.0967 12.8301 89.2109 11.7159L82.1397 4.64497ZM85.0094 3.45625C83.6226 3.45625 82.4952 2.31511 82.4952 0.960934L72.4952 0.960934C72.4952 7.87082 78.1326 13.4562 85.0094 13.4562L85.0094 3.45625ZM82.4952 0.960934C82.4952 3.07136 80.8097 5 78.4369 5L78.4369 -5C75.0263 -5 72.4952 -2.1873 72.4952 0.960934L82.4952 0.960934ZM78.4369 5C76.2613 5 74.3786 3.23143 74.3786 0.941716L84.3786 0.941715C84.3786 -2.42424 81.6503 -5 78.4369 -5L78.4369 5ZM74.3786 0.941716C74.3786 6.82752 79.1457 11.5536 84.9902 11.5536L84.9902 1.55359C84.6466 1.55359 84.3786 1.2828 84.3786 0.941715L74.3786 0.941716ZM84.8117 11.5504C82.8262 11.4795 80.9511 9.85122 80.9511 7.51453L90.9511 7.51453C90.9511 4.14003 88.2305 1.66613 85.1687 1.55677L84.8117 11.5504Z" fill="#010792" mask="url(#path-9-inside-5_30031_8505)"/>
</g>
<defs>
<clipPath id="clip0_30031_8505">
<rect width="123" height="86" fill="white" transform="translate(0 123) rotate(-90)"/>
</clipPath>
</defs>
</svg>
