<svg width="865" height="619" viewBox="0 0 865 619" fill="none" xmlns="http://www.w3.org/2000/svg">
<path d="M20.7387 2.3584H844.261V616.642H16.4023L20.7387 2.3584Z" stroke="#010792" stroke-miterlimit="10"/>
<path d="M137.441 2.3584V616.642" stroke="#010792" stroke-miterlimit="10"/>
<path d="M433.584 2.3584V616.642" stroke="#010792" stroke-miterlimit="10"/>
<path d="M729.727 2.3584V616.642" stroke="#010792" stroke-miterlimit="10"/>
<path d="M19.75 144.043H844.262" stroke="#010792" stroke-miterlimit="10"/>
<path d="M19.75 245.685H844.262" stroke="#010792" stroke-miterlimit="10"/>
<path d="M19.75 371.146H844.262" stroke="#010792" stroke-miterlimit="10"/>
<path d="M19.75 473.872H844.262" stroke="#010792" stroke-miterlimit="10"/>
<path d="M286.621 2.3584V144.044" stroke="#010792" stroke-miterlimit="10"/>
<path d="M576.258 2.3584V144.044" stroke="#010792" stroke-miterlimit="10"/>
<path d="M286.621 473.872V615.557" stroke="#010792" stroke-miterlimit="10"/>
<path d="M576.258 473.872V615.557" stroke="#010792" stroke-miterlimit="10"/>
<path d="M60.709 245.685V371.145" stroke="#010792" stroke-miterlimit="10"/>
<path d="M807.543 245.685V371.145" stroke="#010792" stroke-miterlimit="10"/>
<path d="M98.1328 306.529C98.9137 306.529 99.5468 305.895 99.5468 305.114C99.5468 304.332 98.9137 303.699 98.1328 303.699C97.3518 303.699 96.7188 304.332 96.7188 305.114C96.7188 305.895 97.3518 306.529 98.1328 306.529Z" stroke="#010792" stroke-miterlimit="10"/>
<path d="M772.006 306.623C772.969 306.623 773.75 305.842 773.75 304.878C773.75 303.914 772.969 303.133 772.006 303.133C771.042 303.133 770.262 303.914 770.262 304.878C770.262 305.842 771.042 306.623 772.006 306.623Z" stroke="#010792" stroke-miterlimit="10"/>
<path d="M433.537 307.849C435.281 307.849 436.695 306.434 436.695 304.689C436.695 302.944 435.281 301.529 433.537 301.529C431.793 301.529 430.379 302.944 430.379 304.689C430.379 306.434 431.793 307.849 433.537 307.849Z" stroke="#010792" stroke-miterlimit="10"/>
<path d="M435.092 366.146C466.981 366.146 492.831 340.278 492.831 308.368C492.831 276.458 466.981 250.59 435.092 250.59C403.204 250.59 377.354 276.458 377.354 308.368C377.354 340.278 403.204 366.146 435.092 366.146Z" stroke="#010792" stroke-miterlimit="10"/>
<path d="M729.915 363.835C712.193 353.741 700.174 334.12 700.174 311.575C700.174 289.03 712.193 269.409 729.915 259.316" stroke="#010792" stroke-miterlimit="10"/>
<path d="M137.441 259.316C156.436 269.409 169.304 289.03 169.304 311.575C169.304 334.12 156.436 353.741 137.441 363.835" stroke="#010792" stroke-miterlimit="10"/>
<path d="M844.262 290.209H862.644V329.687H844.262" stroke="#010792" stroke-miterlimit="10"/>
<path d="M20.7396 329.262H2.35742V289.785H20.7396" stroke="#010792" stroke-miterlimit="10"/>
<path d="M19.5137 14.6686C19.5137 14.6686 32.4755 17.4985 33.8424 2.3584" stroke="#010792" stroke-miterlimit="10"/>
<path d="M832.006 3.30176C832.006 3.30176 829.178 16.2723 844.308 17.6401" stroke="#010792" stroke-miterlimit="10"/>
<path d="M29.9308 616.642C29.9308 616.642 32.7589 603.672 17.6289 602.304" stroke="#010792" stroke-miterlimit="10"/>
<path d="M844.26 602.398C844.26 602.398 831.299 599.568 829.932 614.708" stroke="#010792" stroke-miterlimit="10"/>
</svg>
