<svg width="86" height="86" viewBox="0 0 86 86" fill="none" xmlns="http://www.w3.org/2000/svg">
<g clip-path="url(#clip0_30087_6916)">
<mask id="path-1-inside-1_30087_6916" fill="white">
<path d="M1.39837 85.3414L1.39838 0.658535C1.39838 0.483879 1.49612 0.316377 1.67013 0.192877C1.84412 0.0693765 2.08012 -5.24646e-06 2.32619 -5.23107e-06L85.0722 -5.80046e-08C85.5834 -2.60429e-08 86 0.295671 86 0.65854L86 85.3415C86 85.7043 85.5834 86 85.0722 86L2.32619 86C1.81495 86 1.39837 85.7043 1.39837 85.3414ZM3.27295 1.33052L3.27295 84.6829L84.1444 84.6829L84.1444 1.33052L3.27295 1.33052Z"/>
</mask>
<path d="M1.39837 85.3414L1.39838 0.658535C1.39838 0.483879 1.49612 0.316377 1.67013 0.192877C1.84412 0.0693765 2.08012 -5.24646e-06 2.32619 -5.23107e-06L85.0722 -5.80046e-08C85.5834 -2.60429e-08 86 0.295671 86 0.65854L86 85.3415C86 85.7043 85.5834 86 85.0722 86L2.32619 86C1.81495 86 1.39837 85.7043 1.39837 85.3414ZM3.27295 1.33052L3.27295 84.6829L84.1444 84.6829L84.1444 1.33052L3.27295 1.33052Z" fill="#010792"/>
<path d="M2.32619 -5.23107e-06L2.32619 -5.00001L2.32619 -5.23107e-06ZM3.27295 1.33052L3.27295 -3.66948L-1.72705 -3.66949L-1.72705 1.33051L3.27295 1.33052ZM3.27295 84.6829L-1.72705 84.6829L-1.72705 89.6829L3.27295 89.6829L3.27295 84.6829ZM84.1444 84.6829L84.1444 89.6829L89.1444 89.6829L89.1444 84.6829L84.1444 84.6829ZM84.1444 1.33052L89.1444 1.33052L89.1444 -3.66948L84.1444 -3.66948L84.1444 1.33052ZM6.39837 85.3414L6.39838 0.658535L-3.60162 0.658535L-3.60163 85.3414L6.39837 85.3414ZM6.39838 0.658535C6.39838 2.47082 5.38062 3.6907 4.56412 4.27022L-1.22388 -3.88447C-2.38837 -3.05794 -3.60162 -1.50306 -3.60162 0.658535L6.39838 0.658535ZM4.56412 4.27022C3.76763 4.83556 2.95273 4.99999 2.32619 4.99999L2.32619 -5.00001C1.20752 -5.00001 -0.0793761 -4.69681 -1.22388 -3.88447L4.56412 4.27022ZM2.32619 4.99999L85.0722 5L85.0722 -5L2.32619 -5.00001L2.32619 4.99999ZM85.0722 5C84.4078 5 83.6021 4.81583 82.8338 4.27054C82.0807 3.736 81 2.53227 81 0.65854L91 0.658541C91 -1.57805 89.711 -3.11106 88.6218 -3.88415C87.5175 -4.66799 86.2478 -5 85.0722 -5L85.0722 5ZM81 0.65854L81 85.3415L91 85.3415L91 0.658541L81 0.65854ZM81 85.3415C81 83.4677 82.0807 82.264 82.8338 81.7295C83.602 81.1842 84.4078 81 85.0722 81L85.0722 91C86.2478 91 87.5175 90.668 88.6218 89.8841C89.711 89.1111 91 87.578 91 85.3415L81 85.3415ZM85.0722 81L2.32619 81L2.32619 91L85.0722 91L85.0722 81ZM2.32619 81C2.99058 81 3.79632 81.1842 4.56457 81.7294C5.31766 82.264 6.39837 83.4677 6.39837 85.3414L-3.60163 85.3414C-3.60163 87.5781 -2.31262 89.1111 -1.22343 89.8841C-0.11909 90.668 1.15056 91 2.32619 91L2.32619 81ZM-1.72705 1.33051L-1.72705 84.6829L8.27295 84.6829L8.27295 1.33052L-1.72705 1.33051ZM3.27295 89.6829L84.1444 89.6829L84.1444 79.6829L3.27295 79.6829L3.27295 89.6829ZM89.1444 84.6829L89.1444 1.33052L79.1444 1.33052L79.1444 84.6829L89.1444 84.6829ZM84.1444 -3.66948L3.27295 -3.66948L3.27295 6.33051L84.1444 6.33052L84.1444 -3.66948Z" fill="#010792" mask="url(#path-1-inside-1_30087_6916)"/>
<mask id="path-3-inside-2_30087_6916" fill="white">
<path d="M1.1081 -1.03754C1.1081 -1.39071 1.20618 -1.72941 1.38078 -1.97913C1.55538 -2.22886 1.79219 -2.36915 2.0391 -2.36915L85.069 -2.36914C85.3159 -2.36914 85.5527 -2.22885 85.7273 -1.97913C85.9019 -1.7294 86 -1.3907 86 -1.03754C86 -0.684374 85.9019 -0.345678 85.7273 -0.0959537C85.5527 0.15377 85.3159 0.294071 85.069 0.294071L2.0391 0.294066C1.52611 0.294066 1.1081 -0.303802 1.1081 -1.03754Z"/>
</mask>
<path d="M1.1081 -1.03754C1.1081 -1.39071 1.20618 -1.72941 1.38078 -1.97913C1.55538 -2.22886 1.79219 -2.36915 2.0391 -2.36915L85.069 -2.36914C85.3159 -2.36914 85.5527 -2.22885 85.7273 -1.97913C85.9019 -1.7294 86 -1.3907 86 -1.03754C86 -0.684374 85.9019 -0.345678 85.7273 -0.0959537C85.5527 0.15377 85.3159 0.294071 85.069 0.294071L2.0391 0.294066C1.52611 0.294066 1.1081 -0.303802 1.1081 -1.03754Z" fill="#010792"/>
<path d="M6.1081 -1.03754C6.1081 -0.533891 5.9807 0.167661 5.47857 0.885859L-2.717 -4.84412C-3.56833 -3.62648 -3.8919 -2.24752 -3.8919 -1.03754L6.1081 -1.03754ZM5.47857 0.885859C4.96471 1.62083 3.81295 2.63085 2.0391 2.63085L2.0391 -7.36915C-0.228577 -7.36915 -1.85395 -6.07854 -2.717 -4.84412L5.47857 0.885859ZM2.0391 2.63085L85.069 2.63086L85.069 -7.36914L2.0391 -7.36915L2.0391 2.63085ZM85.069 2.63086C83.2951 2.63086 82.1434 1.6208 81.6295 0.885864L89.8251 -4.84412C88.9621 -6.0785 87.3367 -7.36914 85.069 -7.36914L85.069 2.63086ZM81.6295 0.885864C81.1274 0.167679 81 -0.533866 81 -1.03754L91 -1.03754C91 -2.24753 90.6764 -3.62648 89.8251 -4.84412L81.6295 0.885864ZM81 -1.03754C81 -1.54123 81.1274 -2.24277 81.6295 -2.96094L89.8251 2.76904C90.6764 1.55142 91 0.172477 91 -1.03754L81 -1.03754ZM81.6295 -2.96094C82.1433 -3.69577 83.295 -4.70593 85.069 -4.70593L85.069 5.29407C87.3368 5.29407 88.9622 4.00331 89.8251 2.76904L81.6295 -2.96094ZM85.069 -4.70593L2.0391 -4.70593L2.0391 5.29407L85.069 5.29407L85.069 -4.70593ZM2.0391 -4.70593C3.87186 -4.70593 5.00859 -3.63442 5.47901 -2.96158C5.96347 -2.26866 6.1081 -1.57436 6.1081 -1.03754L-3.8919 -1.03754C-3.8919 0.233016 -3.53827 1.59312 -2.71655 2.7684C-1.90888 3.92362 -0.306648 5.29407 2.0391 5.29407L2.0391 -4.70593Z" fill="#010792" mask="url(#path-3-inside-2_30087_6916)"/>
<mask id="path-5-inside-3_30087_6916" fill="white">
<path d="M28.0498 -59.0043C28.0498 -59.3575 28.1479 -59.6962 28.3225 -59.9459C28.4971 -60.1956 28.7339 -60.3359 28.9808 -60.3359C29.2278 -60.3359 29.4646 -60.1956 29.6392 -59.9459C29.8138 -59.6962 29.9118 -59.3575 29.9118 -59.0043C29.9118 -52.1833 36.0298 -46.6394 43.5538 -46.6394C51.0778 -46.6394 57.1958 -52.1833 57.1958 -59.0043C57.1958 -59.3575 57.2939 -59.6962 57.4685 -59.9459C57.6431 -60.1956 57.8799 -60.3359 58.1268 -60.3359C58.3737 -60.3359 58.6105 -60.1956 58.7851 -59.9459C58.9597 -59.6962 59.0578 -59.3575 59.0578 -59.0043C59.0578 -50.7158 52.1038 -43.949 43.5538 -43.949C35.0038 -43.949 28.0498 -50.7158 28.0498 -59.0043ZM18.6829 84.5644L18.6829 56.9268C18.6829 56.5737 18.7809 56.235 18.9555 55.9852C19.1301 55.7355 19.3669 55.5952 19.6139 55.5952L66.4108 55.5952C66.9238 55.5952 67.3418 56.1931 67.3418 56.9268L67.3418 84.5644C67.3418 84.9176 67.2437 85.2563 67.0691 85.506C66.8945 85.7557 66.6577 85.896 66.4108 85.896C66.1639 85.896 65.9271 85.7557 65.7525 85.506C65.5779 85.2563 65.4798 84.9176 65.4798 84.5644L65.4798 58.2584L20.5639 58.2584L20.5639 84.5644C20.5639 85.2982 20.1459 85.896 19.6329 85.896C19.1009 85.896 18.6829 85.2982 18.6829 84.5644Z"/>
</mask>
<path d="M28.0498 -59.0043C28.0498 -59.3575 28.1479 -59.6962 28.3225 -59.9459C28.4971 -60.1956 28.7339 -60.3359 28.9808 -60.3359C29.2278 -60.3359 29.4646 -60.1956 29.6392 -59.9459C29.8138 -59.6962 29.9118 -59.3575 29.9118 -59.0043C29.9118 -52.1833 36.0298 -46.6394 43.5538 -46.6394C51.0778 -46.6394 57.1958 -52.1833 57.1958 -59.0043C57.1958 -59.3575 57.2939 -59.6962 57.4685 -59.9459C57.6431 -60.1956 57.8799 -60.3359 58.1268 -60.3359C58.3737 -60.3359 58.6105 -60.1956 58.7851 -59.9459C58.9597 -59.6962 59.0578 -59.3575 59.0578 -59.0043C59.0578 -50.7158 52.1038 -43.949 43.5538 -43.949C35.0038 -43.949 28.0498 -50.7158 28.0498 -59.0043ZM18.6829 84.5644L18.6829 56.9268C18.6829 56.5737 18.7809 56.235 18.9555 55.9852C19.1301 55.7355 19.3669 55.5952 19.6139 55.5952L66.4108 55.5952C66.9238 55.5952 67.3418 56.1931 67.3418 56.9268L67.3418 84.5644C67.3418 84.9176 67.2437 85.2563 67.0691 85.506C66.8945 85.7557 66.6577 85.896 66.4108 85.896C66.1639 85.896 65.9271 85.7557 65.7525 85.506C65.5779 85.2563 65.4798 84.9176 65.4798 84.5644L65.4798 58.2584L20.5639 58.2584L20.5639 84.5644C20.5639 85.2982 20.1459 85.896 19.6329 85.896C19.1009 85.896 18.6829 85.2982 18.6829 84.5644Z" fill="#010792"/>
<path d="M28.9808 -60.3359L28.9808 -65.3359L28.9808 -60.3359ZM29.9118 -59.0043L34.9118 -59.0043L29.9118 -59.0043ZM59.0578 -59.0043L54.0578 -59.0043L59.0578 -59.0043ZM67.3418 84.5644L72.3418 84.5644L67.3418 84.5644ZM65.4798 58.2584L70.4798 58.2584L70.4798 53.2584L65.4798 53.2584L65.4798 58.2584ZM20.5639 58.2584L20.5639 53.2584L15.5639 53.2584L15.5639 58.2584L20.5639 58.2584ZM33.0498 -59.0043C33.0498 -58.5007 32.9224 -57.7991 32.4203 -57.0809L24.2247 -62.8109C23.3734 -61.5933 23.0498 -60.2143 23.0498 -59.0043L33.0498 -59.0043ZM32.4203 -57.0809C31.9065 -56.346 30.7547 -55.3359 28.9808 -55.3359L28.9808 -65.3359C26.7131 -65.3359 25.0878 -64.0453 24.2247 -62.8109L32.4203 -57.0809ZM28.9808 -55.3359C27.2069 -55.3359 26.0552 -56.346 25.5414 -57.0809L33.7369 -62.8109C32.8739 -64.0453 31.2486 -65.3359 28.9808 -65.3359L28.9808 -55.3359ZM25.5414 -57.0809C25.0392 -57.7991 24.9118 -58.5007 24.9118 -59.0043L34.9118 -59.0043C34.9118 -60.2143 34.5883 -61.5933 33.7369 -62.8109L25.5414 -57.0809ZM24.9118 -59.0043C24.9118 -48.9704 33.7426 -41.6394 43.5538 -41.6394L43.5538 -51.6394C38.3171 -51.6394 34.9118 -55.3961 34.9118 -59.0043L24.9118 -59.0043ZM43.5538 -41.6394C53.3651 -41.6394 62.1958 -48.9704 62.1958 -59.0043L52.1958 -59.0043C52.1958 -55.3961 48.7905 -51.6394 43.5538 -51.6394L43.5538 -41.6394ZM62.1958 -59.0043C62.1958 -58.5007 62.0684 -57.7991 61.5663 -57.0809L53.3707 -62.8109C52.5194 -61.5933 52.1958 -60.2143 52.1958 -59.0043L62.1958 -59.0043ZM61.5663 -57.0809C61.0525 -56.346 59.9007 -55.3359 58.1268 -55.3359L58.1268 -65.3359C55.8591 -65.3359 54.2337 -64.0453 53.3707 -62.8109L61.5663 -57.0809ZM58.1268 -55.3359C56.3529 -55.3359 55.2011 -56.346 54.6873 -57.0809L62.8829 -62.8109C62.0199 -64.0453 60.3946 -65.3359 58.1268 -65.3359L58.1268 -55.3359ZM54.6873 -57.0809C54.1852 -57.7991 54.0578 -58.5006 54.0578 -59.0043L64.0578 -59.0043C64.0578 -60.2144 63.7342 -61.5933 62.8829 -62.8109L54.6873 -57.0809ZM54.0578 -59.0043C54.0578 -53.6116 49.4788 -48.949 43.5538 -48.949L43.5538 -38.949C54.7289 -38.949 64.0578 -47.8199 64.0578 -59.0043L54.0578 -59.0043ZM43.5538 -48.949C37.6289 -48.949 33.0498 -53.6116 33.0498 -59.0043L23.0498 -59.0043C23.0498 -47.8199 32.3788 -38.9491 43.5538 -38.949L43.5538 -48.949ZM23.6829 84.5644L23.6829 56.9268L13.6829 56.9268L13.6829 84.5644L23.6829 84.5644ZM23.6829 56.9268C23.6829 57.4305 23.5555 58.132 23.0533 58.8502L14.8578 53.1202C14.0064 54.3379 13.6829 55.7169 13.6829 56.9268L23.6829 56.9268ZM23.0533 58.8502C22.5395 59.5852 21.3877 60.5952 19.6139 60.5952L19.6139 50.5952C17.3462 50.5952 15.7208 51.8858 14.8578 53.1202L23.0533 58.8502ZM19.6139 60.5952L66.4108 60.5952L66.4108 50.5952L19.6139 50.5952L19.6139 60.5952ZM66.4108 60.5952C64.578 60.5952 63.4413 59.5237 62.9709 58.8509C62.4864 58.1579 62.3418 57.4636 62.3418 56.9268L72.3418 56.9268C72.3418 55.6563 71.9882 54.2962 71.1665 53.1209C70.3588 51.9657 68.7566 50.5952 66.4108 50.5952L66.4108 60.5952ZM62.3418 56.9268L62.3418 84.5644L72.3418 84.5644L72.3418 56.9268L62.3418 56.9268ZM62.3418 84.5644C62.3418 84.0607 62.4692 83.3592 62.9713 82.641L71.1669 88.371C72.0182 87.1534 72.3418 85.7745 72.3418 84.5644L62.3418 84.5644ZM62.9713 82.641C63.4851 81.9062 64.6368 80.896 66.4108 80.896L66.4108 90.896C68.6786 90.896 70.304 89.6053 71.1669 88.371L62.9713 82.641ZM66.4108 80.896C68.1848 80.896 69.3365 81.9062 69.8503 82.641L61.6547 88.371C62.5176 89.6053 64.143 90.896 66.4108 90.896L66.4108 80.896ZM69.8503 82.641C70.3524 83.3592 70.4798 84.0608 70.4798 84.5644L60.4798 84.5644C60.4798 85.7744 60.8034 87.1534 61.6547 88.371L69.8503 82.641ZM70.4798 84.5644L70.4798 58.2584L60.4798 58.2584L60.4798 84.5644L70.4798 84.5644ZM65.4798 53.2584L20.5639 53.2584L20.5639 63.2584L65.4798 63.2584L65.4798 53.2584ZM15.5639 58.2584L15.5639 84.5644L25.5639 84.5644L25.5639 58.2584L15.5639 58.2584ZM15.5639 84.5644C15.5639 84.0276 15.7085 83.3333 16.1929 82.6404C16.6634 81.9676 17.8001 80.896 19.6329 80.896L19.6329 90.896C21.9786 90.896 23.5808 89.5256 24.3885 88.3704C25.2102 87.1951 25.5639 85.835 25.5639 84.5644L15.5639 84.5644ZM19.6329 80.896C21.3962 80.896 22.5348 81.9049 23.0372 82.6135C23.538 83.3199 23.6829 84.0281 23.6829 84.5644L13.6829 84.5644C13.6829 85.8345 14.0367 87.2085 14.8795 88.3973C15.7239 89.5883 17.3375 90.896 19.6329 90.896L19.6329 80.896Z" fill="#010792" mask="url(#path-5-inside-3_30087_6916)"/>
<mask id="path-7-inside-4_30087_6916" fill="white">
<path d="M33.1601 -8.13492C33.1601 -8.36436 33.2246 -8.58439 33.3394 -8.74663C33.4542 -8.90886 33.61 -9 33.7724 -9C33.9347 -9 34.0905 -8.90886 34.2053 -8.74663C34.3201 -8.58439 34.3846 -8.36436 34.3846 -8.13492C34.3846 -3.70359 38.408 -0.102028 43.3561 -0.102027C48.3042 -0.102027 52.3276 -3.70359 52.3276 -8.13492C52.3276 -8.36435 52.3921 -8.58439 52.5069 -8.74662C52.6218 -8.90886 52.7775 -9 52.9399 -9C53.1022 -9 53.258 -8.90886 53.3728 -8.74662C53.4876 -8.58439 53.5521 -8.36435 53.5521 -8.13492C53.5521 -2.75023 48.9789 1.64579 43.3561 1.64579C37.7333 1.64579 33.1601 -2.75024 33.1601 -8.13492ZM27 85.1349L27 67.1801C27 66.9506 27.0645 66.7306 27.1793 66.5684C27.2941 66.4061 27.4499 66.315 27.6123 66.315L58.3877 66.315C58.7251 66.315 59 66.7034 59 67.1801L59 85.1349C59 85.3643 58.9355 85.5844 58.8207 85.7466C58.7058 85.9089 58.5501 86 58.3877 86C58.2254 86 58.0696 85.9089 57.9548 85.7466C57.84 85.5844 57.7755 85.3643 57.7755 85.1349L57.7755 68.0452L28.237 68.0452L28.237 85.1349C28.237 85.6116 27.9621 86 27.6248 86C27.2749 86 27 85.6116 27 85.1349Z"/>
</mask>
<path d="M33.1601 -8.13492C33.1601 -8.36436 33.2246 -8.58439 33.3394 -8.74663C33.4542 -8.90886 33.61 -9 33.7724 -9C33.9347 -9 34.0905 -8.90886 34.2053 -8.74663C34.3201 -8.58439 34.3846 -8.36436 34.3846 -8.13492C34.3846 -3.70359 38.408 -0.102028 43.3561 -0.102027C48.3042 -0.102027 52.3276 -3.70359 52.3276 -8.13492C52.3276 -8.36435 52.3921 -8.58439 52.5069 -8.74662C52.6218 -8.90886 52.7775 -9 52.9399 -9C53.1022 -9 53.258 -8.90886 53.3728 -8.74662C53.4876 -8.58439 53.5521 -8.36435 53.5521 -8.13492C53.5521 -2.75023 48.9789 1.64579 43.3561 1.64579C37.7333 1.64579 33.1601 -2.75024 33.1601 -8.13492ZM27 85.1349L27 67.1801C27 66.9506 27.0645 66.7306 27.1793 66.5684C27.2941 66.4061 27.4499 66.315 27.6123 66.315L58.3877 66.315C58.7251 66.315 59 66.7034 59 67.1801L59 85.1349C59 85.3643 58.9355 85.5844 58.8207 85.7466C58.7058 85.9089 58.5501 86 58.3877 86C58.2254 86 58.0696 85.9089 57.9548 85.7466C57.84 85.5844 57.7755 85.3643 57.7755 85.1349L57.7755 68.0452L28.237 68.0452L28.237 85.1349C28.237 85.6116 27.9621 86 27.6248 86C27.2749 86 27 85.6116 27 85.1349Z" fill="#010792"/>
<path d="M33.7724 -9L33.7724 -14L33.7724 -9ZM34.3846 -8.13492L39.3846 -8.13492L34.3846 -8.13492ZM53.5521 -8.13492L48.5521 -8.13492L53.5521 -8.13492ZM59 85.1349L64 85.1349L59 85.1349ZM57.7755 68.0452L62.7755 68.0452L62.7755 63.0452L57.7755 63.0452L57.7755 68.0452ZM28.237 68.0452L28.237 63.0452L23.237 63.0452L23.237 68.0452L28.237 68.0452ZM38.1601 -8.13492C38.1601 -7.49477 37.9924 -6.66592 37.4207 -5.85813L29.2582 -11.6351C28.4568 -10.5029 28.1601 -9.23394 28.1601 -8.13492L38.1601 -8.13492ZM37.4207 -5.85813C36.8352 -5.0309 35.6033 -4 33.7724 -4L33.7724 -14C31.6166 -14 30.0733 -12.7868 29.2582 -11.6351L37.4207 -5.85813ZM33.7724 -4C31.9414 -4 30.7095 -5.03095 30.124 -5.85813L38.2865 -11.6351C37.4715 -12.7868 35.9281 -14 33.7724 -14L33.7724 -4ZM30.124 -5.85813C29.5523 -6.66592 29.3846 -7.49477 29.3846 -8.13492L39.3846 -8.13492C39.3846 -9.23394 39.0879 -10.5029 38.2865 -11.6351L30.124 -5.85813ZM29.3846 -8.13492C29.3846 -0.436524 36.181 4.89797 43.3561 4.89797L43.3561 -5.10203C40.6351 -5.10203 39.3846 -6.97065 39.3846 -8.13492L29.3846 -8.13492ZM43.3561 4.89797C50.5313 4.89797 57.3276 -0.436522 57.3276 -8.13492L47.3276 -8.13492C47.3276 -6.97065 46.0771 -5.10203 43.3561 -5.10203L43.3561 4.89797ZM57.3276 -8.13492C57.3276 -7.49476 57.1599 -6.66592 56.5882 -5.85812L48.4257 -11.6351C47.6243 -10.5029 47.3276 -9.23394 47.3276 -8.13492L57.3276 -8.13492ZM56.5882 -5.85812C56.0027 -5.03092 54.7708 -4 52.9399 -4L52.9399 -14C50.7841 -14 49.2408 -12.7868 48.4257 -11.6351L56.5882 -5.85812ZM52.9399 -4C51.1089 -4 49.877 -5.03095 49.2916 -5.85812L57.454 -11.6351C56.639 -12.7868 55.0956 -14 52.9399 -14L52.9399 -4ZM49.2916 -5.85812C48.7199 -6.66589 48.5521 -7.49473 48.5521 -8.13492L58.5521 -8.13492C58.5521 -9.23398 58.2554 -10.5029 57.454 -11.6351L49.2916 -5.85812ZM48.5521 -8.13492C48.5521 -5.70263 46.4124 -3.35421 43.3561 -3.35421L43.3561 6.64579C51.5454 6.64579 58.5521 0.202161 58.5521 -8.13492L48.5521 -8.13492ZM43.3561 -3.35421C40.2998 -3.35421 38.1601 -5.70263 38.1601 -8.13492L28.1601 -8.13492C28.1601 0.202158 35.1668 6.64579 43.3561 6.64579L43.3561 -3.35421ZM32 85.1349L32 67.1801L22 67.1801L22 85.1349L32 85.1349ZM32 67.1801C32 67.8202 31.8323 68.6491 31.2606 69.4569L23.0981 63.6799C22.2967 64.8121 22 66.0811 22 67.1801L32 67.1801ZM31.2606 69.4569C30.6751 70.2841 29.4432 71.315 27.6123 71.315L27.6123 61.315C25.4566 61.315 23.9132 62.5281 23.0981 63.6799L31.2606 69.4569ZM27.6123 71.315L58.3877 71.315L58.3877 61.315L27.6123 61.315L27.6123 71.315ZM58.3877 71.315C56.4948 71.315 55.2793 70.2205 54.7391 69.4573C54.1876 68.6781 54 67.8586 54 67.1801L64 67.1801C64 66.0249 63.6749 64.7729 62.9016 63.6803C62.1397 62.6037 60.618 61.315 58.3877 61.315L58.3877 71.315ZM54 67.1801L54 85.1349L64 85.1349L64 67.1801L54 67.1801ZM54 85.1349C54 84.4947 54.1677 83.6659 54.7394 82.8581L62.9019 88.6351C63.7033 87.5029 64 86.234 64 85.1349L54 85.1349ZM54.7394 82.8581C55.3248 82.031 56.5567 81 58.3877 81L58.3877 91C60.5436 91 62.0869 89.7867 62.9019 88.6351L54.7394 82.8581ZM58.3877 81C60.2188 81 61.4507 82.031 62.036 82.8581L53.8736 88.6351C54.6886 89.7867 56.2319 91 58.3877 91L58.3877 81ZM62.036 82.8581C62.6078 83.6659 62.7755 84.4948 62.7755 85.1349L52.7755 85.1349C52.7755 86.2339 53.0722 87.5029 53.8736 88.6351L62.036 82.8581ZM62.7755 85.1349L62.7755 68.0452L52.7755 68.0452L52.7755 85.1349L62.7755 85.1349ZM57.7755 63.0452L28.237 63.0452L28.237 73.0452L57.7755 73.0452L57.7755 63.0452ZM23.237 68.0452L23.237 85.1349L33.237 85.1349L33.237 68.0452L23.237 68.0452ZM23.237 85.1349C23.237 84.4564 23.4247 83.6369 23.9762 82.8577C24.5163 82.0945 25.7318 81 27.6248 81L27.6248 91C29.855 91 31.3767 89.7113 32.1386 88.6347C32.9119 87.5421 33.237 86.2901 33.237 85.1349L23.237 85.1349ZM27.6248 81C29.4518 81 30.6706 82.0329 31.2432 82.8308C31.8121 83.6234 32 84.4568 32 85.1349L22 85.1349C22 86.2897 22.3253 87.5557 23.1191 88.6616C23.9167 89.7729 25.4478 91 27.6248 91L27.6248 81Z" fill="#010792" mask="url(#path-7-inside-4_30087_6916)"/>
<mask id="path-9-inside-5_30087_6916" fill="white">
<path d="M28.2611 56.9909C28.2611 48.6988 35.1898 41.9291 43.7086 41.9291C52.2275 41.9291 59.1562 48.6716 59.1562 56.9909C59.1562 57.3443 59.0584 57.6831 58.8845 57.9329C58.7105 58.1828 58.4746 58.3231 58.2285 58.3231C57.9825 58.3231 57.7466 58.1828 57.5726 57.9329C57.3987 57.6831 57.3009 57.3443 57.3009 56.9909C57.3009 50.1669 51.2052 44.6206 43.7086 44.6206C36.2121 44.6206 30.1163 50.1669 30.1163 56.9909C30.1163 57.3443 30.0186 57.6831 29.8447 57.9329C29.6707 58.1828 29.4348 58.3231 29.1887 58.3231C28.9427 58.3231 28.7068 58.1828 28.5328 57.9329C28.3589 57.6831 28.2611 57.3442 28.2611 56.9909ZM77.6894 -86.6678C77.6894 -87.4019 78.1059 -88 78.6359 -88C79.1471 -88 79.5635 -87.4019 79.5635 -86.6678C79.5635 -82.2906 82.0435 -78.7291 85.0724 -78.7291C85.5835 -78.7291 86 -78.1309 86 -77.3969C86 -76.6628 85.5835 -76.0375 85.0724 -76.0375C81.0023 -76.0375 77.6894 -80.7953 77.6894 -86.6678ZM1.39837 -77.3697C1.39837 -77.723 1.49609 -78.0619 1.67006 -78.3117C1.84402 -78.5615 2.07996 -78.7019 2.32597 -78.7019C5.37382 -78.7019 7.85376 -82.2634 7.85376 -86.6406C7.8727 -87.4019 8.28917 -88 8.8003 -88C9.31143 -88 9.72791 -87.4019 9.72791 -86.6678C9.72791 -80.8225 6.41502 -76.0375 2.32597 -76.0375C1.81484 -76.0375 1.39837 -76.6356 1.39837 -77.3697ZM77.6894 84.6678C77.6894 78.8225 81.0023 74.0375 85.0724 74.0375C85.3184 74.0375 85.5543 74.1779 85.7283 74.4277C85.9023 74.6775 86 75.0164 86 75.3697C86 75.723 85.9023 76.0618 85.7283 76.3117C85.5543 76.5615 85.3184 76.7019 85.0724 76.7019C82.0435 76.7019 79.5635 80.2634 79.5635 84.6406C79.5635 85.3747 79.1471 85.9728 78.6359 85.9728C78.1059 86 77.6894 85.4019 77.6894 84.6678ZM1.39836 75.3697C1.39836 75.0164 1.49609 74.6775 1.67005 74.4277C1.84401 74.1779 2.07995 74.0375 2.32597 74.0375C6.39608 74.0375 9.7279 78.7953 9.7279 84.6406C9.7279 85.3747 9.31143 86 8.8003 86C8.28916 86 7.87268 85.4291 7.87268 84.6678C7.87268 80.2634 5.39276 76.7291 2.3449 76.7291C1.81484 76.7019 1.39836 76.1037 1.39836 75.3697Z"/>
</mask>
<path d="M28.2611 56.9909C28.2611 48.6988 35.1898 41.9291 43.7086 41.9291C52.2275 41.9291 59.1562 48.6716 59.1562 56.9909C59.1562 57.3443 59.0584 57.6831 58.8845 57.9329C58.7105 58.1828 58.4746 58.3231 58.2285 58.3231C57.9825 58.3231 57.7466 58.1828 57.5726 57.9329C57.3987 57.6831 57.3009 57.3443 57.3009 56.9909C57.3009 50.1669 51.2052 44.6206 43.7086 44.6206C36.2121 44.6206 30.1163 50.1669 30.1163 56.9909C30.1163 57.3443 30.0186 57.6831 29.8447 57.9329C29.6707 58.1828 29.4348 58.3231 29.1887 58.3231C28.9427 58.3231 28.7068 58.1828 28.5328 57.9329C28.3589 57.6831 28.2611 57.3442 28.2611 56.9909ZM77.6894 -86.6678C77.6894 -87.4019 78.1059 -88 78.6359 -88C79.1471 -88 79.5635 -87.4019 79.5635 -86.6678C79.5635 -82.2906 82.0435 -78.7291 85.0724 -78.7291C85.5835 -78.7291 86 -78.1309 86 -77.3969C86 -76.6628 85.5835 -76.0375 85.0724 -76.0375C81.0023 -76.0375 77.6894 -80.7953 77.6894 -86.6678ZM1.39837 -77.3697C1.39837 -77.723 1.49609 -78.0619 1.67006 -78.3117C1.84402 -78.5615 2.07996 -78.7019 2.32597 -78.7019C5.37382 -78.7019 7.85376 -82.2634 7.85376 -86.6406C7.8727 -87.4019 8.28917 -88 8.8003 -88C9.31143 -88 9.72791 -87.4019 9.72791 -86.6678C9.72791 -80.8225 6.41502 -76.0375 2.32597 -76.0375C1.81484 -76.0375 1.39837 -76.6356 1.39837 -77.3697ZM77.6894 84.6678C77.6894 78.8225 81.0023 74.0375 85.0724 74.0375C85.3184 74.0375 85.5543 74.1779 85.7283 74.4277C85.9023 74.6775 86 75.0164 86 75.3697C86 75.723 85.9023 76.0618 85.7283 76.3117C85.5543 76.5615 85.3184 76.7019 85.0724 76.7019C82.0435 76.7019 79.5635 80.2634 79.5635 84.6406C79.5635 85.3747 79.1471 85.9728 78.6359 85.9728C78.1059 86 77.6894 85.4019 77.6894 84.6678ZM1.39836 75.3697C1.39836 75.0164 1.49609 74.6775 1.67005 74.4277C1.84401 74.1779 2.07995 74.0375 2.32597 74.0375C6.39608 74.0375 9.7279 78.7953 9.7279 84.6406C9.7279 85.3747 9.31143 86 8.8003 86C8.28916 86 7.87268 85.4291 7.87268 84.6678C7.87268 80.2634 5.39276 76.7291 2.3449 76.7291C1.81484 76.7019 1.39836 76.1037 1.39836 75.3697Z" fill="#010792"/>
<path d="M59.1562 56.9909L64.1562 56.9909L59.1562 56.9909ZM30.1163 56.9909L25.1163 56.9909L30.1163 56.9909ZM7.85376 -86.6406L2.85531 -86.7649L2.85376 -86.7028L2.85376 -86.6406L7.85376 -86.6406ZM85.0724 74.0375L85.0724 79.0375L85.0724 74.0375ZM78.6359 85.9728L78.6359 80.9728L78.5078 80.9728L78.3798 80.9794L78.6359 85.9728ZM2.3449 76.7291L2.08879 81.7225L2.21676 81.7291L2.3449 81.7291L2.3449 76.7291ZM33.2611 56.9909C33.2611 51.5756 37.8344 46.9291 43.7086 46.9291L43.7086 36.9291C32.5452 36.9291 23.2611 45.8219 23.2611 56.9909L33.2611 56.9909ZM43.7086 46.9291C49.5889 46.9291 54.1562 51.5542 54.1562 56.9909L64.1562 56.9909C64.1562 45.7889 54.8661 36.9291 43.7086 36.9291L43.7086 46.9291ZM54.1562 56.9909C54.1562 56.4916 54.2817 55.7931 54.7812 55.0758L62.9877 60.7901C63.8351 59.5731 64.1562 58.1969 64.1562 56.9909L54.1562 56.9909ZM54.7812 55.0758C55.2916 54.3427 56.4445 53.3231 58.2285 53.3231L58.2285 63.3231C60.5046 63.3231 62.1294 62.0228 62.9877 60.7901L54.7812 55.0758ZM58.2285 53.3231C60.0126 53.3231 61.1654 54.3427 61.6759 55.0758L53.4694 60.7901C54.3278 62.0228 55.9525 63.3231 58.2285 63.3231L58.2285 53.3231ZM61.6759 55.0758C62.1754 55.7931 62.3009 56.4917 62.3009 56.9909L52.3009 56.9909C52.3009 58.1969 52.622 59.5731 53.4694 60.7901L61.6759 55.0758ZM62.3009 56.9909C62.3009 46.9723 53.5126 39.6206 43.7086 39.6206L43.7086 49.6206C48.8979 49.6206 52.3009 53.3615 52.3009 56.9909L62.3009 56.9909ZM43.7086 39.6206C33.9047 39.6206 25.1163 46.9723 25.1163 56.9909L35.1163 56.9909C35.1163 53.3615 38.5194 49.6206 43.7086 49.6206L43.7086 39.6206ZM25.1163 56.9909C25.1163 56.4916 25.2419 55.7931 25.7414 55.0758L33.9479 60.7901C34.7953 59.5731 35.1163 58.1969 35.1163 56.9909L25.1163 56.9909ZM25.7414 55.0758C26.2518 54.3427 27.4047 53.3231 29.1887 53.3231L29.1887 63.3231C31.4648 63.3231 33.0896 62.0228 33.9479 60.7901L25.7414 55.0758ZM29.1887 53.3231C30.9727 53.3231 32.1256 54.3427 32.6361 55.0758L24.4295 60.7901C25.288 62.0229 26.9127 63.3231 29.1887 63.3231L29.1887 53.3231ZM32.6361 55.0758C33.1356 55.7931 33.2611 56.4917 33.2611 56.9909L23.2611 56.9909C23.2611 58.1969 23.5821 59.5731 24.4295 60.7901L32.6361 55.0758ZM82.6894 -86.6678C82.6894 -86.1361 82.5466 -85.4308 82.0483 -84.7251C81.5492 -84.0183 80.4094 -83 78.6359 -83L78.6359 -93C76.3324 -93 74.7193 -91.6826 73.8795 -90.4932C73.0404 -89.3049 72.6894 -87.9336 72.6894 -86.6678L82.6894 -86.6678ZM78.6359 -83C76.7929 -83 75.6551 -84.0814 75.1881 -84.7521C74.7062 -85.4442 74.5635 -86.1355 74.5635 -86.6678L84.5635 -86.6678C84.5635 -87.9342 84.2127 -89.2915 83.3947 -90.4663C82.5917 -91.6196 80.99 -93 78.6359 -93L78.6359 -83ZM74.5635 -86.6678C74.5635 -83.5812 75.4296 -80.5741 77.0757 -78.2044C78.7048 -75.8592 81.4511 -73.7291 85.0724 -73.7291L85.0724 -83.7291C85.6648 -83.7291 85.6566 -83.3797 85.2886 -83.9096C84.9375 -84.415 84.5635 -85.3773 84.5635 -86.6678L74.5635 -86.6678ZM85.0724 -73.7291C83.2294 -73.7291 82.0916 -74.8104 81.6246 -75.4811C81.1426 -76.1733 81 -76.8646 81 -77.3969L91 -77.3969C91 -78.6632 90.6491 -80.0206 89.8311 -81.1954C89.0281 -82.3486 87.4265 -83.7291 85.0724 -83.7291L85.0724 -73.7291ZM81 -77.3969C81 -77.9234 81.1388 -78.5825 81.5879 -79.2456C82.0068 -79.8641 83.1385 -81.0375 85.0724 -81.0375L85.0724 -71.0375C87.5174 -71.0375 89.1129 -72.5235 89.8678 -73.6382C90.6529 -74.7975 91 -76.1363 91 -77.3969L81 -77.3969ZM85.0724 -81.0375C85.0616 -81.0375 84.9819 -81.0337 84.8027 -81.1429C84.605 -81.2633 84.2966 -81.5203 83.9602 -82.0042C83.2737 -82.992 82.6894 -84.6255 82.6894 -86.6678L72.6894 -86.6678C72.6894 -82.8376 73.7616 -79.156 75.749 -76.2967C77.7224 -73.4576 80.9391 -71.0375 85.0724 -71.0375L85.0724 -81.0375ZM6.39837 -77.3697C6.39837 -76.8704 6.27281 -76.1719 5.77333 -75.4546L-2.43321 -81.1688C-3.28062 -79.9518 -3.60163 -78.5756 -3.60163 -77.3697L6.39837 -77.3697ZM5.77333 -75.4546C5.26289 -74.7215 4.11004 -73.7019 2.32597 -73.7019L2.32597 -83.7019C0.0498732 -83.7019 -1.57486 -82.4015 -2.43321 -81.1688L5.77333 -75.4546ZM2.32597 -73.7019C5.94647 -73.7019 8.69866 -75.8211 10.3361 -78.1727C11.9877 -80.5447 12.8538 -83.5541 12.8538 -86.6406L2.85376 -86.6406C2.85376 -85.35 2.47984 -84.39 2.12955 -83.8869C1.76503 -83.3634 1.75333 -83.7019 2.32597 -83.7019L2.32597 -73.7019ZM12.8522 -86.5163C12.8411 -86.0681 12.715 -85.4226 12.2457 -84.7487C11.7888 -84.0925 10.6538 -83 8.8003 -83L8.8003 -93C6.43569 -93 4.83681 -91.6084 4.03918 -90.4629C3.22919 -89.2996 2.88538 -87.9744 2.85531 -86.7649L12.8522 -86.5163ZM8.8003 -83C6.95732 -83 5.8195 -84.0814 5.3525 -84.7521C4.87054 -85.4443 4.72791 -86.1355 4.72791 -86.6678L14.7279 -86.6678C14.7279 -87.9341 14.377 -89.2915 13.5591 -90.4663C12.756 -91.6196 11.1544 -93 8.8003 -93L8.8003 -83ZM4.72791 -86.6678C4.72791 -84.6427 4.14546 -83.0082 3.4547 -82.0144C3.11646 -81.5278 2.8056 -81.268 2.60482 -81.1456C2.42284 -81.0347 2.34018 -81.0375 2.32597 -81.0375L2.32597 -71.0375C6.47147 -71.0375 9.69218 -73.4673 11.666 -76.3069C13.6539 -79.167 14.7279 -82.8476 14.7279 -86.6678L4.72791 -86.6678ZM2.32597 -81.0375C4.16896 -81.0375 5.30678 -79.9561 5.77377 -79.2854C6.25574 -78.5933 6.39837 -77.902 6.39837 -77.3697L-3.60163 -77.3697C-3.60163 -76.1034 -3.25076 -74.746 -2.43279 -73.5712C-1.62977 -72.418 -0.0281454 -71.0375 2.32597 -71.0375L2.32597 -81.0375ZM82.6894 84.6678C82.6894 82.6427 83.2719 81.0065 83.9626 80.011C84.3009 79.5234 84.6113 79.2638 84.8102 79.1421C84.9904 79.032 85.0675 79.0375 85.0724 79.0375L85.0724 69.0375C80.9287 69.0375 77.7136 71.4754 75.7466 74.3103C73.7634 77.1686 72.6894 80.8476 72.6894 84.6678L82.6894 84.6678ZM85.0724 79.0375C83.2882 79.0375 82.1354 78.0178 81.625 77.2848L89.8316 71.5706C88.9733 70.3379 87.3486 69.0375 85.0724 69.0375L85.0724 79.0375ZM81.625 77.2848C81.1256 76.5675 81 75.869 81 75.3697L91 75.3697C91 74.1637 90.679 72.7876 89.8316 71.5706L81.625 77.2848ZM81 75.3697C81 74.8704 81.1256 74.1719 81.625 73.4546L89.8316 79.1688C90.679 77.9518 91 76.5756 91 75.3697L81 75.3697ZM81.625 73.4546C82.1354 72.7216 83.2882 71.7019 85.0724 71.7019L85.0724 81.7019C87.3486 81.7019 88.9733 80.4015 89.8316 79.1688L81.625 73.4546ZM85.0724 71.7019C81.4511 71.7019 78.7048 73.832 77.0757 76.1772C75.4295 78.5469 74.5635 81.554 74.5635 84.6406L84.5635 84.6406C84.5635 83.3501 84.9375 82.3878 85.2885 81.8824C85.6566 81.3525 85.6648 81.7019 85.0724 81.7019L85.0724 71.7019ZM74.5635 84.6406C74.5635 84.1084 74.7062 83.4171 75.1881 82.7249C75.6551 82.0542 76.7929 80.9728 78.6359 80.9728L78.6359 90.9728C80.99 90.9728 82.5917 89.5924 83.3947 88.4391C84.2127 87.2644 84.5635 85.907 84.5635 84.6406L74.5635 84.6406ZM78.3798 80.9794C80.2608 80.8829 81.4983 81.9537 82.0289 82.6945C82.5503 83.4225 82.6894 84.1442 82.6894 84.6678L72.6894 84.6678C72.6894 85.9255 73.0367 87.3133 73.8989 88.5171C74.7702 89.7337 76.481 91.0899 78.892 90.9662L78.3798 80.9794ZM6.39836 75.3697C6.39836 75.869 6.2728 76.5675 5.77333 77.2848L-2.43322 71.5706C-3.28062 72.7876 -3.60164 74.1638 -3.60164 75.3697L6.39836 75.3697ZM5.77333 77.2848C5.26295 78.0178 4.11013 79.0375 2.32597 79.0375L2.32597 69.0375C0.049777 69.0375 -1.57493 70.3379 -2.43322 71.5706L5.77333 77.2848ZM2.32597 79.0375C2.33739 79.0375 2.42028 79.0341 2.60391 79.1457C2.80564 79.2682 3.11669 79.5273 3.4547 80.011C4.14447 80.9981 4.7279 82.6224 4.7279 84.6406L14.7279 84.6406C14.7279 80.8135 13.6454 77.1363 11.6518 74.2831C9.67372 71.4524 6.4545 69.0375 2.32597 69.0375L2.32597 79.0375ZM4.7279 84.6406C4.7279 84.1141 4.86671 83.455 5.31581 82.7919C5.73467 82.1734 6.86637 81 8.8003 81L8.8003 91C11.2453 91 12.8409 89.5139 13.5957 88.3993C14.3809 87.24 14.7279 85.9011 14.7279 84.6406L4.7279 84.6406ZM8.8003 81C10.5593 81 11.7104 82.0007 12.2289 82.735C12.7445 83.465 12.8727 84.1786 12.8727 84.6678L2.87268 84.6678C2.87268 85.9182 3.20907 87.298 4.06069 88.5038C4.91526 89.7138 6.53021 91 8.8003 91L8.8003 81ZM12.8727 84.6678C12.8727 81.5726 12.0091 78.5595 10.3518 76.1851C8.70581 73.8267 5.95148 71.7291 2.3449 71.7291L2.3449 81.7291C1.78618 81.7291 1.79574 81.3986 2.15164 81.9085C2.49633 82.4023 2.87268 83.3587 2.87268 84.6678L12.8727 84.6678ZM2.60102 71.7356C4.2583 71.8206 5.30524 72.781 5.77613 73.4573C6.25202 74.1408 6.39836 74.8302 6.39836 75.3697L-3.60164 75.3697C-3.60164 76.6432 -3.24705 77.9987 -2.43041 79.1716C-1.61876 80.3372 -0.0985617 81.6103 2.08879 81.7225L2.60102 71.7356Z" fill="#010792" mask="url(#path-9-inside-5_30087_6916)"/>
<mask id="path-11-inside-6_30087_6916" fill="white">
<path d="M60.632 -3.68342C60.632 5.31095 53.3099 12.6333 44.316 12.6333C35.322 12.6333 28 5.31096 28 -3.68342C28 -12.6778 35.322 -20.0001 44.316 -20.0001C53.3099 -20.0001 60.632 -12.6778 60.632 -3.68342ZM29.8834 -3.68342C29.8834 4.27314 36.3598 10.7306 44.2968 10.7306C52.2337 10.7306 58.7102 4.25392 58.7102 -3.68342C58.7102 -11.64 52.2337 -18.0975 44.2968 -18.0975C36.3598 -18.0975 29.8834 -11.64 29.8834 -3.68342Z"/>
</mask>
<path d="M60.632 -3.68342C60.632 5.31095 53.3099 12.6333 44.316 12.6333C35.322 12.6333 28 5.31096 28 -3.68342C28 -12.6778 35.322 -20.0001 44.316 -20.0001C53.3099 -20.0001 60.632 -12.6778 60.632 -3.68342ZM29.8834 -3.68342C29.8834 4.27314 36.3598 10.7306 44.2968 10.7306C52.2337 10.7306 58.7102 4.25392 58.7102 -3.68342C58.7102 -11.64 52.2337 -18.0975 44.2968 -18.0975C36.3598 -18.0975 29.8834 -11.64 29.8834 -3.68342Z" fill="#010792"/>
<path d="M55.632 -3.68342C55.632 2.54975 50.5483 7.6333 44.316 7.6333L44.316 17.6333C56.0716 17.6333 65.632 8.07216 65.632 -3.68342L55.632 -3.68342ZM44.316 7.6333C38.0836 7.6333 33 2.54975 33 -3.68342L23 -3.68342C23 8.07217 32.5604 17.6333 44.316 17.6333L44.316 7.6333ZM33 -3.68342C33 -9.91658 38.0837 -15.0001 44.316 -15.0001L44.316 -25.0001C32.5604 -25.0001 23 -15.439 23 -3.68342L33 -3.68342ZM44.316 -15.0001C50.5483 -15.0001 55.632 -9.91659 55.632 -3.68342L65.632 -3.68342C65.632 -15.439 56.0716 -25.0001 44.316 -25.0001L44.316 -15.0001ZM24.8834 -3.68342C24.8834 7.03869 33.6025 15.7306 44.2968 15.7306L44.2968 5.73064C39.1171 5.73064 34.8834 1.5076 34.8834 -3.68342L24.8834 -3.68342ZM44.2968 15.7306C54.9954 15.7306 63.7102 7.01514 63.7102 -3.68342L53.7102 -3.68342C53.7102 1.49271 49.4721 5.73064 44.2968 5.73064L44.2968 15.7306ZM63.7102 -3.68342C63.7102 -14.4055 54.991 -23.0975 44.2968 -23.0975L44.2968 -13.0975C49.4764 -13.0975 53.7102 -8.87443 53.7102 -3.68342L63.7102 -3.68342ZM44.2968 -23.0975C33.6025 -23.0975 24.8834 -14.4055 24.8834 -3.68342L34.8834 -3.68342C34.8834 -8.87443 39.1171 -13.0975 44.2968 -13.0975L44.2968 -23.0975Z" fill="#010792" mask="url(#path-11-inside-6_30087_6916)"/>
</g>
<defs>
<clipPath id="clip0_30087_6916">
<rect width="86" height="86" fill="white"/>
</clipPath>
</defs>
</svg>
