<svg width="524" height="751" viewBox="0 0 524 751" fill="none" xmlns="http://www.w3.org/2000/svg">
<g clip-path="url(#clip0_31208_3758)">
<path d="M0.910156 745.25L0.910124 5.86719C0.910157 2.97419 3.26319 0.617376 6.14743 0.617187L517.853 0.617165C520.737 0.617165 523.091 2.97406 523.091 5.86716L523.091 745.25C523.091 746.556 522.606 747.811 521.735 748.774L521.557 748.963C520.574 749.947 519.241 750.5 517.853 750.5L6.14746 750.5C3.2632 750.5 0.910156 748.143 0.910156 745.25Z" stroke="#010792"/>
<path d="M163.076 375.5C163.076 320.858 207.467 276.375 261.99 276.375C316.513 276.375 360.903 320.858 360.903 375.5C360.903 430.142 316.513 474.625 261.99 474.625C207.467 474.625 163.076 430.142 163.076 375.5Z" stroke="#010792"/>
<path d="M474.982 0.5C471.459 11.5599 476.142 26.1584 487.665 36.819C498.538 46.8781 512.434 50.5933 523.001 47.3077" stroke="#010792"/>
<path d="M0.650391 47.2051C11.565 51.1557 26.3344 47.0435 37.4346 35.9433C47.9087 25.4693 52.1609 11.7284 49.2882 1.04173" stroke="#010792"/>
<path d="M178 125.018C182.209 151.984 218.114 173.097 261.662 173.097C305.219 173.097 341.13 151.975 345.326 125" stroke="#010792"/>
<path d="M121 1V117C121 121.418 124.582 125 129 125H401.5C405.918 125 409.5 121.418 409.5 117V1" stroke="#010792"/>
<path d="M49.668 750.304C53.1916 739.244 48.5087 724.645 36.9856 713.985C26.1126 703.926 12.2169 700.21 1.64988 703.496" stroke="#010792"/>
<path d="M524 703.599C513.085 699.648 498.316 703.76 487.216 714.86C476.742 725.334 472.49 739.075 475.362 749.762" stroke="#010792"/>
<path d="M346.65 625.786C342.441 598.82 306.536 577.707 262.989 577.707C219.431 577.707 183.52 598.829 179.324 625.804" stroke="#010792"/>
<path d="M403.65 749.804L403.65 633.804C403.65 629.385 400.069 625.804 395.65 625.804L123.15 625.804C118.732 625.804 115.15 629.385 115.15 633.804L115.15 749.804" stroke="#010792"/>
<path d="M1 375L523 375" stroke="#010792"/>
</g>
<defs>
<clipPath id="clip0_31208_3758">
<rect width="751" height="524" fill="white" transform="translate(0 751) rotate(-90)"/>
</clipPath>
</defs>
</svg>
