<svg width="86" height="86" viewBox="0 0 86 86" fill="none" xmlns="http://www.w3.org/2000/svg">
<g clip-path="url(#clip0_30087_6936)">
<mask id="path-1-inside-1_30087_6936" fill="white">
<path d="M84.6016 0.658544L84.6016 85.3415C84.6016 85.5161 84.5039 85.6836 84.3299 85.8071C84.1559 85.9306 83.9199 86 83.6738 86L0.927815 86C0.41657 86 -1.6812e-08 85.7043 -3.74448e-08 85.3415L-4.85254e-06 0.658546C-4.87318e-06 0.295677 0.416565 -1.03748e-08 0.92781 -2.31075e-08L83.6738 -2.08392e-06C84.185 -2.09666e-06 84.6016 0.295675 84.6016 0.658544ZM82.7271 84.6695L82.727 1.31708L1.85563 1.31709L1.85563 84.6695L82.7271 84.6695Z"/>
</mask>
<path d="M84.6016 0.658544L84.6016 85.3415C84.6016 85.5161 84.5039 85.6836 84.3299 85.8071C84.1559 85.9306 83.9199 86 83.6738 86L0.927815 86C0.41657 86 -1.6812e-08 85.7043 -3.74448e-08 85.3415L-4.85254e-06 0.658546C-4.87318e-06 0.295677 0.416565 -1.03748e-08 0.92781 -2.31075e-08L83.6738 -2.08392e-06C84.185 -2.09666e-06 84.6016 0.295675 84.6016 0.658544ZM82.7271 84.6695L82.727 1.31708L1.85563 1.31709L1.85563 84.6695L82.7271 84.6695Z" fill="#010792"/>
<path d="M83.6738 86L83.6738 91L83.6738 86ZM82.7271 84.6695L82.7271 89.6695L87.7271 89.6695L87.7271 84.6695L82.7271 84.6695ZM82.727 1.31708L87.727 1.31708L87.727 -3.68292L82.727 -3.68292L82.727 1.31708ZM1.85563 1.31709L1.85563 -3.68291L-3.14437 -3.68291L-3.14437 1.31709L1.85563 1.31709ZM1.85563 84.6695L-3.14437 84.6695L-3.14437 89.6695L1.85563 89.6695L1.85563 84.6695ZM79.6016 0.658544L79.6016 85.3415L89.6016 85.3415L89.6016 0.658544L79.6016 0.658544ZM79.6016 85.3415C79.6016 83.5292 80.6194 82.3093 81.4359 81.7298L87.2239 89.8845C88.3884 89.0579 89.6016 87.5031 89.6016 85.3415L79.6016 85.3415ZM81.4359 81.7298C82.2324 81.1644 83.0473 81 83.6738 81L83.6738 91C84.7925 91 86.0794 90.6968 87.2239 89.8845L81.4359 81.7298ZM83.6738 81L0.927815 81L0.927815 91L83.6738 91L83.6738 81ZM0.927815 81C1.59219 81 2.39794 81.1842 3.16619 81.7295C3.9193 82.264 5 83.4677 5 85.3415L-5 85.3415C-5 87.5781 -3.71101 89.1111 -2.62181 89.8842C-1.51746 90.668 -0.24781 91 0.927815 91L0.927815 81ZM5 85.3415L5 0.658546L-5 0.658547L-5 85.3415L5 85.3415ZM5 0.658546C5 2.53226 3.9193 3.736 3.1662 4.27054C2.39795 4.81583 1.5922 5 0.92781 5L0.92781 -5C-0.247824 -5 -1.51748 -4.66798 -2.62183 -3.88414C-3.71102 -3.11105 -5 -1.57805 -5 0.658547L5 0.658546ZM0.92781 5L83.6738 5L83.6738 -5L0.92781 -5L0.92781 5ZM83.6738 5C83.0094 5 82.2037 4.81582 81.4354 4.27054C80.6823 3.73601 79.6016 2.53228 79.6016 0.658544L89.6016 0.658544C89.6016 -1.57807 88.3126 -3.11107 87.2234 -3.88415C86.1191 -4.66799 84.8494 -5 83.6738 -5L83.6738 5ZM87.7271 84.6695L87.727 1.31708L77.727 1.31708L77.7271 84.6695L87.7271 84.6695ZM82.727 -3.68292L1.85563 -3.68291L1.85563 6.31709L82.727 6.31708L82.727 -3.68292ZM-3.14437 1.31709L-3.14437 84.6695L6.85563 84.6695L6.85563 1.31709L-3.14437 1.31709ZM1.85563 89.6695L82.7271 89.6695L82.7271 79.6695L1.85563 79.6695L1.85563 89.6695Z" fill="#010792" mask="url(#path-1-inside-1_30087_6936)"/>
<mask id="path-3-inside-2_30087_6936" fill="white">
<path d="M84.8919 87.0375C84.8919 87.3907 84.7938 87.7294 84.6192 87.9791C84.4446 88.2288 84.2078 88.3691 83.9609 88.3691L0.930998 88.3691C0.684082 88.3691 0.447279 88.2289 0.272683 87.9791C0.0980867 87.7294 -5.56344e-08 87.3907 -7.57154e-08 87.0375C-9.57964e-08 86.6844 0.0980866 86.3457 0.272683 86.096C0.447279 85.8462 0.684082 85.7059 0.930998 85.7059L83.9609 85.7059C84.4739 85.7059 84.8919 86.3038 84.8919 87.0375Z"/>
</mask>
<path d="M84.8919 87.0375C84.8919 87.3907 84.7938 87.7294 84.6192 87.9791C84.4446 88.2288 84.2078 88.3691 83.9609 88.3691L0.930998 88.3691C0.684082 88.3691 0.447279 88.2289 0.272683 87.9791C0.0980867 87.7294 -5.56344e-08 87.3907 -7.57154e-08 87.0375C-9.57964e-08 86.6844 0.0980866 86.3457 0.272683 86.096C0.447279 85.8462 0.684082 85.7059 0.930998 85.7059L83.9609 85.7059C84.4739 85.7059 84.8919 86.3038 84.8919 87.0375Z" fill="#010792"/>
<path d="M79.8919 87.0375C79.8919 86.5339 80.0193 85.8323 80.5214 85.1141L88.717 90.8441C89.5683 89.6265 89.8919 88.2475 89.8919 87.0375L79.8919 87.0375ZM80.5214 85.1141C81.0353 84.3792 82.187 83.3691 83.9609 83.3691L83.9609 93.3691C86.2286 93.3691 87.854 92.0785 88.717 90.8441L80.5214 85.1141ZM83.9609 83.3691L0.930998 83.3691L0.930999 93.3691L83.9609 93.3691L83.9609 83.3691ZM0.930998 83.3691C2.70488 83.3691 3.85663 84.3792 4.37047 85.1141L-3.8251 90.8441C-2.96207 92.0785 -1.33672 93.3691 0.930999 93.3691L0.930998 83.3691ZM4.37047 85.1141C4.87259 85.8323 5 86.5339 5 87.0375L-5 87.0375C-5 88.2475 -4.67642 89.6265 -3.8251 90.8441L4.37047 85.1141ZM5 87.0375C5 87.5412 4.87258 88.2428 4.37047 88.9609L-3.8251 83.231C-4.67641 84.4486 -5 85.8275 -5 87.0375L5 87.0375ZM4.37047 88.9609C3.85671 89.6958 2.705 90.7059 0.930999 90.7059L0.930998 80.7059C-1.33683 80.7059 -2.96215 81.9967 -3.8251 83.231L4.37047 88.9609ZM0.930999 90.7059L83.9609 90.7059L83.9609 80.7059L0.930998 80.7059L0.930999 90.7059ZM83.9609 90.7059C82.1281 90.7059 80.9914 89.6344 80.521 88.9616C80.0365 88.2686 79.8919 87.5744 79.8919 87.0375L89.8919 87.0375C89.8919 85.767 89.5383 84.4069 88.7166 83.2316C87.9089 82.0764 86.3066 80.7059 83.9609 80.7059L83.9609 90.7059Z" fill="#010792" mask="url(#path-3-inside-2_30087_6936)"/>
<mask id="path-5-inside-3_30087_6936" fill="white">
<path d="M57.9502 145.004C57.9502 145.357 57.8521 145.696 57.6775 145.946C57.5029 146.196 57.2661 146.336 57.0192 146.336C56.7722 146.336 56.5354 146.196 56.3608 145.946C56.1862 145.696 56.0882 145.357 56.0882 145.004C56.0882 138.183 49.9702 132.639 42.4462 132.639C34.9222 132.639 28.8042 138.183 28.8042 145.004C28.8042 145.357 28.7061 145.696 28.5315 145.946C28.3569 146.196 28.1201 146.336 27.8732 146.336C27.6263 146.336 27.3895 146.196 27.2149 145.946C27.0403 145.696 26.9422 145.357 26.9422 145.004C26.9422 136.716 33.8962 129.949 42.4462 129.949C50.9962 129.949 57.9502 136.716 57.9502 145.004ZM67.3171 1.43558L67.3171 29.0732C67.3171 29.4263 67.2191 29.765 67.0445 30.0148C66.8699 30.2645 66.633 30.4048 66.3861 30.4048L19.5892 30.4048C19.0762 30.4048 18.6582 29.8069 18.6582 29.0732L18.6582 1.43558C18.6582 1.08241 18.7563 0.743713 18.9309 0.493988C19.1055 0.244263 19.3423 0.103958 19.5892 0.103958C19.8361 0.103958 20.0729 0.244263 20.2475 0.493988C20.4221 0.743713 20.5202 1.08241 20.5202 1.43558L20.5202 27.7416L65.4361 27.7416L65.4361 1.43558C65.4361 0.701828 65.8541 0.103958 66.3671 0.103958C66.8991 0.103958 67.3171 0.701828 67.3171 1.43558Z"/>
</mask>
<path d="M57.9502 145.004C57.9502 145.357 57.8521 145.696 57.6775 145.946C57.5029 146.196 57.2661 146.336 57.0192 146.336C56.7722 146.336 56.5354 146.196 56.3608 145.946C56.1862 145.696 56.0882 145.357 56.0882 145.004C56.0882 138.183 49.9702 132.639 42.4462 132.639C34.9222 132.639 28.8042 138.183 28.8042 145.004C28.8042 145.357 28.7061 145.696 28.5315 145.946C28.3569 146.196 28.1201 146.336 27.8732 146.336C27.6263 146.336 27.3895 146.196 27.2149 145.946C27.0403 145.696 26.9422 145.357 26.9422 145.004C26.9422 136.716 33.8962 129.949 42.4462 129.949C50.9962 129.949 57.9502 136.716 57.9502 145.004ZM67.3171 1.43558L67.3171 29.0732C67.3171 29.4263 67.2191 29.765 67.0445 30.0148C66.8699 30.2645 66.633 30.4048 66.3861 30.4048L19.5892 30.4048C19.0762 30.4048 18.6582 29.8069 18.6582 29.0732L18.6582 1.43558C18.6582 1.08241 18.7563 0.743713 18.9309 0.493988C19.1055 0.244263 19.3423 0.103958 19.5892 0.103958C19.8361 0.103958 20.0729 0.244263 20.2475 0.493988C20.4221 0.743713 20.5202 1.08241 20.5202 1.43558L20.5202 27.7416L65.4361 27.7416L65.4361 1.43558C65.4361 0.701828 65.8541 0.103958 66.3671 0.103958C66.8991 0.103958 67.3171 0.701828 67.3171 1.43558Z" fill="#010792"/>
<path d="M57.0192 146.336L57.0192 151.336L57.0192 146.336ZM56.0882 145.004L51.0882 145.004L56.0882 145.004ZM26.9422 145.004L31.9422 145.004L26.9422 145.004ZM18.6582 1.43558L13.6582 1.43558L18.6582 1.43558ZM20.5202 27.7416L15.5202 27.7416L15.5202 32.7416L20.5202 32.7416L20.5202 27.7416ZM65.4361 27.7416L65.4361 32.7416L70.4361 32.7416L70.4361 27.7416L65.4361 27.7416ZM52.9502 145.004C52.9502 144.501 53.0776 143.799 53.5797 143.081L61.7753 148.811C62.6266 147.593 62.9502 146.214 62.9502 145.004L52.9502 145.004ZM53.5797 143.081C54.0935 142.346 55.2453 141.336 57.0192 141.336L57.0192 151.336C59.2869 151.336 60.9122 150.045 61.7753 148.811L53.5797 143.081ZM57.0192 141.336C58.7931 141.336 59.9448 142.346 60.4586 143.081L52.2631 148.811C53.1261 150.045 54.7514 151.336 57.0192 151.336L57.0192 141.336ZM60.4586 143.081C60.9608 143.799 61.0882 144.501 61.0882 145.004L51.0882 145.004C51.0882 146.214 51.4117 147.593 52.2631 148.811L60.4586 143.081ZM61.0882 145.004C61.0882 134.97 52.2574 127.639 42.4462 127.639L42.4462 137.639C47.6829 137.639 51.0882 141.396 51.0882 145.004L61.0882 145.004ZM42.4462 127.639C32.6349 127.639 23.8042 134.97 23.8042 145.004L33.8042 145.004C33.8042 141.396 37.2095 137.639 42.4462 137.639L42.4462 127.639ZM23.8042 145.004C23.8042 144.501 23.9316 143.799 24.4337 143.081L32.6293 148.811C33.4806 147.593 33.8042 146.214 33.8042 145.004L23.8042 145.004ZM24.4337 143.081C24.9475 142.346 26.0993 141.336 27.8732 141.336L27.8732 151.336C30.1409 151.336 31.7663 150.045 32.6293 148.811L24.4337 143.081ZM27.8732 141.336C29.6471 141.336 30.7989 142.346 31.3127 143.081L23.1171 148.811C23.9801 150.045 25.6054 151.336 27.8732 151.336L27.8732 141.336ZM31.3127 143.081C31.8148 143.799 31.9422 144.501 31.9422 145.004L21.9422 145.004C21.9422 146.214 22.2658 147.593 23.1171 148.811L31.3127 143.081ZM31.9422 145.004C31.9422 139.612 36.5212 134.949 42.4462 134.949L42.4462 124.949C31.2711 124.949 21.9422 133.82 21.9422 145.004L31.9422 145.004ZM42.4462 134.949C48.3711 134.949 52.9502 139.612 52.9502 145.004L62.9502 145.004C62.9502 133.82 53.6212 124.949 42.4462 124.949L42.4462 134.949ZM62.3171 1.43558L62.3171 29.0732L72.3171 29.0732L72.3171 1.43558L62.3171 1.43558ZM62.3171 29.0732C62.3171 28.5695 62.4445 27.868 62.9467 27.1498L71.1422 32.8797C71.9936 31.6621 72.3171 30.2831 72.3171 29.0732L62.3171 29.0732ZM62.9467 27.1498C63.4605 26.4148 64.6123 25.4048 66.3861 25.4048L66.3861 35.4048C68.6538 35.4048 70.2792 34.1142 71.1422 32.8797L62.9467 27.1498ZM66.3861 25.4048L19.5892 25.4048L19.5892 35.4048L66.3861 35.4048L66.3861 25.4048ZM19.5892 25.4048C21.422 25.4048 22.5587 26.4763 23.0291 27.1491C23.5136 27.8421 23.6582 28.5364 23.6582 29.0732L13.6582 29.0732C13.6582 30.3437 14.0118 31.7038 14.8335 32.8791C15.6412 34.0343 17.2434 35.4048 19.5892 35.4048L19.5892 25.4048ZM23.6582 29.0732L23.6582 1.43558L13.6582 1.43558L13.6582 29.0732L23.6582 29.0732ZM23.6582 1.43558C23.6582 1.93929 23.5308 2.64082 23.0287 3.35898L14.8331 -2.371C13.9818 -1.1534 13.6582 0.22554 13.6582 1.43558L23.6582 1.43558ZM23.0287 3.35898C22.5149 4.09378 21.3632 5.10396 19.5892 5.10396L19.5892 -4.89604C17.3213 -4.89604 15.696 -3.60526 14.8331 -2.371L23.0287 3.35898ZM19.5892 5.10396C17.8152 5.10396 16.6635 4.09381 16.1497 3.35898L24.3453 -2.371C23.4823 -3.60529 21.857 -4.89604 19.5892 -4.89604L19.5892 5.10396ZM16.1497 3.35898C15.6476 2.64079 15.5202 1.93924 15.5202 1.43558L25.5202 1.43558C25.5202 0.225586 25.1966 -1.15337 24.3453 -2.371L16.1497 3.35898ZM15.5202 1.43558L15.5202 27.7416L25.5202 27.7416L25.5202 1.43558L15.5202 1.43558ZM20.5202 32.7416L65.4361 32.7416L65.4361 22.7416L20.5202 22.7416L20.5202 32.7416ZM70.4361 27.7416L70.4361 1.43558L60.4361 1.43558L60.4361 27.7416L70.4361 27.7416ZM70.4361 1.43558C70.4361 1.9724 70.2915 2.66669 69.807 3.3596C69.3366 4.03244 68.1999 5.10396 66.3671 5.10396L66.3671 -4.89604C64.0214 -4.89604 62.4191 -3.52559 61.6115 -2.37038C60.7898 -1.19508 60.4361 0.165009 60.4361 1.43558L70.4361 1.43558ZM66.3671 5.10396C64.6038 5.10396 63.4652 4.09514 62.9628 3.38651C62.462 2.6801 62.3171 1.97186 62.3171 1.43558L72.3171 1.43558C72.3171 0.165543 71.9633 -1.20851 71.1205 -2.39728C70.2761 -3.58829 68.6624 -4.89604 66.3671 -4.89604L66.3671 5.10396Z" fill="#010792" mask="url(#path-5-inside-3_30087_6936)"/>
<mask id="path-7-inside-4_30087_6936" fill="white">
<path d="M57.7389 29.0091C57.7389 37.3012 50.8102 44.0709 42.2913 44.0709C33.7725 44.0709 26.8438 37.3284 26.8438 29.0091C26.8438 28.6557 26.9416 28.3169 27.1155 28.0671C27.2895 27.8172 27.5254 27.6769 27.7714 27.6769C28.0175 27.6769 28.2534 27.8172 28.4274 28.0671C28.6013 28.3169 28.699 28.6557 28.699 29.0091C28.699 35.8331 34.7948 41.3794 42.2913 41.3794C49.7879 41.3794 55.8836 35.8331 55.8836 29.0091C55.8836 28.6557 55.9814 28.3169 56.1553 28.0671C56.3293 27.8172 56.5652 27.6769 56.8112 27.6769C57.0573 27.6769 57.2932 27.8172 57.4672 28.0671C57.6411 28.3169 57.7389 28.6557 57.7389 29.0091ZM8.31061 172.668C8.31061 173.402 7.89413 174 7.36407 174C6.85294 174 6.43646 173.402 6.43646 172.668C6.43646 168.291 3.95653 164.729 0.927607 164.729C0.416476 164.729 -5.61158e-07 164.131 -6.02897e-07 163.397C-6.44636e-07 162.663 0.416476 162.037 0.927607 162.037C4.99772 162.037 8.31061 166.795 8.31061 172.668ZM84.6016 163.37C84.6016 163.723 84.5039 164.062 84.3299 164.312C84.156 164.562 83.92 164.702 83.674 164.702C80.6262 164.702 78.1462 168.263 78.1462 172.641C78.1273 173.402 77.7108 174 77.1997 174C76.6886 174 76.2721 173.402 76.2721 172.668C76.2721 166.822 79.585 162.037 83.674 162.037C84.1852 162.037 84.6016 162.636 84.6016 163.37ZM8.3106 1.3322C8.3106 7.17751 4.99772 11.9625 0.927598 11.9625C0.681581 11.9625 0.445641 11.8221 0.271681 11.5723C0.0977203 11.3225 -9.26917e-06 10.9836 -9.28926e-06 10.6303C-9.30935e-06 10.277 0.0977202 9.93816 0.27168 9.68831C0.445641 9.43848 0.681581 9.29813 0.927598 9.29813C3.95652 9.29813 6.43646 5.73656 6.43645 1.35937C6.43645 0.625305 6.85293 0.0271757 7.36406 0.0271757C7.89412 -1.96606e-07 8.3106 0.598129 8.3106 1.3322ZM84.6016 10.6303C84.6016 10.9836 84.5039 11.3225 84.3299 11.5723C84.156 11.8221 83.92 11.9625 83.674 11.9625C79.6039 11.9625 76.2721 7.20468 76.2721 1.35937C76.2721 0.625303 76.6886 -1.90995e-06 77.1997 -1.92268e-06C77.7108 -1.93541e-06 78.1273 0.570936 78.1273 1.3322C78.1273 5.73657 80.6072 9.27093 83.6551 9.27093C84.1851 9.29812 84.6016 9.89625 84.6016 10.6303Z"/>
</mask>
<path d="M57.7389 29.0091C57.7389 37.3012 50.8102 44.0709 42.2913 44.0709C33.7725 44.0709 26.8438 37.3284 26.8438 29.0091C26.8438 28.6557 26.9416 28.3169 27.1155 28.0671C27.2895 27.8172 27.5254 27.6769 27.7714 27.6769C28.0175 27.6769 28.2534 27.8172 28.4274 28.0671C28.6013 28.3169 28.699 28.6557 28.699 29.0091C28.699 35.8331 34.7948 41.3794 42.2913 41.3794C49.7879 41.3794 55.8836 35.8331 55.8836 29.0091C55.8836 28.6557 55.9814 28.3169 56.1553 28.0671C56.3293 27.8172 56.5652 27.6769 56.8112 27.6769C57.0573 27.6769 57.2932 27.8172 57.4672 28.0671C57.6411 28.3169 57.7389 28.6557 57.7389 29.0091ZM8.31061 172.668C8.31061 173.402 7.89413 174 7.36407 174C6.85294 174 6.43646 173.402 6.43646 172.668C6.43646 168.291 3.95653 164.729 0.927607 164.729C0.416476 164.729 -5.61158e-07 164.131 -6.02897e-07 163.397C-6.44636e-07 162.663 0.416476 162.037 0.927607 162.037C4.99772 162.037 8.31061 166.795 8.31061 172.668ZM84.6016 163.37C84.6016 163.723 84.5039 164.062 84.3299 164.312C84.156 164.562 83.92 164.702 83.674 164.702C80.6262 164.702 78.1462 168.263 78.1462 172.641C78.1273 173.402 77.7108 174 77.1997 174C76.6886 174 76.2721 173.402 76.2721 172.668C76.2721 166.822 79.585 162.037 83.674 162.037C84.1852 162.037 84.6016 162.636 84.6016 163.37ZM8.3106 1.3322C8.3106 7.17751 4.99772 11.9625 0.927598 11.9625C0.681581 11.9625 0.445641 11.8221 0.271681 11.5723C0.0977203 11.3225 -9.26917e-06 10.9836 -9.28926e-06 10.6303C-9.30935e-06 10.277 0.0977202 9.93816 0.27168 9.68831C0.445641 9.43848 0.681581 9.29813 0.927598 9.29813C3.95652 9.29813 6.43646 5.73656 6.43645 1.35937C6.43645 0.625305 6.85293 0.0271757 7.36406 0.0271757C7.89412 -1.96606e-07 8.3106 0.598129 8.3106 1.3322ZM84.6016 10.6303C84.6016 10.9836 84.5039 11.3225 84.3299 11.5723C84.156 11.8221 83.92 11.9625 83.674 11.9625C79.6039 11.9625 76.2721 7.20468 76.2721 1.35937C76.2721 0.625303 76.6886 -1.90995e-06 77.1997 -1.92268e-06C77.7108 -1.93541e-06 78.1273 0.570936 78.1273 1.3322C78.1273 5.73657 80.6072 9.27093 83.6551 9.27093C84.1851 9.29812 84.6016 9.89625 84.6016 10.6303Z" fill="#010792"/>
<path d="M26.8438 29.0091L21.8438 29.0091L26.8438 29.0091ZM55.8836 29.0091L60.8836 29.0091L55.8836 29.0091ZM78.1462 172.641L83.1447 172.765L83.1462 172.703L83.1462 172.641L78.1462 172.641ZM0.927598 11.9625L0.927598 6.96251L0.927598 11.9625ZM7.36406 0.0271757L7.36406 5.02718L7.49221 5.02718L7.62018 5.02061L7.36406 0.0271757ZM83.6551 9.27093L83.9112 4.27749L83.7832 4.27093L83.6551 4.27093L83.6551 9.27093ZM52.7389 29.0091C52.7389 34.4244 48.1656 39.0709 42.2913 39.0709L42.2913 49.0709C53.4548 49.0709 62.7389 40.1781 62.7389 29.0091L52.7389 29.0091ZM42.2913 39.0709C36.4111 39.0709 31.8438 34.4458 31.8438 29.0091L21.8438 29.0091C21.8438 40.2111 31.1339 49.0709 42.2913 49.0709L42.2913 39.0709ZM31.8438 29.0091C31.8438 29.5084 31.7183 30.2069 31.2188 30.9242L23.0123 25.2099C22.1649 26.4269 21.8438 27.8031 21.8438 29.0091L31.8438 29.0091ZM31.2188 30.9242C30.7083 31.6573 29.5555 32.6769 27.7714 32.6769L27.7714 22.6769C25.4954 22.6769 23.8706 23.9772 23.0123 25.2099L31.2188 30.9242ZM27.7714 32.6769C25.9874 32.6769 24.8346 31.6573 24.3241 30.9242L32.5306 25.2099C31.6722 23.9772 30.0475 22.6769 27.7714 22.6769L27.7714 32.6769ZM24.3241 30.9242C23.8246 30.2069 23.699 29.5083 23.699 29.0091L33.699 29.0091C33.699 27.8031 33.378 26.4269 32.5306 25.2099L24.3241 30.9242ZM23.699 29.0091C23.699 39.0277 32.4874 46.3794 42.2913 46.3794L42.2913 36.3794C37.1021 36.3794 33.699 32.6385 33.699 29.0091L23.699 29.0091ZM42.2913 46.3794C52.0953 46.3794 60.8836 39.0277 60.8836 29.0091L50.8836 29.0091C50.8836 32.6385 47.4806 36.3794 42.2913 36.3794L42.2913 46.3794ZM60.8836 29.0091C60.8836 29.5083 60.7581 30.2069 60.2586 30.9242L52.0521 25.2099C51.2047 26.4269 50.8836 27.8031 50.8836 29.0091L60.8836 29.0091ZM60.2586 30.9242C59.7481 31.6573 58.5953 32.6769 56.8112 32.6769L56.8112 22.6769C54.5352 22.6769 52.9104 23.9772 52.0521 25.2099L60.2586 30.9242ZM56.8112 32.6769C55.0273 32.6769 53.8744 31.6573 53.3639 30.9242L61.5704 25.2099C60.712 23.9771 59.0873 22.6769 56.8112 22.6769L56.8112 32.6769ZM53.3639 30.9242C52.8644 30.2069 52.7389 29.5083 52.7389 29.0091L62.7389 29.0091C62.7389 27.8031 62.4178 26.4269 61.5704 25.2099L53.3639 30.9242ZM3.31061 172.668C3.31061 172.136 3.45342 171.431 3.95172 170.725C4.45081 170.018 5.59063 169 7.36407 169L7.36407 179C9.66758 179 11.2807 177.683 12.1205 176.493C12.9596 175.305 13.3106 173.934 13.3106 172.668L3.31061 172.668ZM7.36407 169C9.20705 169 10.3449 170.081 10.8119 170.752C11.2938 171.444 11.4365 172.136 11.4365 172.668L1.43646 172.668C1.43646 173.934 1.78733 175.292 2.60532 176.466C3.40834 177.62 5.00996 179 7.36407 179L7.36407 169ZM11.4365 172.668C11.4365 169.581 10.5704 166.574 8.92432 164.204C7.2952 161.859 4.5489 159.729 0.927607 159.729L0.927607 169.729C0.335236 169.729 0.343365 169.38 0.711444 169.91C1.06252 170.415 1.43646 171.377 1.43646 172.668L11.4365 172.668ZM0.927607 159.729C2.77059 159.729 3.90841 160.81 4.3754 161.481C4.85737 162.173 5 162.865 5 163.397L-5 163.397C-5 164.663 -4.64913 166.021 -3.83114 167.195C-3.02813 168.349 -1.4265 169.729 0.927607 169.729L0.927607 159.729ZM5 163.397C5 163.923 4.86119 164.582 4.41209 165.246C3.99323 165.864 2.86152 167.037 0.927607 167.037L0.927607 157.038C-1.51744 157.038 -3.11295 158.524 -3.86783 159.638C-4.65295 160.798 -5 162.136 -5 163.397L5 163.397ZM0.927607 167.037C0.938394 167.037 1.0181 167.034 1.19728 167.143C1.39503 167.263 1.70343 167.52 2.03976 168.004C2.72634 168.992 3.31061 170.625 3.31061 172.668L13.3106 172.668C13.3106 168.838 12.2384 165.156 10.251 162.297C8.27763 159.458 5.06091 157.038 0.927607 157.038L0.927607 167.037ZM79.6016 163.37C79.6016 162.87 79.7272 162.172 80.2267 161.455L88.4332 167.169C89.2806 165.952 89.6016 164.576 89.6016 163.37L79.6016 163.37ZM80.2267 161.455C80.7371 160.721 81.89 159.702 83.674 159.702L83.674 169.702C85.9501 169.702 87.5749 168.402 88.4332 167.169L80.2267 161.455ZM83.674 159.702C80.0535 159.702 77.3013 161.821 75.6639 164.173C74.0123 166.545 73.1462 169.554 73.1462 172.641L83.1462 172.641C83.1462 171.35 83.5202 170.39 83.8705 169.887C84.235 169.363 84.2467 169.702 83.674 169.702L83.674 159.702ZM73.1478 172.516C73.1589 172.068 73.285 171.423 73.7543 170.749C74.2112 170.093 75.3462 169 77.1997 169L77.1997 179C79.5643 179 81.1632 177.608 81.9608 176.463C82.7708 175.3 83.1146 173.974 83.1447 172.765L73.1478 172.516ZM77.1997 169C79.0427 169 80.1805 170.081 80.6475 170.752C81.1295 171.444 81.2721 172.136 81.2721 172.668L71.2721 172.668C71.2721 173.934 71.623 175.292 72.4409 176.466C73.244 177.62 74.8456 179 77.1997 179L77.1997 169ZM81.2721 172.668C81.2721 170.643 81.8545 169.008 82.5453 168.014C82.8835 167.528 83.1944 167.268 83.3952 167.146C83.5772 167.035 83.6598 167.037 83.674 167.037L83.674 157.037C79.5285 157.037 76.3078 159.467 74.334 162.307C72.3461 165.167 71.2721 168.848 71.2721 172.668L81.2721 172.668ZM83.674 167.037C81.831 167.037 80.6932 165.956 80.2262 165.285C79.7443 164.593 79.6016 163.902 79.6016 163.37L89.6016 163.37C89.6016 162.103 89.2508 160.746 88.4328 159.571C87.6298 158.418 86.0281 157.037 83.674 157.037L83.674 167.037ZM3.3106 1.3322C3.3106 3.35727 2.72814 4.9935 2.0374 5.98901C1.69908 6.47661 1.38873 6.73621 1.18979 6.85786C1.00963 6.96803 0.932438 6.96251 0.927598 6.96251L0.927599 16.9625C5.07128 16.9625 8.2864 14.5246 10.2534 11.6897C12.2366 8.83136 13.3106 5.15243 13.3106 1.3322L3.3106 1.3322ZM0.927598 6.96251C2.71174 6.96251 3.86457 7.98219 4.37495 8.71518L-3.83159 14.4294C-2.97329 15.6621 -1.34858 16.9625 0.927599 16.9625L0.927598 6.96251ZM4.37495 8.71518C4.87442 9.43249 4.99999 10.131 4.99999 10.6303L-5.00001 10.6303C-5.00001 11.8363 -4.67898 13.2124 -3.83159 14.4294L4.37495 8.71518ZM4.99999 10.6303C4.99999 11.1296 4.87442 11.8281 4.37495 12.5454L-3.83159 6.83119C-4.67898 8.04817 -5.00001 9.42436 -5.00001 10.6303L4.99999 10.6303ZM4.37495 12.5454C3.86457 13.2784 2.71174 14.2981 0.927598 14.2981L0.927598 4.29813C-1.34858 4.29813 -2.97329 5.59854 -3.83159 6.83119L4.37495 12.5454ZM0.927598 14.2981C4.54889 14.2981 7.29519 12.168 8.92431 9.82277C10.5704 7.45308 11.4365 4.44603 11.4365 1.35937L1.43645 1.35937C1.43645 2.64992 1.06251 3.61223 0.711436 4.11761C0.343359 4.64749 0.335229 4.29813 0.927598 4.29813L0.927598 14.2981ZM11.4365 1.35937C11.4365 1.89165 11.2938 2.58295 10.8119 3.27512C10.3449 3.94579 9.20706 5.02718 7.36406 5.02718L7.36406 -4.97282C5.00994 -4.97282 3.40831 -3.59236 2.60531 -2.4391C1.78732 -1.26436 1.43645 0.0930328 1.43645 1.35937L11.4365 1.35937ZM7.62018 5.02061C5.73919 5.1171 4.50165 4.04633 3.97111 3.30554C3.44971 2.57753 3.3106 1.85579 3.3106 1.3322L13.3106 1.3322C13.3106 0.0745389 12.9633 -1.31331 12.1011 -2.51711C11.2298 -3.73367 9.519 -5.08992 7.10794 -4.96625L7.62018 5.02061ZM79.6016 10.6303C79.6016 10.131 79.7272 9.43251 80.2267 8.71518L88.4332 14.4294C89.2806 13.2124 89.6016 11.8362 89.6016 10.6303L79.6016 10.6303ZM80.2267 8.71518C80.737 7.98221 81.8899 6.96251 83.674 6.96251L83.674 16.9625C85.9502 16.9625 87.5749 15.6621 88.4332 14.4294L80.2267 8.71518ZM83.674 6.96251C83.6626 6.96251 83.5797 6.96585 83.3961 6.85431C83.1943 6.73178 82.8833 6.47272 82.5453 5.98901C81.8555 5.00189 81.2721 3.37755 81.2721 1.35937L71.2721 1.35937C71.2721 5.18651 72.3546 8.86374 74.3482 11.7169C76.3263 14.5476 79.5455 16.9625 83.674 16.9625L83.674 6.96251ZM81.2721 1.35937C81.2721 1.88585 81.1333 2.54497 80.6842 3.2081C80.2653 3.8266 79.1336 5 77.1997 5L77.1997 -5C74.7546 -5 73.1591 -3.51395 72.4042 -2.39928C71.6191 -1.23996 71.2721 0.0988447 71.2721 1.35937L81.2721 1.35937ZM77.1997 5C75.4407 5 74.2896 3.99928 73.771 3.26504C73.2554 2.535 73.1273 1.82138 73.1273 1.3322L83.1273 1.3322C83.1273 0.0817545 82.7909 -1.29796 81.9393 -2.5038C81.0847 -3.71381 79.4698 -5 77.1997 -5L77.1997 5ZM73.1273 1.3322C73.1273 4.42743 73.9909 7.44046 75.6481 9.81488C77.2942 12.1732 80.0485 14.2709 83.6551 14.2709L83.6551 4.27093C84.2138 4.27093 84.2042 4.60144 83.8483 4.09152C83.5037 3.59767 83.1273 2.64132 83.1273 1.3322L73.1273 1.3322ZM83.399 14.2644C81.7417 14.1794 80.6947 13.2189 80.2239 12.5427C79.748 11.8592 79.6016 11.1698 79.6016 10.6303L89.6016 10.6303C89.6016 9.35675 89.247 8.00125 88.4304 6.82841C87.6187 5.66276 86.0985 4.38969 83.9112 4.27749L83.399 14.2644Z" fill="#010792" mask="url(#path-7-inside-4_30087_6936)"/>
<mask id="path-9-inside-5_30087_6936" fill="white">
<path d="M25.368 89.6834C25.368 80.689 32.6901 73.3667 41.684 73.3667C50.678 73.3667 58 80.689 58 89.6834C58 98.6778 50.678 106 41.684 106C32.6901 106 25.368 98.6778 25.368 89.6834ZM56.1167 89.6834C56.1166 81.7269 49.6402 75.2694 41.7032 75.2694C33.7663 75.2694 27.2898 81.7461 27.2898 89.6834C27.2898 97.64 33.7663 104.097 41.7032 104.097C49.6402 104.097 56.1167 97.64 56.1167 89.6834Z"/>
</mask>
<path d="M25.368 89.6834C25.368 80.689 32.6901 73.3667 41.684 73.3667C50.678 73.3667 58 80.689 58 89.6834C58 98.6778 50.678 106 41.684 106C32.6901 106 25.368 98.6778 25.368 89.6834ZM56.1167 89.6834C56.1166 81.7269 49.6402 75.2694 41.7032 75.2694C33.7663 75.2694 27.2898 81.7461 27.2898 89.6834C27.2898 97.64 33.7663 104.097 41.7032 104.097C49.6402 104.097 56.1167 97.64 56.1167 89.6834Z" fill="#010792"/>
<path d="M30.368 89.6834C30.368 83.4503 35.4517 78.3667 41.684 78.3667L41.684 68.3667C29.9284 68.3667 20.368 77.9278 20.368 89.6834L30.368 89.6834ZM41.684 78.3667C47.9164 78.3667 53 83.4503 53 89.6834L63 89.6834C63 77.9278 53.4396 68.3667 41.684 68.3667L41.684 78.3667ZM53 89.6834C53 95.9166 47.9164 101 41.684 101L41.684 111C53.4396 111 63 101.439 63 89.6834L53 89.6834ZM41.684 101C35.4517 101 30.368 95.9166 30.368 89.6834L20.368 89.6834C20.368 101.439 29.9284 111 41.684 111L41.684 101ZM61.1167 89.6834C61.1166 78.9613 52.3975 70.2694 41.7032 70.2694L41.7032 80.2694C46.8829 80.2694 51.1167 84.4924 51.1167 89.6834L61.1167 89.6834ZM41.7032 70.2694C31.0046 70.2694 22.2898 78.9849 22.2898 89.6834L32.2898 89.6834C32.2898 84.5073 36.5279 80.2694 41.7032 80.2694L41.7032 70.2694ZM22.2898 89.6834C22.2898 100.406 31.009 109.097 41.7032 109.097L41.7032 99.0975C36.5236 99.0975 32.2898 94.8744 32.2898 89.6834L22.2898 89.6834ZM41.7032 109.097C52.3975 109.097 61.1167 100.406 61.1167 89.6834L51.1167 89.6834C51.1167 94.8744 46.8829 99.0975 41.7032 99.0975L41.7032 109.097Z" fill="#010792" mask="url(#path-9-inside-5_30087_6936)"/>
</g>
<defs>
<clipPath id="clip0_30087_6936">
<rect width="86" height="86" fill="white" transform="translate(86 86) rotate(180)"/>
</clipPath>
</defs>
</svg>
