<svg width="86" height="86" viewBox="0 0 86 86" fill="none" xmlns="http://www.w3.org/2000/svg">
<g clip-path="url(#clip0_30087_6927)">
<mask id="path-1-inside-1_30087_6927" fill="white">
<path d="M1.39837 85.3414L1.39838 0.658535C1.39838 0.483879 1.49612 0.316377 1.67013 0.192877C1.84412 0.0693765 2.08012 -5.24646e-06 2.32619 -5.23107e-06L85.0722 -5.80046e-08C85.5834 -2.60429e-08 86 0.295671 86 0.65854L86 85.3415C86 85.7043 85.5834 86 85.0722 86L2.32619 86C1.81495 86 1.39837 85.7043 1.39837 85.3414ZM3.27295 1.33052L3.27295 84.6829L84.1444 84.6829L84.1444 1.33052L3.27295 1.33052Z"/>
</mask>
<path d="M1.39837 85.3414L1.39838 0.658535C1.39838 0.483879 1.49612 0.316377 1.67013 0.192877C1.84412 0.0693765 2.08012 -5.24646e-06 2.32619 -5.23107e-06L85.0722 -5.80046e-08C85.5834 -2.60429e-08 86 0.295671 86 0.65854L86 85.3415C86 85.7043 85.5834 86 85.0722 86L2.32619 86C1.81495 86 1.39837 85.7043 1.39837 85.3414ZM3.27295 1.33052L3.27295 84.6829L84.1444 84.6829L84.1444 1.33052L3.27295 1.33052Z" fill="#010792"/>
<path d="M2.32619 -5.23107e-06L2.32619 -5.00001L2.32619 -5.23107e-06ZM3.27295 1.33052L3.27295 -3.66948L-1.72705 -3.66949L-1.72705 1.33051L3.27295 1.33052ZM3.27295 84.6829L-1.72705 84.6829L-1.72705 89.6829L3.27295 89.6829L3.27295 84.6829ZM84.1444 84.6829L84.1444 89.6829L89.1444 89.6829L89.1444 84.6829L84.1444 84.6829ZM84.1444 1.33052L89.1444 1.33052L89.1444 -3.66948L84.1444 -3.66948L84.1444 1.33052ZM6.39837 85.3414L6.39838 0.658535L-3.60162 0.658535L-3.60163 85.3414L6.39837 85.3414ZM6.39838 0.658535C6.39838 2.47082 5.38062 3.6907 4.56412 4.27022L-1.22388 -3.88447C-2.38837 -3.05794 -3.60162 -1.50306 -3.60162 0.658535L6.39838 0.658535ZM4.56412 4.27022C3.76763 4.83556 2.95273 4.99999 2.32619 4.99999L2.32619 -5.00001C1.20752 -5.00001 -0.0793761 -4.69681 -1.22388 -3.88447L4.56412 4.27022ZM2.32619 4.99999L85.0722 5L85.0722 -5L2.32619 -5.00001L2.32619 4.99999ZM85.0722 5C84.4078 5 83.6021 4.81583 82.8338 4.27054C82.0807 3.736 81 2.53227 81 0.65854L91 0.658541C91 -1.57805 89.711 -3.11106 88.6218 -3.88415C87.5175 -4.66799 86.2478 -5 85.0722 -5L85.0722 5ZM81 0.65854L81 85.3415L91 85.3415L91 0.658541L81 0.65854ZM81 85.3415C81 83.4677 82.0807 82.264 82.8338 81.7295C83.602 81.1842 84.4078 81 85.0722 81L85.0722 91C86.2478 91 87.5175 90.668 88.6218 89.8841C89.711 89.1111 91 87.578 91 85.3415L81 85.3415ZM85.0722 81L2.32619 81L2.32619 91L85.0722 91L85.0722 81ZM2.32619 81C2.99058 81 3.79632 81.1842 4.56457 81.7294C5.31766 82.264 6.39837 83.4677 6.39837 85.3414L-3.60163 85.3414C-3.60163 87.5781 -2.31262 89.1111 -1.22343 89.8841C-0.11909 90.668 1.15056 91 2.32619 91L2.32619 81ZM-1.72705 1.33051L-1.72705 84.6829L8.27295 84.6829L8.27295 1.33052L-1.72705 1.33051ZM3.27295 89.6829L84.1444 89.6829L84.1444 79.6829L3.27295 79.6829L3.27295 89.6829ZM89.1444 84.6829L89.1444 1.33052L79.1444 1.33052L79.1444 84.6829L89.1444 84.6829ZM84.1444 -3.66948L3.27295 -3.66948L3.27295 6.33051L84.1444 6.33052L84.1444 -3.66948Z" fill="#010792" mask="url(#path-1-inside-1_30087_6927)"/>
<mask id="path-3-inside-2_30087_6927" fill="white">
<path d="M1.1081 -1.03754C1.1081 -1.39071 1.20618 -1.72941 1.38078 -1.97913C1.55538 -2.22886 1.79219 -2.36915 2.0391 -2.36915L85.069 -2.36914C85.3159 -2.36914 85.5527 -2.22885 85.7273 -1.97913C85.9019 -1.7294 86 -1.3907 86 -1.03754C86 -0.684374 85.9019 -0.345678 85.7273 -0.0959537C85.5527 0.15377 85.3159 0.294071 85.069 0.294071L2.0391 0.294066C1.52611 0.294066 1.1081 -0.303802 1.1081 -1.03754Z"/>
</mask>
<path d="M1.1081 -1.03754C1.1081 -1.39071 1.20618 -1.72941 1.38078 -1.97913C1.55538 -2.22886 1.79219 -2.36915 2.0391 -2.36915L85.069 -2.36914C85.3159 -2.36914 85.5527 -2.22885 85.7273 -1.97913C85.9019 -1.7294 86 -1.3907 86 -1.03754C86 -0.684374 85.9019 -0.345678 85.7273 -0.0959537C85.5527 0.15377 85.3159 0.294071 85.069 0.294071L2.0391 0.294066C1.52611 0.294066 1.1081 -0.303802 1.1081 -1.03754Z" fill="#010792"/>
<path d="M6.1081 -1.03754C6.1081 -0.533891 5.9807 0.167661 5.47857 0.885859L-2.717 -4.84412C-3.56833 -3.62648 -3.8919 -2.24752 -3.8919 -1.03754L6.1081 -1.03754ZM5.47857 0.885859C4.96471 1.62083 3.81295 2.63085 2.0391 2.63085L2.0391 -7.36915C-0.228577 -7.36915 -1.85395 -6.07854 -2.717 -4.84412L5.47857 0.885859ZM2.0391 2.63085L85.069 2.63086L85.069 -7.36914L2.0391 -7.36915L2.0391 2.63085ZM85.069 2.63086C83.2951 2.63086 82.1434 1.6208 81.6295 0.885864L89.8251 -4.84412C88.9621 -6.0785 87.3367 -7.36914 85.069 -7.36914L85.069 2.63086ZM81.6295 0.885864C81.1274 0.167679 81 -0.533866 81 -1.03754L91 -1.03754C91 -2.24753 90.6764 -3.62648 89.8251 -4.84412L81.6295 0.885864ZM81 -1.03754C81 -1.54123 81.1274 -2.24277 81.6295 -2.96094L89.8251 2.76904C90.6764 1.55142 91 0.172477 91 -1.03754L81 -1.03754ZM81.6295 -2.96094C82.1433 -3.69577 83.295 -4.70593 85.069 -4.70593L85.069 5.29407C87.3368 5.29407 88.9622 4.00331 89.8251 2.76904L81.6295 -2.96094ZM85.069 -4.70593L2.0391 -4.70593L2.0391 5.29407L85.069 5.29407L85.069 -4.70593ZM2.0391 -4.70593C3.87186 -4.70593 5.00859 -3.63442 5.47901 -2.96158C5.96347 -2.26866 6.1081 -1.57436 6.1081 -1.03754L-3.8919 -1.03754C-3.8919 0.233016 -3.53827 1.59312 -2.71655 2.7684C-1.90888 3.92362 -0.306648 5.29407 2.0391 5.29407L2.0391 -4.70593Z" fill="#010792" mask="url(#path-3-inside-2_30087_6927)"/>
<mask id="path-5-inside-3_30087_6927" fill="white">
<path d="M60.632 43.3166C60.632 52.311 53.3099 59.6333 44.316 59.6333C35.322 59.6333 28 52.311 28 43.3166C28 34.3222 35.322 26.9999 44.316 26.9999C53.3099 26.9999 60.632 34.3222 60.632 43.3166ZM29.8834 43.3166C29.8834 51.2731 36.3598 57.7306 44.2968 57.7306C52.2337 57.7306 58.7102 51.2539 58.7102 43.3166C58.7102 35.36 52.2337 28.9025 44.2968 28.9025C36.3598 28.9025 29.8834 35.36 29.8834 43.3166Z"/>
</mask>
<path d="M60.632 43.3166C60.632 52.311 53.3099 59.6333 44.316 59.6333C35.322 59.6333 28 52.311 28 43.3166C28 34.3222 35.322 26.9999 44.316 26.9999C53.3099 26.9999 60.632 34.3222 60.632 43.3166ZM29.8834 43.3166C29.8834 51.2731 36.3598 57.7306 44.2968 57.7306C52.2337 57.7306 58.7102 51.2539 58.7102 43.3166C58.7102 35.36 52.2337 28.9025 44.2968 28.9025C36.3598 28.9025 29.8834 35.36 29.8834 43.3166Z" fill="#010792"/>
<path d="M55.632 43.3166C55.632 49.5497 50.5483 54.6333 44.316 54.6333L44.316 64.6333C56.0716 64.6333 65.632 55.0722 65.632 43.3166L55.632 43.3166ZM44.316 54.6333C38.0836 54.6333 33 49.5497 33 43.3166L23 43.3166C23 55.0722 32.5604 64.6333 44.316 64.6333L44.316 54.6333ZM33 43.3166C33 37.0834 38.0837 31.9999 44.316 31.9999L44.316 21.9999C32.5604 21.9999 23 31.561 23 43.3166L33 43.3166ZM44.316 31.9999C50.5483 31.9999 55.632 37.0834 55.632 43.3166L65.632 43.3166C65.632 31.561 56.0716 21.9999 44.316 21.9999L44.316 31.9999ZM24.8834 43.3166C24.8834 54.0387 33.6025 62.7306 44.2968 62.7306L44.2968 52.7306C39.1171 52.7306 34.8834 48.5076 34.8834 43.3166L24.8834 43.3166ZM44.2968 62.7306C54.9954 62.7306 63.7102 54.0151 63.7102 43.3166L53.7102 43.3166C53.7102 48.4927 49.4721 52.7306 44.2968 52.7306L44.2968 62.7306ZM63.7102 43.3166C63.7102 32.5945 54.991 23.9025 44.2968 23.9025L44.2968 33.9025C49.4764 33.9025 53.7102 38.1256 53.7102 43.3166L63.7102 43.3166ZM44.2968 23.9025C33.6025 23.9025 24.8834 32.5945 24.8834 43.3166L34.8834 43.3166C34.8834 38.1256 39.1171 33.9025 44.2968 33.9025L44.2968 23.9025Z" fill="#010792" mask="url(#path-5-inside-3_30087_6927)"/>
<path d="M2 84.5L85 1.5" stroke="#010792" stroke-width="2"/>
</g>
<defs>
<clipPath id="clip0_30087_6927">
<rect width="86" height="86" fill="white"/>
</clipPath>
</defs>
</svg>
