<svg width="527" height="754" viewBox="0 0 527 754" fill="none" xmlns="http://www.w3.org/2000/svg">
<g clip-path="url(#clip0_31167_3851)">
<path d="M3.66602 748.228L3.66598 5.89062C3.66598 4.50449 4.80216 3.37012 6.18454 3.37012L520.819 3.37009C522.202 3.37014 523.338 4.50451 523.338 5.8906L523.338 748.228C523.338 748.896 523.072 749.537 522.6 750.01C522.127 750.482 521.487 750.748 520.819 750.748L6.18457 750.748C4.8023 750.748 3.66621 749.613 3.66602 748.228ZM518.183 745.589L518.183 8.41111L8.70309 8.41113L8.70312 745.589L518.183 745.589Z" fill="#010792" stroke="#010792" stroke-width="6.50406"/>
<mask id="path-2-inside-1_31167_3851" fill="white">
<path d="M264 748C263.47 748 262.961 747.136 262.586 745.597C262.211 744.059 262 741.972 262 739.797V8.20322C262 6.02759 262.211 3.94107 262.586 2.40267C262.961 0.864263 263.47 0 264 0C264.53 0 265.039 0.864263 265.414 2.40267C265.789 3.94107 266 6.02759 266 8.20322V739.797C266 744.317 265.102 748 264 748Z"/>
</mask>
<path d="M264 748C263.47 748 262.961 747.136 262.586 745.597C262.211 744.059 262 741.972 262 739.797V8.20322C262 6.02759 262.211 3.94107 262.586 2.40267C262.961 0.864263 263.47 0 264 0C264.53 0 265.039 0.864263 265.414 2.40267C265.789 3.94107 266 6.02759 266 8.20322V739.797C266 744.317 265.102 748 264 748Z" fill="#010792"/>
<path d="M264 748V741.496C265.746 741.496 267.025 742.231 267.732 742.811C268.394 743.354 268.728 743.886 268.84 744.076C269.059 744.449 269.023 744.542 268.905 744.057L262.586 745.597L256.267 747.138C256.524 748.191 256.929 749.485 257.629 750.675C258.071 751.425 260.011 754.504 264 754.504V748ZM262.586 745.597L268.905 744.057C268.689 743.171 268.504 741.632 268.504 739.797H262H255.496C255.496 742.313 255.733 744.947 256.267 747.138L262.586 745.597ZM262 739.797H268.504V8.20322H262H255.496V739.797H262ZM262 8.20322H268.504C268.504 6.36836 268.689 4.82943 268.905 3.94327L262.586 2.40267L256.267 0.862061C255.733 3.05271 255.496 5.68682 255.496 8.20322H262ZM262.586 2.40267L268.905 3.94327C269.023 3.45822 269.059 3.55066 268.84 3.92366C268.728 4.11357 268.394 4.64571 267.732 5.18877C267.025 5.76855 265.746 6.50406 264 6.50406V0V-6.50406C260.011 -6.50406 258.071 -3.42462 257.629 -2.67479C256.929 -1.48507 256.524 -0.191295 256.267 0.862061L262.586 2.40267ZM264 0V6.50406C262.254 6.50406 260.975 5.76855 260.268 5.18876C259.606 4.64569 259.272 4.11355 259.16 3.92364C258.941 3.55065 258.977 3.45821 259.095 3.94327L265.414 2.40267L271.733 0.862061C271.476 -0.191283 271.071 -1.48505 270.371 -2.67477C269.929 -3.4246 267.989 -6.50406 264 -6.50406V0ZM265.414 2.40267L259.095 3.94327C259.311 4.82945 259.496 6.3684 259.496 8.20322H266H272.504C272.504 5.68678 272.267 3.05268 271.733 0.862061L265.414 2.40267ZM266 8.20322H259.496V739.797H266H272.504V8.20322H266ZM266 739.797H259.496C259.496 741.692 259.302 743.202 259.094 744.053C258.978 744.529 258.94 744.459 259.139 744.112C259.239 743.937 259.561 743.407 260.212 742.859C260.908 742.272 262.205 741.496 264 741.496V748V754.504C268.087 754.504 270.022 751.281 270.416 750.596C271.093 749.418 271.486 748.144 271.732 747.134C272.249 745.013 272.504 742.421 272.504 739.797H266Z" fill="#010792" mask="url(#path-2-inside-1_31167_3851)"/>
<mask id="path-4-inside-2_31167_3851" fill="white">
<path d="M527 377C527 377.53 526.391 378.039 525.307 378.414C524.223 378.789 522.753 379 521.22 379L5.77954 379C4.24671 379 2.77666 378.789 1.69279 378.414C0.608912 378.039 -6.42363e-08 377.53 -8.74221e-08 377C-1.10608e-07 376.47 0.608912 375.961 1.69279 375.586C2.77666 375.211 4.24671 375 5.77954 375L521.22 375C524.405 375 527 375.898 527 377Z"/>
</mask>
<path d="M527 377C527 377.53 526.391 378.039 525.307 378.414C524.223 378.789 522.753 379 521.22 379L5.77954 379C4.24671 379 2.77666 378.789 1.69279 378.414C0.608912 378.039 -6.42363e-08 377.53 -8.74221e-08 377C-1.10608e-07 376.47 0.608912 375.961 1.69279 375.586C2.77666 375.211 4.24671 375 5.77954 375L521.22 375C524.405 375 527 375.898 527 377Z" fill="#010792"/>
<path d="M527 377L520.496 377C520.496 374.588 521.891 373.191 522.39 372.774C522.927 372.326 523.305 372.225 523.18 372.268L525.307 378.414L527.434 384.561C528.394 384.229 529.618 383.686 530.73 382.757C531.804 381.859 533.504 379.942 533.504 377L527 377ZM525.307 378.414L523.18 372.268C522.967 372.341 522.258 372.496 521.22 372.496L521.22 379L521.22 385.504C523.249 385.504 525.479 385.237 527.434 384.561L525.307 378.414ZM521.22 379L521.22 372.496L5.77954 372.496L5.77954 379L5.77954 385.504L521.22 385.504L521.22 379ZM5.77954 379L5.77954 372.496C4.74247 372.496 4.0328 372.341 3.81974 372.268L1.69279 378.414L-0.434167 384.561C1.52053 385.237 3.75095 385.504 5.77954 385.504L5.77954 379ZM1.69279 378.414L3.81974 372.268C3.69523 372.225 4.07339 372.326 4.60992 372.774C5.10874 373.191 6.50406 374.588 6.50406 377L-8.74221e-08 377L-6.50406 377C-6.50406 379.942 -4.80429 381.859 -3.73004 382.757C-2.61809 383.686 -1.39353 384.229 -0.434167 384.561L1.69279 378.414ZM-8.74221e-08 377L6.50406 377C6.50406 379.412 5.10873 380.809 4.6099 381.226C4.07337 381.674 3.69521 381.775 3.81974 381.732L1.69279 375.586L-0.434167 369.439C-1.39351 369.771 -2.61807 370.314 -3.73002 371.243C-4.80427 372.141 -6.50406 374.058 -6.50406 377L-8.74221e-08 377ZM1.69279 375.586L3.81974 381.732C4.03284 381.659 4.74252 381.504 5.77954 381.504L5.77954 375L5.77954 368.496C3.7509 368.496 1.52049 368.763 -0.434167 369.439L1.69279 375.586ZM5.77954 375L5.77954 381.504L521.22 381.504L521.22 375L521.22 368.496L5.77954 368.496L5.77954 375ZM521.22 375L521.22 381.504C522.284 381.504 522.978 381.664 523.178 381.733C523.309 381.779 522.951 381.685 522.432 381.261C521.966 380.881 520.496 379.478 520.496 377L527 377L533.504 377C533.504 373.971 531.71 372.043 530.657 371.184C529.552 370.282 528.347 369.757 527.431 369.44C525.538 368.785 523.342 368.496 521.22 368.496L521.22 375Z" fill="#010792" mask="url(#path-4-inside-2_31167_3851)"/>
</g>
<defs>
<clipPath id="clip0_31167_3851">
<rect width="754" height="527" fill="white" transform="translate(0 754) rotate(-90)"/>
</clipPath>
</defs>
</svg>
