<svg width="1007" height="619" viewBox="0 0 1007 619" fill="none" xmlns="http://www.w3.org/2000/svg">
<path d="M1004.87 616.87H2.12891V115.485V2.12988H1004.87V616.87Z" stroke="#010792" stroke-miterlimit="10"/>
<path d="M503.521 2.12988V616.87" stroke="#010792" stroke-miterlimit="10"/>
<path d="M2.12891 138.872L1004.87 143.131" stroke="#010792" stroke-miterlimit="10"/>
<path d="M2.12891 476.551L1004.87 480.811" stroke="#010792" stroke-miterlimit="10"/>
<path d="M151.895 246.901L855.103 251.161" stroke="#010792" stroke-miterlimit="10"/>
<path d="M151.895 372.737L855.103 376.997" stroke="#010792" stroke-miterlimit="10"/>
<path d="M503.521 390.246C548.124 390.246 584.282 354.085 584.282 309.479C584.282 264.873 548.124 228.712 503.521 228.712C458.918 228.712 422.76 264.873 422.76 309.479C422.76 354.085 458.918 390.246 503.521 390.246Z" stroke="#010792" stroke-miterlimit="10"/>
<path d="M2.12891 232.844H56.4807V386.412H2.12891" stroke="#010792" stroke-miterlimit="10"/>
<path d="M149.297 371.885C171.106 361.96 186.398 338.488 186.398 311.097C186.398 283.749 171.106 260.235 149.297 250.309" stroke="#010792" stroke-miterlimit="10"/>
<path d="M2.12891 232.844L151.895 144.409L151.256 475.23L3.06601 387.562" stroke="#010792" stroke-miterlimit="10"/>
<path d="M1004.15 388.777H949.799V235.209H1004.15" stroke="#010792" stroke-miterlimit="10"/>
<path d="M856.982 249.735C835.174 259.661 819.882 283.132 819.882 310.523C819.882 337.872 835.174 361.386 856.982 371.312" stroke="#010792" stroke-miterlimit="10"/>
<path d="M1004.15 388.777L854.385 477.212L855.024 146.391L1003.21 234.059" stroke="#010792" stroke-miterlimit="10"/>
</svg>
