<svg width="830" height="456" viewBox="0 0 830 456" fill="none" xmlns="http://www.w3.org/2000/svg">
<path d="M157.1 418.707V200.325H678.327V418.707" stroke="#010792" stroke-miterlimit="10"/>
<path d="M299.57 415.125V341.246H531.138V415.125" stroke="#010792" stroke-miterlimit="10"/>
<path d="M408.488 263.784V279.813H423.637V263.784H408.488Z" stroke="#010792" stroke-width="0.6" stroke-miterlimit="10"/>
<path d="M504.427 200.372C490.364 172.414 457.094 152.801 418.35 152.801C379.606 152.801 346.336 172.414 332.273 200.372" stroke="#010792" stroke-miterlimit="10"/>
<path d="M466.297 415.454V454.586H384.703H368.658V415.454H466.297Z" stroke="#010792" stroke-width="0.6" stroke-miterlimit="10"/>
<path d="M384.42 416.444L368.375 440.583" stroke="#010792" stroke-width="0.6" stroke-miterlimit="10"/>
<path d="M403.72 416.021L379.275 454.822" stroke="#010792" stroke-width="0.6" stroke-miterlimit="10"/>
<path d="M423.73 416.444L398.436 454.397" stroke="#010792" stroke-width="0.6" stroke-miterlimit="10"/>
<path d="M441.522 414.7L416.086 454.397" stroke="#010792" stroke-width="0.6" stroke-miterlimit="10"/>
<path d="M456.718 416.444L432.934 454.586" stroke="#010792" stroke-width="0.6" stroke-miterlimit="10"/>
<path d="M466.58 428.514L448.176 454.208" stroke="#010792" stroke-width="0.6" stroke-miterlimit="10"/>
<path d="M450.535 416.255L466.58 440.394" stroke="#010792" stroke-width="0.6" stroke-miterlimit="10"/>
<path d="M431.234 415.831L455.679 454.633" stroke="#010792" stroke-width="0.6" stroke-miterlimit="10"/>
<path d="M411.225 416.255L436.519 454.161" stroke="#010792" stroke-width="0.6" stroke-miterlimit="10"/>
<path d="M393.434 414.511L418.87 454.208" stroke="#010792" stroke-width="0.6" stroke-miterlimit="10"/>
<path d="M378.238 416.255L402.023 454.396" stroke="#010792" stroke-width="0.6" stroke-miterlimit="10"/>
<path d="M368.375 428.324L386.78 454.019" stroke="#010792" stroke-width="0.6" stroke-miterlimit="10"/>
<path d="M2.35938 0V415.124H827.64V0" stroke="#010792" stroke-miterlimit="10"/>
</svg>
