<svg width="184" height="132" viewBox="0 0 184 132" fill="none" xmlns="http://www.w3.org/2000/svg">
<g clip-path="url(#clip0_30996_3767)">
<path d="M4.40047 0.5H179.12V130.74H3.48047L4.40047 0.5Z" stroke="#010792" stroke-miterlimit="10"/>
<path d="M29.1602 0.5V130.74" stroke="#010792" stroke-miterlimit="10"/>
<path d="M91.9902 0.5V130.74" stroke="#010792" stroke-miterlimit="10"/>
<path d="M154.82 0.5V130.74" stroke="#010792" stroke-miterlimit="10"/>
<path d="M4.18945 30.54H179.119" stroke="#010792" stroke-miterlimit="10"/>
<path d="M4.18945 52.0898H179.119" stroke="#010792" stroke-miterlimit="10"/>
<path d="M4.18945 78.6899H179.119" stroke="#010792" stroke-miterlimit="10"/>
<path d="M4.18945 100.47H179.119" stroke="#010792" stroke-miterlimit="10"/>
<path d="M60.8105 0.5V30.54" stroke="#010792" stroke-miterlimit="10"/>
<path d="M122.26 0.5V30.54" stroke="#010792" stroke-miterlimit="10"/>
<path d="M60.8105 100.47V130.51" stroke="#010792" stroke-miterlimit="10"/>
<path d="M122.26 100.47V130.51" stroke="#010792" stroke-miterlimit="10"/>
<path d="M12.8809 52.0898V78.6898" stroke="#010792" stroke-miterlimit="10"/>
<path d="M171.33 52.0898V78.6898" stroke="#010792" stroke-miterlimit="10"/>
<path d="M20.8195 64.9901C20.9852 64.9901 21.1195 64.8558 21.1195 64.6901C21.1195 64.5245 20.9852 64.3901 20.8195 64.3901C20.6538 64.3901 20.5195 64.5245 20.5195 64.6901C20.5195 64.8558 20.6538 64.9901 20.8195 64.9901Z" stroke="#010792" stroke-miterlimit="10"/>
<path d="M163.79 65.01C163.994 65.01 164.16 64.8444 164.16 64.64C164.16 64.4357 163.994 64.27 163.79 64.27C163.586 64.27 163.42 64.4357 163.42 64.64C163.42 64.8444 163.586 65.01 163.79 65.01Z" stroke="#010792" stroke-miterlimit="10"/>
<path d="M91.9806 65.2702C92.3506 65.2702 92.6506 64.9702 92.6506 64.6002C92.6506 64.2301 92.3506 63.9302 91.9806 63.9302C91.6105 63.9302 91.3105 64.2301 91.3105 64.6002C91.3105 64.9702 91.6105 65.2702 91.9806 65.2702Z" stroke="#010792" stroke-miterlimit="10"/>
<path d="M92.3105 77.6299C99.076 77.6299 104.561 72.1454 104.561 65.3799C104.561 58.6144 99.076 53.1299 92.3105 53.1299C85.5451 53.1299 80.0605 58.6144 80.0605 65.3799C80.0605 72.1454 85.5451 77.6299 92.3105 77.6299Z" stroke="#010792" stroke-miterlimit="10"/>
<path d="M154.861 77.14C151.101 75 148.551 70.84 148.551 66.06C148.551 61.28 151.101 57.12 154.861 54.98" stroke="#010792" stroke-miterlimit="10"/>
<path d="M29.1602 54.98C33.1902 57.12 35.9202 61.28 35.9202 66.06C35.9202 70.84 33.1902 75 29.1602 77.14" stroke="#010792" stroke-miterlimit="10"/>
<path d="M179.119 61.5298H183.019V69.8998H179.119" stroke="#010792" stroke-miterlimit="10"/>
<path d="M4.4 69.8099H0.5V61.4399H4.4" stroke="#010792" stroke-miterlimit="10"/>
<path d="M4.14062 3.11C4.14062 3.11 6.89062 3.71 7.18062 0.5" stroke="#010792" stroke-miterlimit="10"/>
<path d="M176.521 0.700195C176.521 0.700195 175.921 3.4502 179.131 3.7402" stroke="#010792" stroke-miterlimit="10"/>
<path d="M6.35023 130.74C6.35023 130.74 6.95023 127.99 3.74023 127.7" stroke="#010792" stroke-miterlimit="10"/>
<path d="M179.12 127.72C179.12 127.72 176.37 127.12 176.08 130.33" stroke="#010792" stroke-miterlimit="10"/>
</g>
<defs>
<clipPath id="clip0_30996_3767">
<rect width="183.52" height="131.24" fill="white"/>
</clipPath>
</defs>
</svg>
