<svg width="86" height="123" viewBox="0 0 86 123" fill="none" xmlns="http://www.w3.org/2000/svg">
<mask id="path-1-inside-1_30031_8500" fill="white">
<path d="M85.9319 0.960934L85.9319 122.058C85.9319 122.308 85.8327 122.548 85.6561 122.724C85.4795 122.901 85.24 123 84.9902 123L1.00808 123C0.489199 123 0.0664062 122.577 0.0664062 122.058L0.0664009 0.960938C0.0664009 0.442032 0.489194 0.0192184 1.00808 0.0192184L84.9902 0.0192147C85.5091 0.0192147 85.9319 0.442028 85.9319 0.960934ZM84.0293 121.097L84.0293 1.90265L1.94975 1.90266L1.94976 121.097L84.0293 121.097Z"/>
</mask>
<path d="M85.9319 0.960934L85.9319 122.058C85.9319 122.308 85.8327 122.548 85.6561 122.724C85.4795 122.901 85.24 123 84.9902 123L1.00808 123C0.489199 123 0.0664062 122.577 0.0664062 122.058L0.0664009 0.960938C0.0664009 0.442032 0.489194 0.0192184 1.00808 0.0192184L84.9902 0.0192147C85.5091 0.0192147 85.9319 0.442028 85.9319 0.960934ZM84.0293 121.097L84.0293 1.90265L1.94975 1.90266L1.94976 121.097L84.0293 121.097Z" fill="#010792"/>
<path d="M84.9902 123L84.9902 128L84.9902 123ZM84.0293 121.097L84.0293 126.097L89.0293 126.097L89.0293 121.097L84.0293 121.097ZM84.0293 1.90265L89.0293 1.90265L89.0293 -3.09735L84.0293 -3.09735L84.0293 1.90265ZM1.94975 1.90266L1.94975 -3.09734L-3.05025 -3.09734L-3.05025 1.90266L1.94975 1.90266ZM1.94976 121.097L-3.05024 121.097L-3.05024 126.097L1.94976 126.097L1.94976 121.097ZM80.9319 0.960934L80.9319 122.058L90.9319 122.058L90.9319 0.960934L80.9319 0.960934ZM80.9319 122.058C80.9319 120.982 81.3594 119.95 82.1205 119.189L89.1917 126.26C90.306 125.145 90.9319 123.634 90.9319 122.058L80.9319 122.058ZM82.1205 119.189C82.8816 118.428 83.9138 118 84.9902 118L84.9902 128C86.5661 128 88.0774 127.374 89.1917 126.26L82.1205 119.189ZM84.9902 118L1.00808 118L1.00808 128L84.9902 128L84.9902 118ZM1.00808 118C3.25084 118 5.06641 119.816 5.06641 122.058L-4.93359 122.058C-4.93359 125.338 -2.27244 128 1.00808 128L1.00808 118ZM5.06641 122.058L5.0664 0.960937L-4.9336 0.960938L-4.93359 122.058L5.06641 122.058ZM5.0664 0.960937C5.0664 3.20322 3.25086 5.01922 1.00808 5.01922L1.00808 -4.98078C-2.27247 -4.98078 -4.9336 -2.31915 -4.9336 0.960938L5.0664 0.960937ZM1.00808 5.01922L84.9902 5.01921L84.9902 -4.98079L1.00808 -4.98078L1.00808 5.01922ZM84.9902 5.01921C82.7475 5.01921 80.9319 3.20324 80.9319 0.960934L90.9319 0.960934C90.9319 -2.31918 88.2707 -4.98079 84.9902 -4.98079L84.9902 5.01921ZM89.0293 121.097L89.0293 1.90265L79.0293 1.90265L79.0293 121.097L89.0293 121.097ZM84.0293 -3.09735L1.94975 -3.09734L1.94975 6.90266L84.0293 6.90265L84.0293 -3.09735ZM-3.05025 1.90266L-3.05024 121.097L6.94976 121.097L6.94975 1.90266L-3.05025 1.90266ZM1.94976 126.097L84.0293 126.097L84.0293 116.097L1.94976 116.097L1.94976 126.097Z" fill="#010792" mask="url(#path-1-inside-1_30031_8500)"/>
</svg>
