<svg width="163" height="12" viewBox="0 0 163 12" fill="none" xmlns="http://www.w3.org/2000/svg">
<path d="M163 12L162.179 0.482184L152.615 6.95168L163 12ZM139.439 9.18224L138.729 9.88653L139.439 9.18224ZM147.13 8.46219L146.302 7.90192L147.13 8.46219ZM114.554 7.37718L115.382 6.8169L114.554 7.37718ZM122.837 7.37717L123.665 7.93745L122.837 7.37717ZM104.408 4.62282L105.236 5.1831L104.408 4.62282ZM112.691 4.62283L111.862 5.1831L112.691 4.62283ZM94.2614 7.37718L95.0897 6.8169L94.2614 7.37718ZM102.544 7.37717L101.716 6.8169L102.544 7.37717ZM84.1152 4.62282L84.9436 5.1831L84.1152 4.62282ZM92.3983 4.62283L91.57 5.1831L92.3983 4.62283ZM73.9691 7.37718L74.7974 6.8169L73.9691 7.37718ZM82.2522 7.37717L81.4239 6.8169L82.2522 7.37717ZM63.823 4.62282L64.6513 5.1831L63.823 4.62282ZM72.106 4.62283L71.2777 5.1831L72.106 4.62283ZM21.3754 7.37717L20.547 6.8169L21.3754 7.37717ZM1.82831 8.06027L3.77446 5.1831L2.11784 4.06255L0.171693 6.93973L1.82831 8.06027ZM10.4009 5.1831L12.264 7.93745L13.9206 6.8169L12.0575 4.06255L10.4009 5.1831ZM22.2037 7.93745L24.0667 5.1831L22.4101 4.06255L20.547 6.8169L22.2037 7.93745ZM30.6932 5.1831L32.5563 7.93745L34.2129 6.8169L32.3498 4.06255L30.6932 5.1831ZM42.4959 7.93745L44.359 5.1831L42.7024 4.06255L40.8393 6.8169L42.4959 7.93745ZM50.9855 5.1831L52.8485 7.93745L54.5051 6.8169L52.6421 4.06255L50.9855 5.1831ZM62.7882 7.93745L64.6513 5.1831L62.9947 4.06255L61.1316 6.8169L62.7882 7.93745ZM71.2777 5.1831L73.1408 7.93745L74.7974 6.8169L72.9343 4.06255L71.2777 5.1831ZM83.0805 7.93745L84.9436 5.1831L83.2869 4.06255L81.4239 6.8169L83.0805 7.93745ZM91.57 5.1831L93.4331 7.93745L95.0897 6.8169L93.2266 4.06255L91.57 5.1831ZM103.373 7.93745L105.236 5.1831L103.579 4.06255L101.716 6.8169L103.373 7.93745ZM111.862 5.1831L113.725 7.93745L115.382 6.8169L113.519 4.06255L111.862 5.1831ZM123.665 7.93745L126.262 4.09808L124.605 2.97753L122.008 6.8169L123.665 7.93745ZM132.415 3.52204L138.729 9.88653L140.149 8.47796L133.835 2.11347L132.415 3.52204ZM147.958 9.02247L150.555 5.1831L148.899 4.06255L146.302 7.90192L147.958 9.02247ZM150.555 5.1831C152.142 2.8379 155.595 2.8379 157.182 5.1831L158.838 4.06255C156.459 0.544746 151.278 0.544744 148.899 4.06255L150.555 5.1831ZM138.729 9.88653C141.391 12.5697 145.841 12.1531 147.958 9.02247L146.302 7.90192C144.89 9.98903 141.923 10.2668 140.149 8.47796L138.729 9.88653ZM126.262 4.09808C127.674 2.01097 130.64 1.73324 132.415 3.52204L133.835 2.11347C131.173 -0.569728 126.723 -0.153131 124.605 2.97753L126.262 4.09808ZM113.725 7.93745C116.105 11.4553 121.286 11.4553 123.665 7.93745L122.008 6.8169C120.422 9.1621 116.968 9.1621 115.382 6.8169L113.725 7.93745ZM105.236 5.1831C106.822 2.8379 110.276 2.8379 111.862 5.1831L113.519 4.06255C111.139 0.544748 105.959 0.544744 103.579 4.06255L105.236 5.1831ZM93.4331 7.93745C95.8126 11.4553 100.993 11.4553 103.373 7.93745L101.716 6.8169C100.13 9.1621 96.676 9.1621 95.0897 6.8169L93.4331 7.93745ZM84.9436 5.1831C86.5299 2.8379 89.9837 2.8379 91.57 5.1831L93.2266 4.06255C90.8472 0.544748 85.6664 0.544744 83.2869 4.06255L84.9436 5.1831ZM73.1408 7.93745C75.5203 11.4553 80.701 11.4553 83.0805 7.93745L81.4239 6.8169C79.8376 9.1621 76.3837 9.1621 74.7974 6.8169L73.1408 7.93745ZM64.6513 5.1831C66.2376 2.8379 69.6914 2.8379 71.2777 5.1831L72.9343 4.06255C70.5549 0.544748 65.3741 0.544744 62.9947 4.06255L64.6513 5.1831ZM52.8485 7.93745C55.228 11.4553 60.4087 11.4553 62.7882 7.93745L61.1316 6.8169C59.5453 9.1621 56.0915 9.1621 54.5051 6.8169L52.8485 7.93745ZM44.359 5.1831C45.9453 2.8379 49.3991 2.8379 50.9855 5.1831L52.6421 4.06255C50.2626 0.544748 45.0819 0.544744 42.7024 4.06255L44.359 5.1831ZM32.5563 7.93745C34.9357 11.4553 40.1165 11.4553 42.4959 7.93745L40.8393 6.8169C39.253 9.1621 35.7992 9.1621 34.2129 6.8169L32.5563 7.93745ZM24.0667 5.1831C25.653 2.8379 29.1069 2.8379 30.6932 5.1831L32.3498 4.06255C29.9703 0.544748 24.7896 0.544744 22.4101 4.06255L24.0667 5.1831ZM12.264 7.93745C14.6435 11.4553 19.8242 11.4553 22.2037 7.93745L20.547 6.8169C18.9607 9.1621 15.5069 9.1621 13.9206 6.8169L12.264 7.93745ZM3.77446 5.1831C5.36077 2.8379 8.81459 2.8379 10.4009 5.1831L12.0575 4.06255C9.67805 0.544748 4.49732 0.544744 2.11784 4.06255L3.77446 5.1831Z" fill="#010792"/>
</svg>
