<svg width="164" height="13" viewBox="0 0 164 13" fill="none" xmlns="http://www.w3.org/2000/svg">
<path d="M1 7.5L2.94615 4.62282C4.92904 1.69132 9.24632 1.69132 11.2292 4.62283L13.0923 7.37718C15.0752 10.3087 19.3925 10.3087 21.3754 7.37717L23.2384 4.62282C25.2213 1.69132 29.5386 1.69132 31.5215 4.62283L33.3846 7.37718C35.3675 10.3087 39.6847 10.3087 41.6676 7.37717L43.5307 4.62282C45.5136 1.69132 49.8309 1.69132 51.8138 4.62283L53.6768 7.37718C55.6597 10.3087 59.977 10.3087 61.9599 7.37717L63.823 4.62282C65.8059 1.69132 70.1231 1.69132 72.106 4.62283L73.9691 7.37718C75.952 10.3087 80.2693 10.3087 82.2522 7.37717L84.1153 4.62282C86.0981 1.69132 90.4154 1.69132 92.3983 4.62283L94.2614 7.37718C96.2443 10.3087 100.562 10.3087 102.544 7.37717L104.408 4.62282C106.39 1.69132 110.708 1.69132 112.691 4.62283L114.554 7.37718C116.537 10.3087 120.854 10.3087 122.837 7.37717L125.434 3.53781C127.198 0.928921 130.907 0.581757 133.125 2.81775L139.439 9.18224C141.657 11.4182 145.365 11.0711 147.13 8.46219L149.727 4.62282C151.71 1.69132 156.027 1.69132 158.01 4.62282L163 12" stroke="#010792" stroke-width="2"/>
</svg>
