<svg width="77" height="61" viewBox="0 0 77 61" fill="none" xmlns="http://www.w3.org/2000/svg">
<path d="M15.1904 48H5.68457V12.459C5.68457 9.9362 6.17904 7.81706 7.16797 6.10156C8.17708 4.38607 9.59993 3.08431 11.4365 2.19629C13.2731 1.30827 15.4427 0.864258 17.9453 0.864258C18.8132 0.864258 19.6204 0.924805 20.3672 1.0459C21.1341 1.14681 21.8809 1.28809 22.6074 1.46973V8.52344C22.224 8.42253 21.8304 8.35189 21.4268 8.31152C21.0231 8.27116 20.5387 8.25098 19.9736 8.25098C18.9645 8.25098 18.0967 8.41243 17.3701 8.73535C16.6637 9.03809 16.1188 9.51237 15.7354 10.1582C15.3721 10.7839 15.1904 11.5508 15.1904 12.459V48ZM21.6689 15.2441V21.874H0.901367V15.2441H21.6689ZM42.4062 15.2441V21.874H22.9707V15.2441H42.4062ZM27.4209 7.13086H36.8965V37.7373C36.8965 38.6455 37.0075 39.3418 37.2295 39.8262C37.4515 40.3105 37.8148 40.6536 38.3193 40.8555C38.8239 41.0371 39.4697 41.1279 40.2568 41.1279C40.8219 41.1279 41.3063 41.1077 41.71 41.0674C42.1136 41.027 42.487 40.9766 42.8301 40.916V47.7578C42.0228 48.0202 41.165 48.222 40.2568 48.3633C39.3486 48.5247 38.3597 48.6055 37.29 48.6055C35.2516 48.6055 33.4857 48.2725 31.9922 47.6064C30.5189 46.9404 29.3887 45.891 28.6016 44.458C27.8145 43.0049 27.4209 41.1178 27.4209 38.7969V7.13086ZM56.4229 21.541V60.5938H46.9775V15.2441H55.7871L56.4229 21.541ZM76.8574 31.2588V31.8945C76.8574 34.276 76.585 36.486 76.04 38.5244C75.4951 40.5426 74.6777 42.3086 73.5879 43.8223C72.5182 45.3359 71.1963 46.5166 69.6221 47.3643C68.0479 48.1917 66.2214 48.6055 64.1426 48.6055C62.1647 48.6055 60.4492 48.1917 58.9961 47.3643C57.5632 46.5166 56.3522 45.346 55.3633 43.8525C54.3945 42.3389 53.6074 40.6133 53.002 38.6758C52.4167 36.7181 51.9626 34.6292 51.6396 32.4092V31.168C51.9626 28.8066 52.4268 26.6169 53.0322 24.5986C53.6377 22.5804 54.4248 20.8346 55.3936 19.3613C56.3623 17.8678 57.5632 16.7074 58.9961 15.8799C60.429 15.0524 62.1344 14.6387 64.1123 14.6387C66.1709 14.6387 67.9974 15.0322 69.5918 15.8193C71.1862 16.6064 72.5182 17.7367 73.5879 19.21C74.6777 20.6631 75.4951 22.4089 76.04 24.4473C76.585 26.4857 76.8574 28.7562 76.8574 31.2588ZM67.3818 31.8945V31.2588C67.3818 29.9268 67.2809 28.7057 67.0791 27.5957C66.8773 26.4655 66.5544 25.4867 66.1104 24.6592C65.6663 23.8115 65.0811 23.1556 64.3545 22.6914C63.6279 22.2272 62.7399 21.9951 61.6904 21.9951C60.5602 21.9951 59.6016 22.1768 58.8145 22.54C58.0273 22.9033 57.3916 23.4382 56.9072 24.1445C56.4229 24.8307 56.0697 25.6784 55.8477 26.6875C55.6458 27.6966 55.5348 28.847 55.5146 30.1387V33.4688C55.5348 34.9824 55.7467 36.3346 56.1504 37.5254C56.5742 38.696 57.2301 39.6143 58.1182 40.2803C59.0264 40.9261 60.2373 41.249 61.751 41.249C62.8206 41.249 63.7087 41.0169 64.415 40.5527C65.1416 40.0684 65.7168 39.3923 66.1406 38.5244C66.5846 37.6566 66.8975 36.6576 67.0791 35.5273C67.2809 34.3971 67.3818 33.1862 67.3818 31.8945Z" fill="#010792"/>
</svg>
